<?xml version="1.0" encoding="utf-8"?>
<!-- Generator: Adobe Illustrator 15.0.2, SVG Export Plug-In . SVG Version: 6.00 Build 0)  -->
<!DOCTYPE svg PUBLIC "-//W3C//DTD SVG 1.1//EN" "http://www.w3.org/Graphics/SVG/1.1/DTD/svg11.dtd">
<svg version="1.1" xmlns="http://www.w3.org/2000/svg" xmlns:xlink="http://www.w3.org/1999/xlink" x="0px" y="0px" width="500px"
	 height="71.994px" viewBox="0 0 500 71.994" style="enable-background:new 0 0 500 71.994;" xml:space="preserve">
<g id="UF">
	<polygon points="65.657,51.917 65.657,36.191 80.15,36.191 80.15,25.819 65.657,25.819 65.657,11.126 81.57,11.126 81.57,16.822 
		92.064,16.822 92.064,0.845 50.036,0.845 50.036,11.126 53.974,11.126 53.974,51.917 50.055,51.917 50.055,62.291 69.45,62.291 
		69.45,51.917 65.657,51.917 	"/>
	<path d="M44.57,39.063V11.126h3.887V0.845H29.012v10.281h3.793v24.462c0,10.265-1.186,15.181-8.551,15.181
		c-7.363,0-8.549-4.916-8.549-15.181V11.126h3.758V0.845H0v10.281h3.854v27.937c0,6.096,0,11.1,2.881,15.592
		c3.216,5.081,9.054,8.326,17.519,8.326C39.239,62.98,44.57,55.164,44.57,39.063L44.57,39.063z"/>
</g>
<g id="levin">
	<path d="M114.854,29.313v-1.021c0.34-0.146,0.822-0.405,1.442-0.776c0.278-0.158,0.457-0.289,0.536-0.396
		c0.051-0.065,0.085-0.136,0.096-0.218c0.068-0.332,0.125-1.511,0.182-3.54c0.051-2.032,0.079-4.472,0.079-7.314
		c0-4.18-0.011-6.761-0.031-7.739c-0.042-2.488-0.122-3.911-0.241-4.268c-0.051-0.159-0.153-0.278-0.3-0.357
		c-0.306-0.198-1.326-0.329-3.055-0.397V1.542c1.678,0.091,3.594,0.136,5.748,0.136c2.403,0,4.681-0.045,6.835-0.136v1.746
		c-1.496,0.068-2.406,0.187-2.737,0.357c-0.145,0.079-0.25,0.209-0.317,0.385c-0.065,0.181-0.127,0.998-0.187,2.451
		c-0.06,1.454-0.091,3.29-0.091,5.512c0,0.238,0.006,2.148,0.022,5.732c0.012,1.891,0.023,3.764,0.034,5.623
		c0.006,1.855,0.017,2.983,0.034,3.381c1.822,0.09,3.066,0.136,3.727,0.136c2.009,0,3.76-0.119,5.254-0.363
		c0.541-0.079,0.864-0.164,0.972-0.255c0.104-0.093,0.215-0.337,0.334-0.73c0.267-1.001,0.524-2.146,0.777-3.436h1.655
		c-0.04,0.369-0.063,0.59-0.063,0.655l-0.487,4.001c-0.107,1.256-0.165,2.01-0.176,2.259c-0.385,0.107-0.771,0.179-1.15,0.219
		c-0.811,0.064-2.058,0.099-3.752,0.099c-0.238,0-1.791-0.034-4.665-0.102c-2.182-0.052-3.701-0.08-4.563-0.08
		C119.468,29.132,117.498,29.194,114.854,29.313z"/>
	<path d="M154.951,26.262l-0.873,1.943c-1.085,0.655-2.202,1.14-3.353,1.454c-0.861,0.221-1.842,0.335-2.941,0.335
		c-1.31,0-2.463-0.153-3.463-0.457c-0.998-0.303-1.854-0.72-2.559-1.249c-0.706-0.527-1.329-1.177-1.868-1.944
		c-0.533-0.766-0.921-1.652-1.159-2.658c-0.238-1.003-0.357-2.103-0.357-3.293c0-1.731,0.229-3.279,0.694-4.642
		c0.317-0.953,0.688-1.638,1.111-2.063c0.267-0.264,0.952-0.759,2.063-1.488c1.114-0.728,1.921-1.204,2.423-1.428
		c0.927-0.411,2.018-0.615,3.273-0.615c1.774,0,3.23,0.368,4.37,1.111c1.137,0.74,1.938,1.683,2.409,2.834
		c0.471,1.15,0.706,2.545,0.706,4.183c0,0.371-0.014,0.729-0.04,1.071c-0.332,0.107-0.836,0.227-1.51,0.357
		c-0.901,0.173-1.51,0.266-1.828,0.277c-0.995,0.079-2.304,0.127-3.937,0.142c-1.626,0.017-2.528,0.031-2.701,0.045
		c-0.173,0.018-0.366,0.023-0.575,0.023h-1.312c0.104,2.085,0.756,3.734,1.947,4.942c1.193,1.21,2.664,1.813,4.412,1.813
		c0.757,0,1.448-0.08,2.086-0.244s1.471-0.499,2.502-1.006L154.951,26.262z M150.235,18.026c0.054-2.1-0.232-3.574-0.856-4.421
		c-0.638-0.833-1.459-1.25-2.468-1.25c-1.034,0-1.89,0.437-2.567,1.31c-0.691,0.884-1.009,2.341-0.955,4.361
		c0.785,0.119,2.089,0.179,3.919,0.179C148.475,18.205,149.45,18.146,150.235,18.026z"/>
	<path d="M165.722,29.473c-0.675-1.84-1.482-3.945-2.42-6.314l-2.621-6.631c-0.241-0.596-0.683-1.621-1.329-3.078
		c-0.212-0.465-0.431-0.771-0.658-0.916c-0.357-0.212-0.941-0.323-1.746-0.337v-1.542c1.879,0.045,3.718,0.068,5.521,0.068
		c1.695,0,3.361-0.022,4.999-0.068v1.542c-0.765,0-1.445,0.054-2.041,0.159c-0.176,0.04-0.303,0.111-0.391,0.21
		c-0.085,0.099-0.125,0.215-0.125,0.346l0.079,0.357l0.771,2.403l1.587,4.152l0.776,1.946c0.459,1.19,0.765,1.953,0.913,2.284
		l1.287-2.97l1.213-2.947c0.793-1.867,1.332-3.265,1.61-4.191c0.13-0.462,0.198-0.802,0.198-1.012c0-0.215-0.099-0.374-0.298-0.487
		c-0.201-0.113-0.96-0.195-2.281-0.25v-1.542c1.36,0.045,2.639,0.068,3.832,0.068c1.136,0,2.494-0.022,4.069-0.068v1.542
		c-0.992,0.119-1.581,0.221-1.757,0.301c-0.181,0.079-0.343,0.241-0.487,0.481c-0.278,0.425-0.856,1.629-1.729,3.605l-1.867,4.211
		l-0.796,1.746c-0.343,0.771-0.72,1.678-1.131,2.72c-0.796,2.026-1.363,3.43-1.709,4.212H165.722z"/>
	<path d="M180.022,29.313V27.84c1.473-0.104,2.318-0.221,2.528-0.346c0.209-0.127,0.343-0.362,0.396-0.705
		c0.136-0.729,0.204-2.602,0.204-5.62c0-4.143-0.063-6.498-0.182-7.067c-0.054-0.264-0.142-0.437-0.261-0.516
		c-0.26-0.17-1.156-0.263-2.686-0.277v-1.519c1.998-0.21,3.508-0.431,4.528-0.666s2.131-0.595,3.338-1.08l0.476,0.258
		c-0.17,2.066-0.25,4.004-0.25,5.818v6.75c0,2.302,0.051,3.667,0.159,4.09c0.051,0.237,0.159,0.396,0.317,0.476
		c0.357,0.173,1.224,0.286,2.607,0.337v1.542c-1.882-0.06-3.928-0.091-6.136-0.091C183.156,29.223,181.479,29.254,180.022,29.313z
		 M185.474,0.589c0.844,0,1.559,0.298,2.145,0.896c0.587,0.595,0.881,1.31,0.881,2.143c0,0.85-0.294,1.57-0.881,2.165
		c-0.586,0.598-1.301,0.896-2.145,0.896c-0.833,0-1.544-0.297-2.137-0.896c-0.595-0.595-0.89-1.315-0.89-2.165
		c0-0.833,0.292-1.547,0.878-2.143C183.913,0.887,184.629,0.589,185.474,0.589z"/>
	<path d="M215.768,27.849v1.465c-1.802-0.091-3.27-0.136-4.409-0.136c-1.31,0-2.449,0.045-3.418,0.136l-0.357-0.357
		c0.028-0.277,0.113-1.422,0.261-3.435l0.102-3.253v-1.567c0-2.315-0.091-3.837-0.267-4.565c-0.181-0.726-0.55-1.312-1.105-1.757
		c-0.556-0.442-1.295-0.663-2.222-0.663s-1.695,0.224-2.301,0.672c-0.612,0.445-0.995,0.893-1.153,1.343
		c-0.094,0.264-0.133,1.321-0.116,3.169v3.326c0,0.967,0.028,2.146,0.091,3.546c0.011,0.62,0.068,1.031,0.159,1.229
		c0.068,0.145,0.153,0.25,0.258,0.314c0.159,0.105,0.467,0.207,0.932,0.298c0.159,0.028,0.714,0.079,1.667,0.158v1.542
		c-1.445-0.06-3.214-0.091-5.305-0.091c-2.426,0-4.307,0.031-5.645,0.091v-1.542c1.037,0,1.751-0.073,2.151-0.218
		c0.184-0.065,0.326-0.179,0.417-0.337c0.136-0.25,0.21-0.726,0.221-1.426l0.074-1.766c0.011-0.368,0.017-0.969,0.017-1.802v-2.597
		c0-1.173-0.028-2.601-0.091-4.279c-0.04-0.844-0.096-1.323-0.17-1.434c-0.074-0.114-0.193-0.199-0.352-0.25
		c-0.255-0.091-1.009-0.159-2.267-0.198v-1.542c2.409-0.408,3.99-0.711,4.744-0.91c0.756-0.198,1.609-0.513,2.562-0.949l0.539,0.238
		v3.193l3.61-2.905c0.437-0.17,0.805-0.289,1.1-0.346c0.3-0.062,0.714-0.09,1.241-0.09c1.417,0,2.477,0.159,3.185,0.479
		c0.708,0.317,1.31,0.768,1.797,1.346c0.493,0.578,0.833,1.179,1.031,1.811c0.199,0.632,0.301,1.618,0.301,2.961
		c0,1.514-0.017,2.477-0.045,2.888c-0.017,0.161-0.023,0.354-0.023,0.578l0.023,2.052c0.017,2.247,0.051,3.636,0.113,4.166
		c0.057,0.529,0.176,0.872,0.357,1.025c0.176,0.153,0.573,0.25,1.185,0.289C214.878,27.767,215.252,27.798,215.768,27.849z"/>
	<path d="M254.212,25.712l-0.913,2.003c-1.649,0.873-3.134,1.469-4.449,1.794c-1.315,0.323-2.953,0.485-4.925,0.485
		c-2.8,0-5.277-0.442-7.431-1.329c-1.695-0.712-3.128-1.658-4.302-2.834c-1.179-1.177-2.086-2.451-2.715-3.829
		c-0.969-2.074-1.451-4.327-1.451-6.759c0-4.163,1.423-7.563,4.273-10.199c2.845-2.639,6.87-3.956,12.061-3.956
		c1.786,0,3.39,0.133,4.807,0.396c1.422,0.267,3.072,0.737,4.948,1.411l0.096,0.261c-0.215,0.624-0.379,1.406-0.499,2.347
		c-0.204,1.496-0.329,2.882-0.386,4.154h-1.542c-0.028-1.457-0.096-2.621-0.204-3.497c-0.884-0.926-1.876-1.618-2.976-2.074
		c-1.105-0.459-2.511-0.686-4.228-0.686c-3.1,0-5.577,0.98-7.436,2.941c-1.865,1.961-2.794,4.698-2.794,8.212
		c0,2.125,0.317,3.981,0.94,5.565c0.629,1.587,1.462,2.896,2.505,3.934s2.097,1.794,3.151,2.268c1.439,0.635,3.18,0.952,5.231,0.952
		c1.343,0,2.618-0.153,3.82-0.454c1.202-0.306,2.511-0.827,3.922-1.563L254.212,25.712z"/>
	<path d="M256.553,19.939c0-2.245,0.38-4.106,1.151-5.58c0.765-1.474,1.921-2.584,3.451-3.33c1.536-0.748,3.327-1.122,5.362-1.122
		c3.061,0,5.384,0.799,6.983,2.397c1.592,1.601,2.392,3.947,2.392,7.039c0,1.785-0.232,3.333-0.697,4.643
		c-0.464,1.309-1.083,2.363-1.864,3.162c-0.782,0.799-1.604,1.405-2.46,1.813c-1.474,0.687-3.129,1.032-4.965,1.032
		c-2.993,0-5.299-0.851-6.92-2.548S256.553,23.246,256.553,19.939z M262.04,18.992c0,3.518,0.516,6.025,1.553,7.519
		c0.691,0.992,1.672,1.488,2.947,1.488c1.088,0,1.95-0.377,2.59-1.131c0.85-1.006,1.275-2.95,1.275-5.835
		c0-2.023-0.17-3.758-0.51-5.206c-0.34-1.448-0.833-2.457-1.49-3.026c-0.658-0.57-1.451-0.853-2.381-0.853
		c-0.799,0-1.496,0.209-2.091,0.624c-0.601,0.419-1.065,1.119-1.394,2.105C262.204,15.66,262.04,17.1,262.04,18.992z"/>
	<path d="M289.375,27.771v1.542c-1.655-0.091-3.378-0.136-5.174-0.136c-1.802,0-3.826,0.045-6.07,0.136v-1.542
		c1.27-0.039,2.035-0.09,2.301-0.158c0.204-0.051,0.351-0.131,0.453-0.227c0.102-0.103,0.17-0.255,0.21-0.468
		c0.096-0.396,0.153-1.646,0.187-3.749c0.028-2.105,0.045-3.971,0.045-5.6v-6.546c0-2.077-0.045-3.976-0.136-5.696
		c-0.057-0.924-0.119-1.474-0.198-1.644c-0.057-0.094-0.13-0.165-0.221-0.218c-0.159-0.105-0.414-0.184-0.759-0.238
		c-0.198-0.025-0.793-0.059-1.791-0.099V1.655c1.644-0.173,2.958-0.362,3.939-0.566c0.98-0.207,2.301-0.57,3.962-1.088l0.419,0.238
		l-0.17,4.013c-0.068,2.25-0.113,5.013-0.125,8.286v5.084c0,1.921,0.011,3.355,0.028,4.311c0.04,2.372,0.074,3.806,0.102,4.302
		s0.074,0.811,0.142,0.943c0.04,0.091,0.102,0.17,0.199,0.238c0.119,0.091,0.323,0.164,0.618,0.218
		C287.454,27.658,288.134,27.707,289.375,27.771z"/>
	<path d="M302.496,27.771v1.542c-1.649-0.091-3.378-0.136-5.175-0.136c-1.796,0-3.82,0.045-6.07,0.136v-1.542
		c1.27-0.039,2.04-0.09,2.307-0.158c0.198-0.051,0.351-0.131,0.448-0.227c0.102-0.103,0.17-0.255,0.215-0.468
		c0.091-0.396,0.153-1.646,0.181-3.749c0.034-2.105,0.045-3.971,0.045-5.6v-6.546c0-2.077-0.045-3.976-0.136-5.696
		c-0.051-0.924-0.119-1.474-0.199-1.644c-0.051-0.094-0.125-0.165-0.221-0.218c-0.159-0.105-0.408-0.184-0.754-0.238
		c-0.198-0.025-0.799-0.059-1.797-0.099V1.655c1.649-0.173,2.958-0.362,3.945-0.566c0.98-0.207,2.301-0.57,3.962-1.088l0.414,0.238
		l-0.164,4.013c-0.074,2.25-0.114,5.013-0.13,8.286v5.084c0,1.921,0.011,3.355,0.034,4.311c0.04,2.372,0.074,3.806,0.097,4.302
		c0.028,0.496,0.073,0.811,0.142,0.943c0.04,0.091,0.107,0.17,0.198,0.238c0.119,0.091,0.329,0.164,0.624,0.218
		C300.581,27.658,301.26,27.707,302.496,27.771z"/>
	<path d="M321.693,26.262l-0.873,1.943c-1.083,0.655-2.205,1.14-3.355,1.454c-0.855,0.221-1.836,0.335-2.936,0.335
		c-1.31,0-2.466-0.153-3.463-0.457c-0.998-0.303-1.854-0.72-2.562-1.249c-0.708-0.527-1.326-1.177-1.865-1.944
		c-0.533-0.766-0.924-1.652-1.162-2.658c-0.238-1.003-0.357-2.103-0.357-3.293c0-1.731,0.232-3.279,0.697-4.642
		c0.317-0.953,0.686-1.638,1.111-2.063c0.267-0.264,0.952-0.759,2.063-1.488c1.111-0.728,1.921-1.204,2.42-1.428
		c0.929-0.411,2.018-0.615,3.276-0.615c1.774,0,3.23,0.368,4.364,1.111c1.139,0.74,1.944,1.683,2.414,2.834
		c0.471,1.15,0.703,2.545,0.703,4.183c0,0.371-0.012,0.729-0.04,1.071c-0.329,0.107-0.833,0.227-1.507,0.357
		c-0.901,0.173-1.513,0.266-1.831,0.277c-0.992,0.079-2.301,0.127-3.934,0.142c-1.626,0.017-2.528,0.031-2.704,0.045
		c-0.17,0.018-0.363,0.023-0.572,0.023h-1.315c0.107,2.085,0.754,3.734,1.95,4.942c1.19,1.21,2.664,1.813,4.41,1.813
		c0.753,0,1.451-0.08,2.085-0.244c0.641-0.164,1.474-0.499,2.505-1.006L321.693,26.262z M316.977,18.026
		c0.057-2.1-0.232-3.574-0.856-4.421c-0.635-0.833-1.457-1.25-2.465-1.25c-1.037,0-1.893,0.437-2.567,1.31
		c-0.691,0.884-1.009,2.341-0.958,4.361c0.782,0.119,2.091,0.179,3.922,0.179C315.22,18.205,316.195,18.146,316.977,18.026z"/>
	<path d="M327.123,24.686l2.754-2.003c-0.975-0.357-1.763-0.769-2.347-1.238c-0.589-0.468-1.06-1.086-1.411-1.854
		c-0.346-0.769-0.521-1.612-0.521-2.539c0-1.256,0.323-2.429,0.969-3.52s1.661-1.958,3.043-2.607
		c1.383-0.649,2.999-0.972,4.852-0.972c1.242,0,2.386,0.142,3.44,0.425c1.049,0.284,1.933,0.7,2.647,1.253
		c0.765,0.04,1.292,0.06,1.587,0.06c0.391,0,1.474-0.048,3.23-0.15l-0.272,2.471h-3.14c0.175,0.663,0.261,1.304,0.261,1.924
		c0,1.414-0.38,2.667-1.128,3.749c-0.754,1.086-1.814,1.919-3.186,2.5c-1.366,0.584-2.817,0.873-4.347,0.873
		c-0.408,0-0.98-0.028-1.723-0.091c-0.408,0.238-0.72,0.516-0.93,0.839c-0.215,0.323-0.317,0.623-0.317,0.901
		c0,0.237,0.085,0.462,0.261,0.674c0.176,0.21,0.419,0.349,0.737,0.414c0.437,0.094,1.524,0.139,3.276,0.139l4.88-0.119
		c1.428,0,2.528,0.167,3.31,0.496c0.776,0.332,1.36,0.833,1.74,1.508c0.386,0.675,0.578,1.567,0.578,2.678
		c0,1.652-0.391,3.148-1.173,4.483c-0.777,1.335-1.95,2.435-3.508,3.293c-1.973,1.071-4.319,1.606-7.04,1.606
		c-2.143,0-3.888-0.297-5.237-0.893c-1.349-0.595-2.295-1.301-2.84-2.122c-0.538-0.819-0.811-1.712-0.811-2.679
		c0-0.555,0.085-1.057,0.255-1.504c0.176-0.454,0.374-0.788,0.595-1.015c0.227-0.225,0.669-0.527,1.332-0.913
		c1.264-0.714,1.973-1.103,2.12-1.167c-0.714-0.08-1.354-0.341-1.921-0.776c-0.516-0.474-0.771-1.015-0.771-1.624
		c0-0.332,0.063-0.7,0.198-1.111C326.749,25.493,326.936,25.028,327.123,24.686z M331.266,29.784
		c-1.088,0.686-1.814,1.317-2.176,1.893c-0.363,0.575-0.544,1.219-0.544,1.936c0,1.205,0.493,2.208,1.479,3.016
		c0.986,0.808,2.465,1.21,4.438,1.21c2.063,0,3.639-0.481,4.733-1.448c1.088-0.966,1.638-2.19,1.638-3.67
		c0-0.714-0.113-1.261-0.329-1.638c-0.221-0.377-0.527-0.675-0.924-0.893c-0.396-0.219-0.946-0.343-1.649-0.377
		c-0.697-0.034-2.318-0.051-4.863-0.051C332.609,29.762,332.002,29.77,331.266,29.784z M330.563,16.142
		c0,1.825,0.317,3.129,0.953,3.908c0.635,0.779,1.457,1.17,2.477,1.17c1.122,0,1.984-0.456,2.579-1.368
		c0.419-0.66,0.635-1.652,0.635-2.973c0-1.854-0.301-3.149-0.896-3.889c-0.595-0.742-1.417-1.111-2.477-1.111
		c-1.003,0-1.802,0.337-2.392,1.012C330.857,13.566,330.563,14.651,330.563,16.142z"/>
	<path d="M363.792,26.262l-0.873,1.943c-1.088,0.655-2.205,1.14-3.355,1.454c-0.861,0.221-1.842,0.335-2.936,0.335
		c-1.31,0-2.466-0.153-3.463-0.457c-1.003-0.303-1.853-0.72-2.562-1.249c-0.708-0.527-1.332-1.177-1.865-1.944
		c-0.539-0.766-0.924-1.652-1.162-2.658c-0.238-1.003-0.357-2.103-0.357-3.293c0-1.731,0.232-3.279,0.691-4.642
		c0.317-0.953,0.691-1.638,1.111-2.063c0.267-0.264,0.952-0.759,2.069-1.488c1.111-0.728,1.916-1.204,2.42-1.428
		c0.924-0.411,2.018-0.615,3.276-0.615c1.768,0,3.225,0.368,4.364,1.111c1.14,0.74,1.944,1.683,2.409,2.834
		c0.47,1.15,0.708,2.545,0.708,4.183c0,0.371-0.017,0.729-0.04,1.071c-0.334,0.107-0.839,0.227-1.513,0.357
		c-0.901,0.173-1.508,0.266-1.825,0.277c-0.997,0.079-2.307,0.127-3.933,0.142c-1.632,0.017-2.534,0.031-2.704,0.045
		c-0.176,0.018-0.363,0.023-0.578,0.023h-1.309c0.102,2.085,0.753,3.734,1.944,4.942c1.196,1.21,2.664,1.813,4.415,1.813
		c0.754,0,1.451-0.08,2.086-0.244s1.468-0.499,2.505-1.006L363.792,26.262z M359.077,18.026c0.051-2.1-0.232-3.574-0.856-4.421
		c-0.64-0.833-1.462-1.25-2.471-1.25c-1.031,0-1.887,0.437-2.567,1.31c-0.686,0.884-1.009,2.341-0.952,4.361
		c0.782,0.119,2.086,0.179,3.922,0.179C357.32,18.205,358.295,18.146,359.077,18.026z"/>
	<path d="M425.101,29.313v-1.021c0.346-0.146,0.827-0.405,1.445-0.776c0.277-0.158,0.453-0.289,0.533-0.396
		c0.057-0.065,0.085-0.136,0.102-0.218c0.063-0.332,0.125-1.511,0.176-3.54c0.057-2.032,0.079-4.472,0.079-7.314
		c0-4.18-0.011-6.761-0.028-7.739c-0.039-2.488-0.119-3.911-0.237-4.268c-0.058-0.159-0.153-0.278-0.301-0.357
		c-0.306-0.198-1.326-0.329-3.061-0.397V1.542c1.678,0.091,3.593,0.136,5.747,0.136c2.403,0,4.682-0.045,6.835-0.136v1.746
		c-1.49,0.068-2.403,0.187-2.731,0.357c-0.147,0.079-0.255,0.209-0.317,0.385c-0.068,0.181-0.131,0.998-0.188,2.451
		c-0.063,1.454-0.091,3.29-0.091,5.512c0,0.238,0.006,2.148,0.018,5.732c0.017,1.891,0.028,3.764,0.034,5.623
		c0.011,1.855,0.022,2.983,0.033,3.381c1.825,0.09,3.066,0.136,3.729,0.136c2.007,0,3.758-0.119,5.254-0.363
		c0.545-0.079,0.867-0.164,0.97-0.255c0.107-0.093,0.221-0.337,0.34-0.73c0.261-1.001,0.521-2.146,0.771-3.436h1.655
		c-0.039,0.369-0.057,0.59-0.057,0.655l-0.493,4.001c-0.102,1.256-0.158,2.01-0.176,2.259c-0.38,0.107-0.765,0.179-1.15,0.219
		c-0.805,0.064-2.058,0.099-3.746,0.099c-0.238,0-1.797-0.034-4.665-0.102c-2.182-0.052-3.706-0.08-4.563-0.08
		C429.72,29.132,427.748,29.194,425.101,29.313z"/>
	<path d="M466.175,27.817v1.496c-1.524-0.06-2.879-0.091-4.058-0.091c-1.117,0-2.193,0.031-3.242,0.091l-0.182-0.218l0.182-2.596
		c-0.477,0.303-1.876,1.352-4.2,3.137c-0.589,0.13-1.162,0.198-1.7,0.198c-1.439,0-2.567-0.425-3.378-1.27
		c-0.811-0.848-1.219-2.063-1.219-3.65c0-1.071,0.182-1.952,0.544-2.641c0.363-0.686,0.754-1.193,1.174-1.517
		c0.413-0.325,1.054-0.638,1.927-0.943c2.086-0.739,4.37-1.32,6.853-1.746c0.028-1.575-0.295-2.777-0.964-3.596
		c-0.686-0.822-1.729-1.233-3.123-1.233c-0.561,0-1.104,0.074-1.615,0.221c-0.227,0.065-0.487,0.198-0.788,0.396l-0.833,2.013
		l-1.36-0.301l0.119-2.567c0.98-0.663,1.91-1.241,2.795-1.729c0.884-0.493,1.502-0.791,1.858-0.898
		c0.487-0.145,1.174-0.218,2.063-0.218c1.434,0,2.618,0.209,3.554,0.624c0.93,0.419,1.615,0.912,2.058,1.479
		c0.441,0.57,0.742,1.179,0.912,1.825c0.164,0.649,0.243,1.468,0.243,2.462c0,0.422-0.028,1.527-0.09,3.313
		c-0.04,1.19-0.057,2.165-0.057,2.919c0,2.353,0.062,3.78,0.192,4.285c0.057,0.238,0.158,0.396,0.323,0.477
		C464.372,27.647,465.047,27.738,466.175,27.817z M458.875,19.735c-1.117,0.237-2.143,0.526-3.072,0.864
		c-0.93,0.337-1.569,0.754-1.927,1.25c-0.352,0.498-0.533,1.122-0.533,1.878c0,0.848,0.216,1.502,0.646,1.967
		c0.425,0.462,0.986,0.694,1.688,0.694c0.59,0,1.185-0.173,1.786-0.516c0.601-0.346,1.071-0.782,1.411-1.312V19.735z"/>
	<path d="M474.654,29.473c-0.052-0.173-0.171-0.669-0.357-1.491c-0.103-0.45-0.272-1.079-0.493-1.887l-1.666-5.926
		c-0.703-2.479-1.151-4.056-1.35-4.73c-0.481-1.578-0.815-2.505-1.015-2.782c-0.079-0.119-0.203-0.207-0.379-0.261
		c-0.278-0.105-0.964-0.17-2.063-0.199v-1.542c1.672,0.045,3.457,0.068,5.361,0.068c1.962,0,3.843-0.022,5.64-0.068v1.542
		c-1.417,0-2.262,0.08-2.539,0.238c-0.17,0.093-0.261,0.255-0.261,0.479c0,0.252,0.068,0.638,0.198,1.153l2.409,9.057l3.44-7.586
		l1.185-2.582l1.185-2.8h2.018l5.634,12.967l1.955-5.852c0.289-0.915,0.578-1.944,0.873-3.086c0.13-0.584,0.198-0.969,0.198-1.153
		c0-0.32-0.102-0.521-0.312-0.606c-0.204-0.088-1.026-0.162-2.466-0.23v-1.542c1.411,0.045,2.732,0.068,3.945,0.068
		c1.189,0,2.596-0.022,4.205-0.068v1.542c-0.936,0.054-1.439,0.085-1.502,0.1c-0.188,0.054-0.352,0.145-0.505,0.269
		c-0.152,0.125-0.277,0.275-0.368,0.448c-0.091,0.17-0.419,1.026-0.986,2.562c-0.227,0.598-0.617,1.697-1.173,3.301l-1.049,3.144
		l-0.317,0.893c-0.152,0.465-0.578,1.757-1.264,3.877l-0.794,2.684h-3.241c-1.253-3.007-1.979-4.738-2.177-5.203l-3.19-7.258
		c-1.151,2.375-2.001,4.177-2.557,5.41c-0.562,1.232-1.049,2.344-1.474,3.332l-1.508,3.719H474.654z"/>
	<path d="M377.214,23.487c0-1.559,0.261-3.18,0.782-4.866c0.521-1.688,1.088-2.898,1.692-3.644c0.377-0.468,1.054-1.077,2.015-1.839
		c0.964-0.759,2.023-1.389,3.177-1.887c1.145-0.493,2.381-0.743,3.673-0.743c1.083,0,2.072,0.159,2.964,0.488
		c0.898,0.329,1.57,0.753,2.023,1.275c0.45,0.521,0.793,1.148,1,1.876c0.216,0.731,0.326,1.53,0.326,2.397
		c0,1.649-0.272,3.293-0.825,4.931c-0.55,1.645-1.182,2.899-1.899,3.764c-0.516,0.606-1.326,1.278-2.428,2.015
		c-1.105,0.734-2.16,1.296-3.174,1.681c-1.014,0.38-2.153,0.572-3.429,0.572c-1.505,0-2.687-0.263-3.568-0.793
		c-0.87-0.527-1.477-1.253-1.819-2.177C377.387,25.612,377.214,24.593,377.214,23.487z M381.669,23.343
		c0,1.547,0.289,2.652,0.881,3.324c0.583,0.663,1.414,0.997,2.479,0.997c0.723,0,1.343-0.17,1.865-0.519
		c0.527-0.343,1.003-0.906,1.442-1.678c0.434-0.776,0.828-1.842,1.193-3.199c0.533-1.989,0.799-3.888,0.799-5.699
		c0-1.539-0.306-2.644-0.921-3.33c-0.615-0.686-1.409-1.029-2.392-1.029c-1.003,0-1.87,0.375-2.59,1.125
		c-0.717,0.748-1.354,2.17-1.918,4.27C381.952,19.707,381.669,21.619,381.669,23.343z"/>
	<path d="M398.734,13.172l0.17-0.963c0.405-0.15,1.012-0.346,1.848-0.578c0.828-0.232,1.505-0.471,2.032-0.711
		c0.065-0.19,0.145-0.521,0.249-1c0.238-1.085,0.471-1.831,0.677-2.233c0.349-0.629,0.87-1.281,1.576-1.944
		c1.097-1.026,2.318-2.021,3.656-2.992c1.352-0.969,2.23-1.547,2.655-1.729c0.422-0.181,1.018-0.272,1.789-0.272
		c0.499,0,1.025,0.097,1.553,0.3c-0.504,1.695-0.859,3.299-1.071,4.807l-0.575,0.113c-0.527-0.793-1.04-1.352-1.544-1.678
		c-0.504-0.332-0.963-0.493-1.369-0.493c-0.312,0-0.621,0.091-0.904,0.267c-0.289,0.175-0.527,0.417-0.688,0.72
		c-0.173,0.3-0.343,0.771-0.521,1.4c-0.451,1.68-0.828,3.355-1.111,5.039h0.428c0.334,0.011,1.182-0.025,2.531-0.113
		c0.816-0.048,1.431-0.113,1.831-0.19l0.193,0.303c-0.267,0.68-0.465,1.332-0.586,1.95c-0.595-0.008-1.57-0.017-2.914-0.017
		c-0.839,0-1.471,0.009-1.89,0.017l-2.088,9.091c-1.015,4.072-1.873,7.009-2.584,8.816c-0.714,1.811-1.664,3.4-2.856,4.78
		c-1.188,1.384-2.397,2.396-3.622,3.032c-0.637,0.347-1.255,0.511-1.848,0.511c-0.439,0-0.921-0.103-1.437-0.317
		c0.349-0.933,0.604-1.684,0.776-2.253c0.167-0.569,0.326-1.196,0.459-1.879l0.606-0.113c0.261,0.595,0.553,1.025,0.859,1.286
		s0.655,0.392,1.037,0.392c0.366,0,0.7-0.119,1.015-0.346c0.306-0.235,0.572-0.655,0.805-1.259c0.445-1.21,1.018-3.746,1.743-7.611
		l2.735-14.13c-0.754-0.008-1.581-0.017-2.474-0.017C399.42,13.155,399.038,13.164,398.734,13.172z"/>
</g>
<g id="univ-fla">
	<g>
		<path d="M114.792,49.128v-1.046l3.982,0.113l1.649-0.036l1.655-0.057l0.448-0.021v1.046c-0.893,0-1.442,0.031-1.664,0.216
			c-0.139,0.088-0.215,0.192-0.267,0.416c-0.113,0.524-0.173,1.612-0.173,3.311v2.876v1.411c0,1.491,0.017,2.415,0.054,2.78
			c0.093,0.736,0.255,1.352,0.566,1.867c0.315,0.434,0.796,0.833,1.445,1.12c0.638,0.286,1.442,0.453,2.44,0.453
			c1.128,0,2.032-0.229,2.704-0.601c0.672-0.369,1.159-0.901,1.439-1.502c0.281-0.602,0.422-1.803,0.422-3.565v-2.442
			c0-2.163-0.008-3.506-0.022-3.945c-0.031-1.063-0.063-1.686-0.176-1.873c-0.034-0.167-0.153-0.213-0.278-0.292
			c-0.258-0.176-0.839-0.201-1.74-0.229v-1.046c1.468,0.077,2.341,0.113,2.61,0.113c0.094,0,0.19-0.005,0.337-0.017l2.717-0.097
			v1.046c-0.762,0-1.244,0.031-1.414,0.153c-0.122,0.082-0.181,0.179-0.261,0.391c-0.034,0.153-0.113,0.989-0.178,2.491
			c-0.045,1.462-0.083,2.607-0.083,3.443v2.865c0,0.739-0.068,1.502-0.161,2.292c-0.094,0.751-0.326,1.437-0.652,1.981
			c-0.306,0.541-0.76,1.097-1.36,1.502c-0.586,0.487-1.272,0.833-2.088,1.045c-0.782,0.21-1.723,0.354-2.786,0.354
			c-1.25,0-2.395-0.212-3.474-0.553c-0.791-0.229-1.411-0.566-1.91-0.932c-0.507-0.437-0.87-0.885-1.156-1.426
			c-0.252-0.484-0.414-0.961-0.448-1.468c-0.051-0.292-0.076-1.055-0.076-2.363l0.017-2.336v-3.128c0-1.128-0.023-2.18-0.068-3.081
			c-0.025-0.317-0.057-0.601-0.147-0.773c-0.025-0.113-0.142-0.17-0.312-0.323L114.792,49.128z"/>
		<path d="M134.541,64.179c0.978-0.04,1.521-0.097,1.658-0.15c0.113-0.039,0.17-0.107,0.25-0.15
			c0.048-0.062,0.102-0.255,0.153-0.462c0.042-0.314,0.091-1.04,0.17-2.241c0.026-0.669,0.026-1.542,0.026-2.675v-3.931
			l-0.031-3.548c-0.011-0.596-0.04-0.961-0.094-1.151c-0.028-0.147-0.088-0.314-0.176-0.41c-0.068-0.043-0.189-0.128-0.377-0.19
			c-0.187-0.063-0.691-0.11-1.578-0.119v-1.068c1.054,0.077,1.802,0.113,2.292,0.113l1.766-0.057l1.147-0.057
			c1.684,2.219,3.695,4.699,6.076,7.604c1.737,2.052,3.14,3.687,4.293,4.849v-2.854c0-4.35-0.06-6.979-0.145-7.72
			c-0.04-0.297-0.11-0.501-0.238-0.581c-0.173-0.187-0.805-0.221-1.899-0.229v-1.068c0.98,0.077,1.899,0.113,2.752,0.113
			c0.785,0,1.831-0.036,3.12-0.113v1.068c-0.989,0.009-1.59,0.043-1.774,0.198c-0.085,0.052-0.116,0.111-0.133,0.15
			c-0.136,0.437-0.213,1.378-0.258,2.82c-0.026,1.442-0.028,2.547-0.028,3.199c0,5.424,0.028,8.708,0.15,9.861l-0.15,0.131
			c-0.708-0.131-1.395-0.201-2.1-0.326c-2.644-2.925-6.368-7.322-11.202-13.263v6.116c0,1.28,0.04,2.547,0.088,3.964
			c0.025,0.958,0.088,1.527,0.147,1.706c0.026,0.125,0.094,0.17,0.153,0.222c0.099,0.076,0.229,0.133,0.439,0.161
			c0.51,0.082,0.91,0.088,1.151,0.088c0.06,0,0.125,0,0.229,0v0.94c-1.522-0.03-2.42-0.039-2.627-0.039
			c-0.811,0-1.893,0.031-3.25,0.104V64.179z"/>
		<path d="M163.378,48.082v1.077c-0.811,0.009-1.312,0.048-1.471,0.094c-0.156,0.048-0.255,0.104-0.332,0.167
			c-0.051,0.04-0.105,0.076-0.139,0.182c-0.034,0.158-0.085,0.428-0.113,0.762c-0.022,0.27-0.04,0.612-0.048,1.199
			c-0.006,2.055-0.026,3.1-0.026,3.296v4.874l0.026,2.27c0,0.819,0.031,1.353,0.133,1.59c0.02,0.145,0.074,0.258,0.167,0.286
			c0.065,0.046,0.178,0.108,0.351,0.153c0.173,0.048,0.669,0.082,1.451,0.103v1.051c-1.329-0.073-2.726-0.104-4.237-0.104
			c-1.317,0-2.505,0.031-3.528,0.104v-1.051c0.855-0.043,1.329-0.077,1.457-0.111c0.176-0.039,0.3-0.096,0.36-0.145
			c0.079-0.017,0.093-0.099,0.107-0.192c0.028-0.107,0.071-0.447,0.125-1.131c0.048-1,0.093-1.901,0.093-2.715v-5.106
			c0-1.652-0.008-2.652-0.022-3.16c-0.051-0.988-0.074-1.648-0.147-1.898c-0.031-0.133-0.063-0.215-0.107-0.229
			c-0.065-0.07-0.153-0.13-0.295-0.176c-0.139-0.048-0.677-0.091-1.57-0.11v-1.077c1.023,0.077,2.21,0.113,3.556,0.113
			C160.661,48.195,162.049,48.159,163.378,48.082z"/>
		<path d="M173.271,65.298c-0.717-1.72-1.357-3.341-2.001-4.891l-1.731-4.124c-1.354-3.233-2.208-5.205-2.525-5.835
			c-0.317-0.629-0.539-0.988-0.703-1.034c-0.232-0.161-0.751-0.255-1.519-0.255v-1.077c1.956,0.077,3.14,0.113,3.557,0.113
			l4.395-0.113v1.077c-0.666,0-1.173,0.04-1.488,0.133c-0.184,0.052-0.303,0.125-0.368,0.168c-0.071,0.073-0.116,0.201-0.116,0.3
			c0,0.283,0.269,1.023,0.822,2.353c0.314,0.711,0.482,1.145,0.496,1.221c0,0.031,0.031,0.094,0.074,0.207l3.083,7.556l2.712-6.756
			c0.083-0.119,0.369-0.933,0.893-2.29c0.351-0.998,0.595-1.663,0.66-1.989c0.02-0.063,0.028-0.185,0.028-0.301
			c0-0.102-0.028-0.235-0.085-0.3c-0.017-0.034-0.091-0.094-0.156-0.137c-0.06-0.031-0.207-0.057-0.448-0.076
			c-0.53-0.063-0.978-0.088-1.355-0.088v-1.077l3.126,0.113l2.624-0.113v1.077c-0.791,0.071-1.244,0.179-1.389,0.301
			c-0.198,0.142-0.663,1.068-1.357,2.715l-0.893,2.085l-1.649,3.911c-1.372,3.318-2.335,5.707-2.845,7.127H173.271z"/>
		<path d="M185.16,65.165v-0.678c0.484-0.207,0.901-0.428,1.202-0.657c0.048-0.354,0.099-0.896,0.139-1.703
			c0.04-1.377,0.079-2.426,0.079-3.055v-5.458c0-0.25-0.014-1.037-0.045-2.378c-0.026-0.927-0.063-1.479-0.173-1.737
			c-0.014-0.039-0.094-0.099-0.156-0.15c-0.238-0.124-0.822-0.189-1.791-0.198v-0.955l2.848-0.02c0.575,0,1.097-0.003,1.624-0.003
			c1.094,0,2.346-0.014,3.718-0.048l2.468-0.074c0.301,0,0.901,0.018,1.803,0.06c0.071,0,0.201,0.028,0.399,0.085l0.068,0.119
			l-0.212,1.755c-0.011,0.152-0.063,0.736-0.11,1.793h-0.978c-0.022-0.943-0.065-1.533-0.099-1.802
			c-0.04-0.074-0.102-0.173-0.145-0.235c-0.125-0.065-0.425-0.1-0.992-0.167c-0.788-0.116-1.57-0.173-2.344-0.173
			c-0.714,0-1.451,0.036-2.202,0.113c-0.147,0.935-0.185,2.108-0.185,3.517v2.562c0.539,0.046,1.105,0.065,1.709,0.065
			c0.195,0,0.884-0.017,2.038-0.06c0.439-0.009,0.683-0.045,0.782-0.107c0.057-0.063,0.13-0.107,0.167-0.244
			c0.099-0.314,0.147-0.808,0.156-1.562h1.021l-0.068,2.679l0.068,2.658h-1.021c0.006-0.936-0.034-1.533-0.159-1.731
			c-0.125-0.125-0.297-0.256-0.55-0.307c-0.561-0.099-1.281-0.099-2.165-0.099c-0.811,0-1.485,0-1.978,0.039v5.13
			c0,0.563,0.012,1.104,0.037,1.465c0.64,0.076,1.431,0.113,2.335,0.113c0.87,0,1.703-0.037,2.446-0.11
			c0.742-0.028,1.199-0.094,1.377-0.229c0.031-0.04,0.099-0.1,0.15-0.195c0.153-0.414,0.3-1.117,0.454-2.256h1.006
			c-0.187,1.641-0.261,2.952-0.261,4.004l-0.159,0.15c-0.544,0.048-1.281,0.085-2.242,0.085l-1.953-0.057
			c-1.952-0.028-3.301-0.028-4.035-0.028C189.062,65.08,187.699,65.089,185.16,65.165z"/>
		<path d="M199.955,49.105v-1.023c0.199,0,0.825,0.025,1.961,0.077c0.533,0.022,1.315,0.036,2.315,0.036
			c0.87,0,1.604-0.022,2.219-0.07c0.998-0.057,1.839-0.085,2.497-0.085c1.292,0,2.236,0.113,2.882,0.269
			c0.646,0.23,1.173,0.553,1.621,1.151c0.448,0.601,0.691,1.277,0.691,2.103c0,0.997-0.306,1.896-0.927,2.703
			c-0.621,0.836-1.579,1.485-2.836,1.925c0.178,0.379,0.433,0.773,0.683,1.091c0.252,0.405,0.405,0.617,0.462,0.72
			c0.057,0.099,0.077,0.17,0.139,0.213l1.884,2.859c0.521,0.714,0.788,1.147,0.839,1.218c0.618,0.782,0.975,1.287,1.114,1.414
			c0.147,0.173,0.3,0.232,0.428,0.307c0.125,0.07,0.372,0.113,0.774,0.122v1.051c-1.267-0.042-2.177-0.065-2.726-0.065
			c-0.666,0-1.327,0.023-1.941,0.065c-0.057-0.147-0.139-0.405-0.295-0.705l-2.641-4.291c-0.754-1.252-1.4-2.244-1.901-2.919
			c-0.261-0.362-0.536-0.623-0.762-0.85l0.13-0.352c0.972,0,1.726-0.085,2.216-0.301c0.516-0.292,0.93-0.657,1.287-1.258
			c0.326-0.599,0.493-1.287,0.493-2.046c0-0.729-0.167-1.357-0.524-1.828c-0.377-0.547-0.822-0.876-1.337-1.074
			c-0.354-0.102-0.972-0.153-1.854-0.153c-0.377,0-0.791,0.04-1.159,0.052c-0.028,0.3-0.057,0.96-0.09,2.023
			c-0.017,2.281-0.048,3.831-0.048,4.585c0,1.213,0.014,2.536,0.04,3.905c0.006,1.691,0.037,2.658,0.054,2.867
			c0.034,0.437,0.09,0.737,0.13,0.891c0.042,0.085,0.11,0.146,0.164,0.146c0.091,0.065,0.201,0.122,0.369,0.162
			c0.164,0.042,0.632,0.073,1.397,0.094v1.051c-1.369-0.073-2.792-0.104-4.217-0.104c-1.267,0-2.437,0.031-3.528,0.104v-1.051
			c0.93-0.043,1.462-0.1,1.641-0.173c0.085-0.028,0.173-0.083,0.229-0.083c0.017-0.062,0.06-0.209,0.09-0.346
			c0.065-0.322,0.085-0.85,0.114-1.456l0.099-3.604v-4.506l-0.031-2.604c-0.02-1.001-0.08-1.602-0.147-1.845
			c-0.048-0.057-0.122-0.119-0.187-0.182C201.554,49.21,200.953,49.159,199.955,49.105z"/>
		<path d="M229.617,52.557h-1.028c-0.023-0.957-0.034-1.595-0.116-1.98c-0.238-0.377-0.672-0.697-1.298-0.969
			c-0.626-0.27-1.314-0.448-2.083-0.448c-1.12,0-1.961,0.301-2.568,0.901c-0.604,0.547-0.907,1.201-0.907,1.927
			c0.012,0.521,0.085,0.995,0.261,1.338c0.176,0.34,0.402,0.598,0.726,0.768c0.323,0.173,0.793,0.392,1.417,0.521
			c0.479,0.122,1.111,0.252,1.978,0.383c0.822,0.17,1.363,0.232,1.635,0.306c0.632,0.165,1.187,0.399,1.584,0.624
			c0.399,0.224,0.726,0.496,0.986,0.813c0.227,0.314,0.436,0.736,0.592,1.179c0.156,0.524,0.212,1.043,0.212,1.635
			c0,1.021-0.193,1.922-0.643,2.763c-0.309,0.593-0.763,1.123-1.349,1.588c-0.595,0.541-1.188,0.875-1.799,1.158
			c-0.958,0.338-2.123,0.584-3.497,0.584c-1.012,0-1.913-0.119-2.667-0.277c-0.788-0.235-1.649-0.564-2.582-0.98
			c0.241-0.941,0.363-2.335,0.374-4.26h1.026c-0.017,0.584,0.04,1.347,0.133,2.216c0.309,0.482,0.858,0.933,1.607,1.296
			c0.745,0.405,1.544,0.569,2.445,0.569c0.757,0,1.471-0.091,2.077-0.357c0.607-0.274,1.046-0.666,1.31-1.176
			c0.266-0.468,0.396-0.997,0.396-1.615c0-0.49-0.079-0.967-0.283-1.352c-0.195-0.338-0.496-0.638-0.896-0.873
			c-0.397-0.201-1.105-0.411-2.151-0.666c-1.482-0.301-2.429-0.559-2.894-0.654c-0.711-0.247-1.281-0.547-1.706-0.921
			c-0.419-0.423-0.745-0.876-0.96-1.432c-0.198-0.598-0.3-1.198-0.3-1.836c0-0.916,0.167-1.766,0.572-2.557
			c0.366-0.733,0.887-1.332,1.522-1.788c0.609-0.425,1.329-0.726,2.111-0.912c0.779-0.153,1.604-0.267,2.417-0.267
			c0.887,0,1.712,0.097,2.539,0.215c0.788,0.193,1.505,0.397,2.106,0.689l0.087,0.292c-0.107,0.51-0.215,1.06-0.244,1.572
			C229.694,51.058,229.643,51.746,229.617,52.557z"/>
		<path d="M240.792,48.082v1.077c-0.845,0.009-1.332,0.048-1.485,0.094c-0.159,0.048-0.272,0.104-0.332,0.167
			c-0.054,0.04-0.113,0.076-0.142,0.182c-0.062,0.158-0.096,0.428-0.127,0.762c0,0.27-0.017,0.612-0.028,1.199
			c-0.04,2.055-0.042,3.1-0.042,3.296v4.874l0.022,2.27c0,0.819,0.048,1.353,0.114,1.59c0.037,0.145,0.104,0.258,0.175,0.286
			c0.077,0.046,0.204,0.108,0.363,0.153c0.187,0.048,0.658,0.082,1.482,0.103v1.051c-1.346-0.073-2.76-0.104-4.265-0.104
			c-1.335,0-2.494,0.031-3.517,0.104v-1.051c0.833-0.043,1.332-0.077,1.454-0.111c0.178-0.039,0.283-0.096,0.363-0.145
			c0.045-0.017,0.088-0.099,0.104-0.192c0.031-0.107,0.074-0.447,0.094-1.131c0.082-1,0.127-1.901,0.127-2.715v-5.106
			c0-1.652-0.011-2.652-0.022-3.16c-0.054-0.988-0.105-1.648-0.147-1.898c-0.028-0.133-0.08-0.215-0.11-0.229
			c-0.065-0.07-0.15-0.13-0.301-0.176c-0.147-0.048-0.671-0.091-1.562-0.11v-1.077c1.023,0.077,2.194,0.113,3.517,0.113
			C238.031,48.195,239.445,48.159,240.792,48.082z"/>
		<path d="M245.943,65.185v-1.006c1.003,0,1.581-0.057,1.774-0.182c0.195-0.119,0.295-0.249,0.357-0.459
			c0.113-0.365,0.167-1.462,0.167-3.211V53.05c0-2.049-0.011-3.14-0.045-3.363h-1.737c-0.875,0-1.695,0.036-2.346,0.073
			c-0.295,0-0.411,0.028-0.462,0.082c-0.077,0.063-0.136,0.219-0.139,0.459c-0.105,0.562-0.181,1.211-0.201,1.865h-1
			c-0.011-1.635-0.037-2.588-0.048-2.777c-0.023-0.374-0.071-0.785-0.142-1.15l0.13-0.156c0.354,0.054,0.771,0.091,1.235,0.11
			c0.646,0.034,2.032,0.049,3.999,0.049h4.968c2.043,0,3.381-0.015,4.095-0.049c0.396-0.02,0.782-0.057,1.119-0.11l0.153,0.156
			c-0.09,0.471-0.147,0.921-0.164,1.255c-0.011,0.085-0.025,0.976-0.031,2.673h-0.995c-0.014-0.604-0.082-1.204-0.201-1.806
			c-0.006-0.3-0.045-0.447-0.116-0.519c-0.063-0.054-0.184-0.082-0.417-0.082c-0.675-0.031-1.468-0.073-2.417-0.073h-1.731
			c-0.034,0.283-0.051,1.377-0.051,3.363v7.277c0,1.749,0.062,2.852,0.181,3.226c0.045,0.189,0.15,0.325,0.34,0.437
			c0.201,0.13,0.779,0.189,1.78,0.189v1.006c-1.604-0.088-2.973-0.104-4.027-0.104C248.825,65.08,247.457,65.097,245.943,65.185z"/>
		<path d="M268.144,56.17l1.507-2.505c0.295-0.408,1.065-1.803,2.366-4.053c0.402-0.754,0.677-1.309,0.825-1.53h1.91v0.536
			c-0.941,1.363-2.046,2.938-3.177,4.732c-1.128,1.791-1.862,2.928-2.12,3.418c-0.153,0.365-0.298,0.671-0.372,0.924
			c-0.045,0.178-0.045,0.479-0.045,0.918v2.055c0,1.071,0.011,1.785,0.079,2.304c0.068,0.437,0.145,0.717,0.227,0.842
			c0.026,0.067,0.182,0.136,0.317,0.198c0.218,0.063,0.74,0.104,1.655,0.125v1.051c-1.57-0.073-2.95-0.104-4.223-0.104
			c-1.224,0-2.474,0.031-3.741,0.104v-1.051c0.941-0.043,1.479-0.088,1.672-0.14c0.122-0.054,0.264-0.116,0.34-0.152
			c0.068-0.105,0.068-0.335,0.085-0.769c0.045-0.935,0.068-1.697,0.068-2.363v-2.298c0-0.235-0.119-0.567-0.434-1.148
			c-0.808-1.453-1.604-2.803-2.465-4.199c-0.743-1.083-1.392-1.967-1.992-2.652c-0.397-0.397-0.683-0.655-0.896-0.766
			c-0.057-0.063-0.434-0.094-1.043-0.094v-0.932l2.556-0.485c0.476-0.121,0.89-0.178,1.397-0.331
			c0.465,0.27,0.845,0.502,1.054,0.754c0.241,0.212,0.536,0.601,0.953,1.201c0.589,0.901,1.176,1.876,1.76,3.01
			C267.376,54.611,267.94,55.768,268.144,56.17z"/>
		<path d="M281.449,61.759c0-1.04,0.207-2.086,0.513-3.186c0.317-1.063,0.697-1.896,1.114-2.344
			c0.229-0.303,0.688-0.726,1.289-1.188c0.601-0.476,1.295-0.9,2.08-1.224c0.7-0.326,1.525-0.454,2.367-0.454
			c0.654,0,1.3,0.055,1.873,0.301c0.583,0.21,1.043,0.477,1.334,0.824c0.292,0.349,0.488,0.7,0.663,1.219
			c0.094,0.439,0.185,0.961,0.185,1.562c0,1.031-0.147,2.103-0.516,3.163c-0.371,1.043-0.776,1.89-1.235,2.439
			c-0.34,0.405-0.845,0.805-1.587,1.307c-0.666,0.465-1.372,0.842-2.041,1.077c-0.671,0.232-1.369,0.391-2.228,0.391
			c-0.935,0-1.743-0.218-2.304-0.566c-0.553-0.301-0.969-0.788-1.17-1.389C281.59,63.096,281.449,62.425,281.449,61.759z
			 M284.365,61.64c0,1.025,0.167,1.691,0.573,2.159c0.323,0.386,0.921,0.657,1.553,0.657c0.51,0,0.878-0.139,1.205-0.343
			c0.354-0.235,0.663-0.584,0.943-1.133c0.275-0.477,0.533-1.19,0.819-2.061c0.314-1.247,0.493-2.466,0.493-3.65
			c0-0.997-0.179-1.742-0.595-2.146c-0.419-0.481-0.913-0.683-1.559-0.683c-0.663,0-1.21,0.227-1.644,0.726
			c-0.505,0.49-0.893,1.414-1.25,2.734C284.526,59.302,284.365,60.546,284.365,61.64z"/>
		<path d="M295.395,55.07l0.079-0.632c0.306-0.122,0.649-0.201,1.202-0.391c0.57-0.113,0.963-0.307,1.315-0.426
			c0.051-0.152,0.119-0.346,0.193-0.657c0.127-0.729,0.294-1.179,0.408-1.431c0.201-0.434,0.55-0.873,1.049-1.272
			c0.654-0.678,1.496-1.332,2.355-1.967c0.864-0.635,1.425-0.949,1.694-1.097c0.264-0.142,0.672-0.147,1.142-0.147
			c0.332,0,0.68,0.006,1.032,0.17c-0.329,1.071-0.542,2.143-0.717,3.138l-0.354,0.014c-0.306-0.49-0.649-0.87-0.98-1.057
			c-0.334-0.19-0.626-0.323-0.878-0.323c-0.25,0-0.428,0.073-0.584,0.167c-0.235,0.116-0.349,0.301-0.482,0.481
			c-0.079,0.168-0.204,0.471-0.348,0.904c-0.292,1.057-0.516,2.19-0.672,3.248h0.272c0.199,0.011,0.731-0.021,1.593-0.094
			c0.572-0.034,0.932-0.034,1.179-0.077l0.156,0.171c-0.162,0.473-0.298,0.85-0.397,1.277c-0.366-0.008-0.966-0.014-1.862-0.014
			c-0.572,0-0.93,0.006-1.202,0.014l-1.383,5.847c-0.669,2.661-1.213,4.537-1.638,5.699c-0.499,1.167-1.122,2.225-1.856,3.114
			c-0.813,0.893-1.564,1.559-2.333,1.958c-0.436,0.246-0.864,0.306-1.201,0.306c-0.306,0-0.601-0.008-0.924-0.184
			c0.207-0.601,0.337-1.061,0.476-1.445c0.142-0.389,0.184-0.779,0.297-1.219l0.414-0.091c0.136,0.405,0.337,0.678,0.544,0.83
			c0.175,0.196,0.394,0.301,0.688,0.301c0.221,0,0.417-0.094,0.601-0.283c0.244-0.11,0.383-0.374,0.567-0.788
			c0.286-0.751,0.635-2.429,1.111-4.937l1.76-9.108c-0.459-0.008-1.034-0.014-1.626-0.014
			C295.794,55.057,295.562,55.063,295.395,55.07z"/>
		<path d="M322.214,59.265h-1.105c-0.025-1.051-0.096-1.672-0.179-1.861c-0.073-0.134-0.224-0.153-0.476-0.216
			c-0.601-0.133-1.55-0.198-2.803-0.198c-0.238,0-0.549,0.006-0.995,0.012v1.402c0,1.891,0.034,3.287,0.091,4.032
			c0.06,0.825,0.063,1.241,0.167,1.409c0.073,0.033,0.187,0.121,0.309,0.189c0.184,0.068,0.785,0.145,1.947,0.176v0.975
			l-4.806-0.104c-0.723,0-1.794,0.031-3.301,0.104v-1.006c0.938,0,1.485-0.022,1.592-0.094c0.088-0.034,0.167-0.091,0.23-0.173
			c0.017-0.042,0.087-0.312,0.139-0.635c0.028-0.167,0.074-0.751,0.125-1.769c0.054-0.935,0.054-1.672,0.054-2.137v-5.05
			c0-0.067-0.02-1.258-0.111-3.375c-0.017-0.638-0.079-1.116-0.17-1.369c-0.025-0.113-0.025-0.118-0.071-0.175
			c-0.068-0.057-0.207-0.111-0.354-0.162c-0.201-0.054-0.671-0.082-1.434-0.091v-1.068l4.305,0.113l5.934-0.133
			c0.802,0,1.547,0.051,2.321,0.153l0.088,0.136c-0.065,0.507-0.162,1.097-0.241,1.766c-0.054,0.748-0.054,1.383-0.06,1.904h-1.021
			c0-0.167-0.022-0.644-0.074-1.346c-0.022-0.315-0.057-0.564-0.096-0.615c-0.005-0.034-0.005-0.085-0.06-0.119
			c-0.187-0.119-0.536-0.182-1.051-0.277c-0.516-0.119-1.147-0.179-1.893-0.179c-0.096,0-0.504,0.014-1.145,0.042
			c-0.64,0.028-1.02,0.051-1.264,0.071c-0.088,0.785-0.15,2.264-0.15,4.367v1.736c1.046,0.065,1.723,0.065,2.108,0.065
			c1.046,0,1.695-0.02,1.964-0.142c0.133-0.04,0.229-0.158,0.284-0.271c0.025-0.188,0.079-0.687,0.096-1.389h1.105
			C322.214,55.349,322.214,57.103,322.214,59.265z"/>
		<path d="M325.825,65.185v-0.641c0.266-0.064,0.558-0.235,0.89-0.441c0.204-0.125,0.306-0.225,0.329-0.229
			c0.04-0.052,0.063-0.108,0.074-0.171c0.048-0.178,0.099-0.938,0.145-2.201c0.045-1.228,0.054-2.729,0.054-4.5
			c0-2.54,0-4.149-0.008-4.75c-0.034-1.542-0.096-2.406-0.184-2.604c-0.045-0.125-0.102-0.187-0.159-0.201
			c-0.241-0.153-0.85-0.255-1.91-0.286v-1.077c1.06,0.077,2.247,0.113,3.531,0.113c1.479,0,2.936-0.036,4.229-0.113v1.077
			c-0.927,0.031-1.474,0.122-1.655,0.255c-0.11,0.046-0.19,0.085-0.238,0.224c0,0.122-0.031,0.612-0.08,1.508
			c-0.051,0.89-0.074,2.004-0.074,3.412c0,0.104,0.006,1.278,0.017,3.509c0.011,1.15,0.017,2.292,0.023,3.417
			c0.005,1.193,0.011,1.845,0.022,2.095c1.103,0.057,1.893,0.094,2.27,0.094c1.25,0,2.332-0.091,3.228-0.19
			c0.343-0.063,0.598-0.13,0.601-0.198c0.079-0.006,0.17-0.188,0.261-0.417c0.127-0.62,0.329-1.362,0.448-2.134h1.042
			c-0.034,0.213-0.045,0.38-0.045,0.431l-0.303,2.415c-0.08,0.816-0.125,1.247-0.133,1.439c-0.221,0.063-0.445,0.063-0.669,0.094
			c-0.544,0.051-1.278,0.073-2.36,0.073c-0.105,0-1.083-0.022-2.843-0.073c-1.386-0.031-2.301-0.031-2.842-0.031
			C328.709,65.08,327.491,65.097,325.825,65.185z"/>
		<path d="M339.79,56.856c0-1.488,0.207-2.814,0.7-3.897c0.414-1.097,1.071-2.034,1.896-2.854c0.856-0.739,1.751-1.289,2.746-1.644
			c1.278-0.465,2.624-0.657,4.118-0.657c1.496,0,2.859,0.182,4.069,0.629c0.898,0.32,1.661,0.74,2.372,1.341
			c0.711,0.601,1.215,1.213,1.587,1.851c0.377,0.635,0.64,1.346,0.791,2.052c0.193,0.79,0.269,1.598,0.269,2.502
			c0,1.542-0.252,2.941-0.768,4.282c-0.414,0.997-0.975,1.855-1.711,2.576c-0.779,0.802-1.624,1.377-2.602,1.742
			c-1.309,0.601-2.806,0.867-4.528,0.867c-1.848,0-3.39-0.34-4.707-1.02c-1.346-0.684-2.338-1.649-3.129-2.922
			C340.187,60.384,339.79,58.771,339.79,56.856z M343.536,56.094c0,1.924,0.306,3.514,0.816,4.767
			c0.504,1.216,1.19,2.117,1.98,2.612c0.808,0.493,1.771,0.737,2.917,0.737c0.997,0,1.921-0.229,2.706-0.688
			c0.864-0.539,1.499-1.347,1.936-2.503c0.459-1.153,0.711-2.547,0.711-4.25c0-1.123-0.156-2.202-0.391-3.104
			c-0.229-0.936-0.606-1.791-1.063-2.403c-0.479-0.672-1.012-1.201-1.652-1.516c-0.641-0.363-1.457-0.587-2.539-0.587
			c-1.19,0-2.148,0.301-3.018,0.901c-0.848,0.547-1.457,1.352-1.802,2.414C343.763,53.617,343.536,54.821,343.536,56.094z"/>
		<path d="M358.854,49.105v-1.023c0.159,0,0.824,0.025,1.924,0.077c0.533,0.022,1.352,0.036,2.304,0.036
			c0.881,0,1.615-0.022,2.228-0.07c1.042-0.057,1.862-0.085,2.539-0.085c1.227,0,2.199,0.113,2.842,0.269
			c0.646,0.23,1.173,0.553,1.661,1.151c0.408,0.601,0.624,1.277,0.624,2.103c0,0.997-0.295,1.896-0.896,2.703
			c-0.601,0.836-1.544,1.485-2.84,1.925c0.179,0.379,0.437,0.773,0.723,1.091c0.252,0.405,0.363,0.617,0.419,0.72
			c0.057,0.099,0.119,0.17,0.182,0.213l1.845,2.859c0.561,0.714,0.83,1.147,0.873,1.218c0.601,0.782,0.938,1.287,1.116,1.414
			c0.097,0.173,0.264,0.232,0.38,0.307c0.136,0.07,0.382,0.113,0.788,0.122v1.051c-1.27-0.042-2.176-0.065-2.731-0.065
			c-0.669,0-1.324,0.023-1.956,0.065c0-0.147-0.125-0.405-0.306-0.705l-2.619-4.291c-0.711-1.252-1.354-2.244-1.881-2.919
			c-0.306-0.362-0.55-0.623-0.779-0.85l0.173-0.352c0.924,0,1.706-0.085,2.176-0.301c0.527-0.292,0.93-0.657,1.284-1.258
			c0.36-0.599,0.493-1.287,0.493-2.046c0-0.729-0.145-1.357-0.521-1.828c-0.377-0.547-0.785-0.876-1.329-1.074
			c-0.326-0.102-0.941-0.153-1.822-0.153c-0.419,0-0.83,0.04-1.182,0.052c-0.005,0.3-0.034,0.96-0.068,2.023
			c-0.057,2.281-0.091,3.831-0.091,4.585c0,1.213,0.017,2.536,0.045,3.905c0.04,1.691,0.074,2.658,0.091,2.867
			c0.022,0.437,0.022,0.737,0.093,0.891c0.04,0.085,0.108,0.146,0.196,0.146c0.04,0.065,0.164,0.122,0.334,0.162
			c0.167,0.042,0.601,0.073,1.434,0.094v1.051c-1.434-0.073-2.828-0.104-4.234-0.104c-1.289,0-2.457,0.031-3.511,0.104v-1.051
			c0.904-0.043,1.465-0.1,1.604-0.173c0.125-0.028,0.207-0.083,0.207-0.083c0.04-0.062,0.08-0.209,0.113-0.346
			c0.074-0.322,0.122-0.85,0.15-1.456l0.057-3.604v-4.506l-0.025-2.604c0-1.001-0.042-1.602-0.147-1.845
			c-0.051-0.057-0.13-0.119-0.153-0.182C360.412,49.21,359.811,49.159,358.854,49.105z"/>
		<path d="M384.86,48.082v1.077c-0.808,0.009-1.352,0.048-1.468,0.094c-0.195,0.048-0.252,0.104-0.337,0.167
			c-0.085,0.04-0.139,0.076-0.162,0.182c0,0.158-0.057,0.428-0.085,0.762c-0.023,0.27-0.04,0.612-0.051,1.199
			c-0.04,2.055-0.062,3.1-0.062,3.296v4.874l0.045,2.27c0,0.819,0.051,1.353,0.153,1.59c0,0.145,0.034,0.258,0.133,0.286
			c0.096,0.046,0.173,0.108,0.388,0.153c0.133,0.048,0.666,0.082,1.445,0.103v1.051c-1.363-0.073-2.763-0.104-4.273-0.104
			c-1.298,0-2.5,0.031-3.486,0.104v-1.051c0.831-0.043,1.29-0.077,1.451-0.111c0.142-0.039,0.286-0.096,0.365-0.145
			c0.065-0.017,0.065-0.099,0.065-0.192c0.028-0.107,0.074-0.447,0.125-1.131c0.091-1,0.136-1.901,0.136-2.715v-5.106
			c0-1.652-0.012-2.652-0.023-3.16c-0.051-0.988-0.119-1.648-0.187-1.898c-0.034-0.133-0.051-0.215-0.071-0.229
			c-0.068-0.07-0.193-0.13-0.292-0.176c-0.181-0.048-0.68-0.091-1.57-0.11v-1.077c0.986,0.077,2.188,0.113,3.514,0.113
			C382.108,48.195,383.497,48.159,384.86,48.082z"/>
		<path d="M387.26,65.185v-0.578c0.079-0.051,0.147-0.127,0.348-0.17c0.315-0.213,0.59-0.359,0.842-0.559
			c0.116-1.1,0.145-2.867,0.145-5.333v-1.98c0-1.097,0-2.642-0.034-4.713c-0.034-1.19-0.099-1.904-0.201-2.225
			c-0.028-0.094-0.059-0.167-0.059-0.167c-0.063-0.052-0.193-0.113-0.306-0.156c-0.162-0.04-0.649-0.136-1.53-0.198v-1.023
			l4.418,0.113c0.499,0,1.505-0.028,2.927-0.085c1.083-0.034,1.896-0.048,2.536-0.048c1.423,0,2.568,0.107,3.426,0.252
			c0.856,0.222,1.652,0.496,2.31,0.845c0.638,0.394,1.182,0.893,1.587,1.405c0.482,0.511,0.825,1.071,1.038,1.687
			c0.405,1.06,0.566,2.162,0.566,3.393c0,1.569-0.28,2.93-0.847,4.157c-0.561,1.227-1.397,2.275-2.338,3.083
			c-1.026,0.802-2.077,1.395-3.279,1.773c-1.19,0.38-2.57,0.527-4.206,0.527l-3.613-0.104L387.26,65.185z M392.174,63.694
			c0.717,0.15,1.479,0.184,2.134,0.184c1.117,0,2.097-0.102,2.922-0.312c0.624-0.218,1.151-0.453,1.579-0.782
			c0.513-0.337,0.918-0.785,1.383-1.431c0.419-0.646,0.726-1.38,1.02-2.281c0.218-0.901,0.306-1.803,0.306-2.849
			c0-0.938-0.088-1.836-0.306-2.691c-0.294-0.862-0.632-1.664-1.201-2.271c-0.553-0.646-1.202-1.164-2.063-1.456
			c-0.799-0.292-2.063-0.397-3.698-0.397c-0.635,0-1.357,0.052-2.075,0.122c-0.107,1.146-0.159,3.344-0.159,6.538v2.822
			C392.015,61.325,392.066,62.954,392.174,63.694z"/>
		<path d="M404.122,65.185v-1.006c0.68-0.02,1.015-0.071,1.173-0.119c0.122-0.045,0.218-0.119,0.329-0.182
			c0.099-0.051,0.153-0.209,0.269-0.34c0.119-0.212,0.388-0.839,0.819-1.882c0.212-0.481,0.623-1.505,1.224-2.995l3.194-7.896
			l1.077-2.794h1.729l5.478,12.81l0.729,1.644l0.533,1.153c0.068,0.136,0.125,0.271,0.212,0.3c0.096,0.055,0.15,0.116,0.235,0.159
			c0.125,0.042,0.343,0.076,0.748,0.11c0.077,0.017,0.303,0.031,0.521,0.031v1.006l-3.42-0.104l-4.237,0.104v-1.006
			c0.933-0.009,1.496-0.076,1.641-0.164c0.156-0.088,0.162-0.153,0.162-0.363c0-0.176-0.045-0.519-0.28-0.975l-1.009-2.703h-6.303
			l-0.524,1.502c-0.431,1.104-0.609,1.802-0.609,2.103c0,0.17,0.009,0.3,0.167,0.365c0.17,0.147,0.748,0.235,1.734,0.235v1.006
			l-2.789-0.104L404.122,65.185z M409.495,58.57c0.734,0.028,1.635,0.043,2.59,0.043c0.946,0,1.771-0.015,2.556-0.043l-2.616-6.334
			L409.495,58.57z"/>
	</g>
</g>
<g id="divider">
	<polygon points="101.608,0.822 101.608,65.919 104.468,65.919 104.468,0.822 101.608,0.822 	"/>
</g>
</svg>
