<svg xmlns="http://www.w3.org/2000/svg" width="500" height="71.994" viewBox="0 0 500 71.994">
	<g id="UF">
		<path d="M65.657 51.917v-15.726h14.493v-10.372h-14.493v-14.693h15.913v5.696h10.494v-15.977h-42.028v10.281h3.938v40.791h-3.919v10.374h19.395v-10.374h-3.793zM44.57 39.063v-27.937h3.887v-10.281h-19.445v10.281h3.793v24.462c0 10.265-1.186 15.181-8.551 15.181-7.363 0-8.549-4.916-8.549-15.181v-24.462h3.758v-10.281h-19.463v10.281h3.854v27.937c0 6.096 0 11.1 2.881 15.592 3.216 5.081 9.054 8.326 17.519 8.326 14.985-.001 20.316-7.817 20.316-23.918z"/>
	</g>
	<g id="levin">
		<path d="M114.854 29.313v-1.021c.34-.146.822-.405 1.442-.776.278-.158.457-.289.536-.396.051-.065.085-.136.096-.218.068-.332.125-1.511.182-3.54.051-2.032.079-4.472.079-7.314 0-4.18-.011-6.761-.031-7.739-.042-2.488-.122-3.911-.241-4.268-.051-.159-.153-.278-.3-.357-.306-.198-1.326-.329-3.055-.397v-1.745c1.678.091 3.594.136 5.748.136 2.403 0 4.681-.045 6.835-.136v1.746c-1.496.068-2.406.187-2.737.357-.145.079-.25.209-.317.385-.065.181-.127.998-.187 2.451-.06 1.454-.091 3.29-.091 5.512 0 .238.006 2.148.022 5.732l.034 5.623c.006 1.855.017 2.983.034 3.381 1.822.09 3.066.136 3.727.136 2.009 0 3.76-.119 5.254-.363.541-.079.864-.164.972-.255.104-.093.215-.337.334-.73.267-1.001.524-2.146.777-3.436h1.655l-.063.655-.487 4.001c-.107 1.256-.165 2.01-.176 2.259-.385.107-.771.179-1.15.219-.811.064-2.058.099-3.752.099-.238 0-1.791-.034-4.665-.102-2.182-.052-3.701-.08-4.563-.08-1.298 0-3.268.062-5.912.181zM154.951 26.262l-.873 1.943c-1.085.655-2.202 1.14-3.353 1.454-.861.221-1.842.335-2.941.335-1.31 0-2.463-.153-3.463-.457-.998-.303-1.854-.72-2.559-1.249-.706-.527-1.329-1.177-1.868-1.944-.533-.766-.921-1.652-1.159-2.658-.238-1.003-.357-2.103-.357-3.293 0-1.731.229-3.279.694-4.642.317-.953.688-1.638 1.111-2.063.267-.264.952-.759 2.063-1.488 1.114-.728 1.921-1.204 2.423-1.428.927-.411 2.018-.615 3.273-.615 1.774 0 3.23.368 4.37 1.111 1.137.74 1.938 1.683 2.409 2.834.471 1.15.706 2.545.706 4.183 0 .371-.014.729-.04 1.071-.332.107-.836.227-1.51.357-.901.173-1.51.266-1.828.277-.995.079-2.304.127-3.937.142-1.626.017-2.528.031-2.701.045-.173.018-.366.023-.575.023h-1.312c.104 2.085.756 3.734 1.947 4.942 1.193 1.21 2.664 1.813 4.412 1.813.757 0 1.448-.08 2.086-.244s1.471-.499 2.502-1.006l.48.557zm-4.716-8.236c.054-2.1-.232-3.574-.856-4.421-.638-.833-1.459-1.25-2.468-1.25-1.034 0-1.89.437-2.567 1.31-.691.884-1.009 2.341-.955 4.361.785.119 2.089.179 3.919.179 1.167 0 2.142-.059 2.927-.179zM165.722 29.473c-.675-1.84-1.482-3.945-2.42-6.314l-2.621-6.631c-.241-.596-.683-1.621-1.329-3.078-.212-.465-.431-.771-.658-.916-.357-.212-.941-.323-1.746-.337v-1.542c1.879.045 3.718.068 5.521.068 1.695 0 3.361-.022 4.999-.068v1.542c-.765 0-1.445.054-2.041.159-.176.04-.303.111-.391.21-.085.099-.125.215-.125.346l.079.357.771 2.403 1.587 4.152.776 1.946c.459 1.19.765 1.953.913 2.284l1.287-2.97 1.213-2.947c.793-1.867 1.332-3.265 1.61-4.191.13-.462.198-.802.198-1.012 0-.215-.099-.374-.298-.487-.201-.113-.96-.195-2.281-.25v-1.542c1.36.045 2.639.068 3.832.068 1.136 0 2.494-.022 4.069-.068v1.542c-.992.119-1.581.221-1.757.301-.181.079-.343.241-.487.481-.278.425-.856 1.629-1.729 3.605l-1.867 4.211-.796 1.746c-.343.771-.72 1.678-1.131 2.72-.796 2.026-1.363 3.43-1.709 4.212h-3.469zM180.022 29.313v-1.473c1.473-.104 2.318-.221 2.528-.346.209-.127.343-.362.396-.705.136-.729.204-2.602.204-5.62 0-4.143-.063-6.498-.182-7.067-.054-.264-.142-.437-.261-.516-.26-.17-1.156-.263-2.686-.277v-1.519c1.998-.21 3.508-.431 4.528-.666s2.131-.595 3.338-1.08l.476.258c-.17 2.066-.25 4.004-.25 5.818v6.75c0 2.302.051 3.667.159 4.09.051.237.159.396.317.476.357.173 1.224.286 2.607.337v1.542c-1.882-.06-3.928-.091-6.136-.091-1.904-.001-3.581.03-5.038.089zm5.452-28.724c.844 0 1.559.298 2.145.896.587.595.881 1.31.881 2.143 0 .85-.294 1.57-.881 2.165-.586.598-1.301.896-2.145.896-.833 0-1.544-.297-2.137-.896-.595-.595-.89-1.315-.89-2.165 0-.833.292-1.547.878-2.143.588-.598 1.304-.896 2.149-.896zM215.768 27.849v1.465c-1.802-.091-3.27-.136-4.409-.136-1.31 0-2.449.045-3.418.136l-.357-.357c.028-.277.113-1.422.261-3.435l.102-3.253v-1.567c0-2.315-.091-3.837-.267-4.565-.181-.726-.55-1.312-1.105-1.757-.556-.442-1.295-.663-2.222-.663s-1.695.224-2.301.672c-.612.445-.995.893-1.153 1.343-.094.264-.133 1.321-.116 3.169v3.326c0 .967.028 2.146.091 3.546.011.62.068 1.031.159 1.229.068.145.153.25.258.314.159.105.467.207.932.298.159.028.714.079 1.667.158v1.542c-1.445-.06-3.214-.091-5.305-.091-2.426 0-4.307.031-5.645.091v-1.542c1.037 0 1.751-.073 2.151-.218.184-.065.326-.179.417-.337.136-.25.21-.726.221-1.426l.074-1.766c.011-.368.017-.969.017-1.802v-2.597c0-1.173-.028-2.601-.091-4.279-.04-.844-.096-1.323-.17-1.434-.074-.114-.193-.199-.352-.25-.255-.091-1.009-.159-2.267-.198v-1.542c2.409-.408 3.99-.711 4.744-.91.756-.198 1.609-.513 2.562-.949l.539.238v3.193l3.61-2.905c.437-.17.805-.289 1.1-.346.3-.062.714-.09 1.241-.09 1.417 0 2.477.159 3.185.479.708.317 1.31.768 1.797 1.346.493.578.833 1.179 1.031 1.811.199.632.301 1.618.301 2.961 0 1.514-.017 2.477-.045 2.888-.017.161-.023.354-.023.578l.023 2.052c.017 2.247.051 3.636.113 4.166.057.529.176.872.357 1.025.176.153.573.25 1.185.289l1.108.1zM254.212 25.712l-.913 2.003c-1.649.873-3.134 1.469-4.449 1.794-1.315.323-2.953.485-4.925.485-2.8 0-5.277-.442-7.431-1.329-1.695-.712-3.128-1.658-4.302-2.834-1.179-1.177-2.086-2.451-2.715-3.829-.969-2.074-1.451-4.327-1.451-6.759 0-4.163 1.423-7.563 4.273-10.199 2.845-2.639 6.87-3.956 12.061-3.956 1.786 0 3.39.133 4.807.396 1.422.267 3.072.737 4.948 1.411l.096.261c-.215.624-.379 1.406-.499 2.347-.204 1.496-.329 2.882-.386 4.154h-1.542c-.028-1.457-.096-2.621-.204-3.497-.884-.926-1.876-1.618-2.976-2.074-1.105-.459-2.511-.686-4.228-.686-3.1 0-5.577.98-7.436 2.941-1.865 1.961-2.794 4.698-2.794 8.212 0 2.125.317 3.981.94 5.565.629 1.587 1.462 2.896 2.505 3.934s2.097 1.794 3.151 2.268c1.439.635 3.18.952 5.231.952 1.343 0 2.618-.153 3.82-.454 1.202-.306 2.511-.827 3.922-1.563l.497.457zM256.553 19.939c0-2.245.38-4.106 1.151-5.58.765-1.474 1.921-2.584 3.451-3.33 1.536-.748 3.327-1.122 5.362-1.122 3.061 0 5.384.799 6.983 2.397 1.592 1.601 2.392 3.947 2.392 7.039 0 1.785-.232 3.333-.697 4.643-.464 1.309-1.083 2.363-1.864 3.162-.782.799-1.604 1.405-2.46 1.813-1.474.687-3.129 1.032-4.965 1.032-2.993 0-5.299-.851-6.92-2.548s-2.433-4.199-2.433-7.506zm5.487-.947c0 3.518.516 6.025 1.553 7.519.691.992 1.672 1.488 2.947 1.488 1.088 0 1.95-.377 2.59-1.131.85-1.006 1.275-2.95 1.275-5.835 0-2.023-.17-3.758-.51-5.206-.34-1.448-.833-2.457-1.49-3.026-.658-.57-1.451-.853-2.381-.853-.799 0-1.496.209-2.091.624-.601.419-1.065 1.119-1.394 2.105-.335.983-.499 2.423-.499 4.315zM289.375 27.771v1.542c-1.655-.091-3.378-.136-5.174-.136-1.802 0-3.826.045-6.07.136v-1.542c1.27-.039 2.035-.09 2.301-.158.204-.051.351-.131.453-.227.102-.103.17-.255.21-.468.096-.396.153-1.646.187-3.749.028-2.105.045-3.971.045-5.6v-6.546c0-2.077-.045-3.976-.136-5.696-.057-.924-.119-1.474-.198-1.644-.057-.094-.13-.165-.221-.218-.159-.105-.414-.184-.759-.238-.198-.025-.793-.059-1.791-.099v-1.473c1.644-.173 2.958-.362 3.939-.566.98-.207 2.301-.57 3.962-1.088l.419.238-.17 4.013c-.068 2.25-.113 5.013-.125 8.286v5.084c0 1.921.011 3.355.028 4.311.04 2.372.074 3.806.102 4.302s.074.811.142.943c.04.091.102.17.199.238.119.091.323.164.618.218.118.024.798.073 2.039.137zM302.496 27.771v1.542c-1.649-.091-3.378-.136-5.175-.136-1.796 0-3.82.045-6.07.136v-1.542c1.27-.039 2.04-.09 2.307-.158.198-.051.351-.131.448-.227.102-.103.17-.255.215-.468.091-.396.153-1.646.181-3.749.034-2.105.045-3.971.045-5.6v-6.546c0-2.077-.045-3.976-.136-5.696-.051-.924-.119-1.474-.199-1.644-.051-.094-.125-.165-.221-.218-.159-.105-.408-.184-.754-.238-.198-.025-.799-.059-1.797-.099v-1.473c1.649-.173 2.958-.362 3.945-.566.98-.207 2.301-.57 3.962-1.088l.414.238-.164 4.013c-.074 2.25-.114 5.013-.13 8.286v5.084c0 1.921.011 3.355.034 4.311.04 2.372.074 3.806.097 4.302.028.496.073.811.142.943.04.091.107.17.198.238.119.091.329.164.624.218.119.024.798.073 2.034.137zM321.693 26.262l-.873 1.943c-1.083.655-2.205 1.14-3.355 1.454-.855.221-1.836.335-2.936.335-1.31 0-2.466-.153-3.463-.457-.998-.303-1.854-.72-2.562-1.249-.708-.527-1.326-1.177-1.865-1.944-.533-.766-.924-1.652-1.162-2.658-.238-1.003-.357-2.103-.357-3.293 0-1.731.232-3.279.697-4.642.317-.953.686-1.638 1.111-2.063.267-.264.952-.759 2.063-1.488 1.111-.728 1.921-1.204 2.42-1.428.929-.411 2.018-.615 3.276-.615 1.774 0 3.23.368 4.364 1.111 1.139.74 1.944 1.683 2.414 2.834.471 1.15.703 2.545.703 4.183 0 .371-.012.729-.04 1.071-.329.107-.833.227-1.507.357-.901.173-1.513.266-1.831.277-.992.079-2.301.127-3.934.142-1.626.017-2.528.031-2.704.045-.17.018-.363.023-.572.023h-1.315c.107 2.085.754 3.734 1.95 4.942 1.19 1.21 2.664 1.813 4.41 1.813.753 0 1.451-.08 2.085-.244.641-.164 1.474-.499 2.505-1.006l.478.557zm-4.716-8.236c.057-2.1-.232-3.574-.856-4.421-.635-.833-1.457-1.25-2.465-1.25-1.037 0-1.893.437-2.567 1.31-.691.884-1.009 2.341-.958 4.361.782.119 2.091.179 3.922.179 1.167 0 2.142-.059 2.924-.179zM327.123 24.686l2.754-2.003c-.975-.357-1.763-.769-2.347-1.238-.589-.468-1.06-1.086-1.411-1.854-.346-.769-.521-1.612-.521-2.539 0-1.256.323-2.429.969-3.52s1.661-1.958 3.043-2.607c1.383-.649 2.999-.972 4.852-.972 1.242 0 2.386.142 3.44.425 1.049.284 1.933.7 2.647 1.253.765.04 1.292.06 1.587.06.391 0 1.474-.048 3.23-.15l-.272 2.471h-3.14c.175.663.261 1.304.261 1.924 0 1.414-.38 2.667-1.128 3.749-.754 1.086-1.814 1.919-3.186 2.5-1.366.584-2.817.873-4.347.873-.408 0-.98-.028-1.723-.091-.408.238-.72.516-.93.839-.215.323-.317.623-.317.901 0 .237.085.462.261.674.176.21.419.349.737.414.437.094 1.524.139 3.276.139l4.88-.119c1.428 0 2.528.167 3.31.496.776.332 1.36.833 1.74 1.508.386.675.578 1.567.578 2.678 0 1.652-.391 3.148-1.173 4.483-.777 1.335-1.95 2.435-3.508 3.293-1.973 1.071-4.319 1.606-7.04 1.606-2.143 0-3.888-.297-5.237-.893-1.349-.595-2.295-1.301-2.84-2.122-.538-.819-.811-1.712-.811-2.679 0-.555.085-1.057.255-1.504.176-.454.374-.788.595-1.015.227-.225.669-.527 1.332-.913 1.264-.714 1.973-1.103 2.12-1.167-.714-.08-1.354-.341-1.921-.776-.516-.474-.771-1.015-.771-1.624 0-.332.063-.7.198-1.111.184-.582.371-1.047.558-1.389zm4.143 5.098c-1.088.686-1.814 1.317-2.176 1.893-.363.575-.544 1.219-.544 1.936 0 1.205.493 2.208 1.479 3.016.986.808 2.465 1.21 4.438 1.21 2.063 0 3.639-.481 4.733-1.448 1.088-.966 1.638-2.19 1.638-3.67 0-.714-.113-1.261-.329-1.638-.221-.377-.527-.675-.924-.893-.396-.219-.946-.343-1.649-.377-.697-.034-2.318-.051-4.863-.051-.46 0-1.067.008-1.803.022zm-.703-13.642c0 1.825.317 3.129.953 3.908.635.779 1.457 1.17 2.477 1.17 1.122 0 1.984-.456 2.579-1.368.419-.66.635-1.652.635-2.973 0-1.854-.301-3.149-.896-3.889-.595-.742-1.417-1.111-2.477-1.111-1.003 0-1.802.337-2.392 1.012-.585.675-.879 1.76-.879 3.251zM363.792 26.262l-.873 1.943c-1.088.655-2.205 1.14-3.355 1.454-.861.221-1.842.335-2.936.335-1.31 0-2.466-.153-3.463-.457-1.003-.303-1.853-.72-2.562-1.249-.708-.527-1.332-1.177-1.865-1.944-.539-.766-.924-1.652-1.162-2.658-.238-1.003-.357-2.103-.357-3.293 0-1.731.232-3.279.691-4.642.317-.953.691-1.638 1.111-2.063.267-.264.952-.759 2.069-1.488 1.111-.728 1.916-1.204 2.42-1.428.924-.411 2.018-.615 3.276-.615 1.768 0 3.225.368 4.364 1.111 1.14.74 1.944 1.683 2.409 2.834.47 1.15.708 2.545.708 4.183 0 .371-.017.729-.04 1.071-.334.107-.839.227-1.513.357-.901.173-1.508.266-1.825.277-.997.079-2.307.127-3.933.142-1.632.017-2.534.031-2.704.045-.176.018-.363.023-.578.023h-1.309c.102 2.085.753 3.734 1.944 4.942 1.196 1.21 2.664 1.813 4.415 1.813.754 0 1.451-.08 2.086-.244s1.468-.499 2.505-1.006l.477.557zm-4.715-8.236c.051-2.1-.232-3.574-.856-4.421-.64-.833-1.462-1.25-2.471-1.25-1.031 0-1.887.437-2.567 1.31-.686.884-1.009 2.341-.952 4.361.782.119 2.086.179 3.922.179 1.167 0 2.142-.059 2.924-.179zM425.101 29.313v-1.021c.346-.146.827-.405 1.445-.776.277-.158.453-.289.533-.396.057-.065.085-.136.102-.218.063-.332.125-1.511.176-3.54.057-2.032.079-4.472.079-7.314 0-4.18-.011-6.761-.028-7.739-.039-2.488-.119-3.911-.237-4.268-.058-.159-.153-.278-.301-.357-.306-.198-1.326-.329-3.061-.397v-1.745c1.678.091 3.593.136 5.747.136 2.403 0 4.682-.045 6.835-.136v1.746c-1.49.068-2.403.187-2.731.357-.147.079-.255.209-.317.385-.068.181-.131.998-.188 2.451-.063 1.454-.091 3.29-.091 5.512 0 .238.006 2.148.018 5.732.017 1.891.028 3.764.034 5.623.011 1.855.022 2.983.033 3.381 1.825.09 3.066.136 3.729.136 2.007 0 3.758-.119 5.254-.363.545-.079.867-.164.97-.255.107-.093.221-.337.34-.73.261-1.001.521-2.146.771-3.436h1.655c-.039.369-.057.59-.057.655l-.493 4.001c-.102 1.256-.158 2.01-.176 2.259-.38.107-.765.179-1.15.219-.805.064-2.058.099-3.746.099-.238 0-1.797-.034-4.665-.102-2.182-.052-3.706-.08-4.563-.08-1.298 0-3.27.062-5.917.181zM466.175 27.817v1.496c-1.524-.06-2.879-.091-4.058-.091-1.117 0-2.193.031-3.242.091l-.182-.218.182-2.596c-.477.303-1.876 1.352-4.2 3.137-.589.13-1.162.198-1.7.198-1.439 0-2.567-.425-3.378-1.27-.811-.848-1.219-2.063-1.219-3.65 0-1.071.182-1.952.544-2.641.363-.686.754-1.193 1.174-1.517.413-.325 1.054-.638 1.927-.943 2.086-.739 4.37-1.32 6.853-1.746.028-1.575-.295-2.777-.964-3.596-.686-.822-1.729-1.233-3.123-1.233-.561 0-1.104.074-1.615.221-.227.065-.487.198-.788.396l-.833 2.013-1.36-.301.119-2.567c.98-.663 1.91-1.241 2.795-1.729.884-.493 1.502-.791 1.858-.898.487-.145 1.174-.218 2.063-.218 1.434 0 2.618.209 3.554.624.93.419 1.615.912 2.058 1.479.441.57.742 1.179.912 1.825.164.649.243 1.468.243 2.462 0 .422-.028 1.527-.09 3.313-.04 1.19-.057 2.165-.057 2.919 0 2.353.062 3.78.192 4.285.057.238.158.396.323.477.209.108.884.199 2.012.278zm-7.3-8.082c-1.117.237-2.143.526-3.072.864-.93.337-1.569.754-1.927 1.25-.352.498-.533 1.122-.533 1.878 0 .848.216 1.502.646 1.967.425.462.986.694 1.688.694.59 0 1.185-.173 1.786-.516.601-.346 1.071-.782 1.411-1.312v-4.825zM474.654 29.473c-.052-.173-.171-.669-.357-1.491-.103-.45-.272-1.079-.493-1.887l-1.666-5.926c-.703-2.479-1.151-4.056-1.35-4.73-.481-1.578-.815-2.505-1.015-2.782-.079-.119-.203-.207-.379-.261-.278-.105-.964-.17-2.063-.199v-1.542c1.672.045 3.457.068 5.361.068 1.962 0 3.843-.022 5.64-.068v1.542c-1.417 0-2.262.08-2.539.238-.17.093-.261.255-.261.479 0 .252.068.638.198 1.153l2.409 9.057 3.44-7.586 1.185-2.582 1.185-2.8h2.018l5.634 12.967 1.955-5.852c.289-.915.578-1.944.873-3.086.13-.584.198-.969.198-1.153 0-.32-.102-.521-.312-.606-.204-.088-1.026-.162-2.466-.23v-1.542c1.411.045 2.732.068 3.945.068 1.189 0 2.596-.022 4.205-.068v1.542c-.936.054-1.439.085-1.502.1-.188.054-.352.145-.505.269-.152.125-.277.275-.368.448-.091.17-.419 1.026-.986 2.562-.227.598-.617 1.697-1.173 3.301l-1.049 3.144-.317.893c-.152.465-.578 1.757-1.264 3.877l-.794 2.684h-3.241c-1.253-3.007-1.979-4.738-2.177-5.203l-3.19-7.258c-1.151 2.375-2.001 4.177-2.557 5.41-.562 1.232-1.049 2.344-1.474 3.332l-1.508 3.719h-3.24zM377.214 23.487c0-1.559.261-3.18.782-4.866.521-1.688 1.088-2.898 1.692-3.644.377-.468 1.054-1.077 2.015-1.839.964-.759 2.023-1.389 3.177-1.887 1.145-.493 2.381-.743 3.673-.743 1.083 0 2.072.159 2.964.488.898.329 1.57.753 2.023 1.275.45.521.793 1.148 1 1.876.216.731.326 1.53.326 2.397 0 1.649-.272 3.293-.825 4.931-.55 1.645-1.182 2.899-1.899 3.764-.516.606-1.326 1.278-2.428 2.015-1.105.734-2.16 1.296-3.174 1.681-1.014.38-2.153.572-3.429.572-1.505 0-2.687-.263-3.568-.793-.87-.527-1.477-1.253-1.819-2.177-.337-.925-.51-1.944-.51-3.05zm4.455-.144c0 1.547.289 2.652.881 3.324.583.663 1.414.997 2.479.997.723 0 1.343-.17 1.865-.519.527-.343 1.003-.906 1.442-1.678.434-.776.828-1.842 1.193-3.199.533-1.989.799-3.888.799-5.699 0-1.539-.306-2.644-.921-3.33-.615-.686-1.409-1.029-2.392-1.029-1.003 0-1.87.375-2.59 1.125-.717.748-1.354 2.17-1.918 4.27-.555 2.102-.838 4.014-.838 5.738zM398.734 13.172l.17-.963c.405-.15 1.012-.346 1.848-.578.828-.232 1.505-.471 2.032-.711.065-.19.145-.521.249-1 .238-1.085.471-1.831.677-2.233.349-.629.87-1.281 1.576-1.944 1.097-1.026 2.318-2.021 3.656-2.992 1.352-.969 2.23-1.547 2.655-1.729.422-.181 1.018-.272 1.789-.272.499 0 1.025.097 1.553.3-.504 1.695-.859 3.299-1.071 4.807l-.575.113c-.527-.793-1.04-1.352-1.544-1.678-.504-.332-.963-.493-1.369-.493-.312 0-.621.091-.904.267-.289.175-.527.417-.688.72-.173.3-.343.771-.521 1.4-.451 1.68-.828 3.355-1.111 5.039h.428c.334.011 1.182-.025 2.531-.113.816-.048 1.431-.113 1.831-.19l.193.303c-.267.68-.465 1.332-.586 1.95-.595-.008-1.57-.017-2.914-.017-.839 0-1.471.009-1.89.017l-2.088 9.091c-1.015 4.072-1.873 7.009-2.584 8.816-.714 1.811-1.664 3.4-2.856 4.78-1.188 1.384-2.397 2.396-3.622 3.032-.637.347-1.255.511-1.848.511-.439 0-.921-.103-1.437-.317.349-.933.604-1.684.776-2.253.167-.569.326-1.196.459-1.879l.606-.113c.261.595.553 1.025.859 1.286s.655.392 1.037.392c.366 0 .7-.119 1.015-.346.306-.235.572-.655.805-1.259.445-1.21 1.018-3.746 1.743-7.611l2.735-14.13c-.754-.008-1.581-.017-2.474-.017-.455-.003-.837.006-1.141.014z"/>
</g>
<g id="univ-fla">
	<path d="M114.792 49.128v-1.046l3.982.113 1.649-.036 1.655-.057.448-.021v1.046c-.893 0-1.442.031-1.664.216-.139.088-.215.192-.267.416-.113.524-.173 1.612-.173 3.311v4.287c0 1.491.017 2.415.054 2.78.093.736.255 1.352.566 1.867.315.434.796.833 1.445 1.12.638.286 1.442.453 2.44.453 1.128 0 2.032-.229 2.704-.601.672-.369 1.159-.901 1.439-1.502.281-.602.422-1.803.422-3.565v-2.442c0-2.163-.008-3.506-.022-3.945-.031-1.063-.063-1.686-.176-1.873-.034-.167-.153-.213-.278-.292-.258-.176-.839-.201-1.74-.229v-1.046c1.468.077 2.341.113 2.61.113l.337-.017 2.717-.097v1.046c-.762 0-1.244.031-1.414.153-.122.082-.181.179-.261.391-.034.153-.113.989-.178 2.491-.045 1.462-.083 2.607-.083 3.443v2.865c0 .739-.068 1.502-.161 2.292-.094.751-.326 1.437-.652 1.981-.306.541-.76 1.097-1.36 1.502-.586.487-1.272.833-2.088 1.045-.782.21-1.723.354-2.786.354-1.25 0-2.395-.212-3.474-.553-.791-.229-1.411-.566-1.91-.932-.507-.437-.87-.885-1.156-1.426-.252-.484-.414-.961-.448-1.468-.051-.292-.076-1.055-.076-2.363l.017-2.336v-3.128c0-1.128-.023-2.18-.068-3.081-.025-.317-.057-.601-.147-.773-.025-.113-.142-.17-.312-.323l-1.591-.133zM134.541 64.179c.978-.04 1.521-.097 1.658-.15l.25-.15c.048-.062.102-.255.153-.462.042-.314.091-1.04.17-2.241.026-.669.026-1.542.026-2.675v-3.931l-.031-3.548c-.011-.596-.04-.961-.094-1.151-.028-.147-.088-.314-.176-.41-.068-.043-.189-.128-.377-.19-.187-.063-.691-.11-1.578-.119v-1.068c1.054.077 1.802.113 2.292.113l1.766-.057 1.147-.057c1.684 2.219 3.695 4.699 6.076 7.604 1.737 2.052 3.14 3.687 4.293 4.849v-2.854c0-4.35-.06-6.979-.145-7.72-.04-.297-.11-.501-.238-.581-.173-.187-.805-.221-1.899-.229v-1.068c.98.077 1.899.113 2.752.113.785 0 1.831-.036 3.12-.113v1.068c-.989.009-1.59.043-1.774.198-.085.052-.116.111-.133.15-.136.437-.213 1.378-.258 2.82-.026 1.442-.028 2.547-.028 3.199 0 5.424.028 8.708.15 9.861l-.15.131c-.708-.131-1.395-.201-2.1-.326-2.644-2.925-6.368-7.322-11.202-13.263v6.116c0 1.28.04 2.547.088 3.964.025.958.088 1.527.147 1.706.026.125.094.17.153.222.099.076.229.133.439.161.51.082.91.088 1.151.088h.229v.94c-1.522-.03-2.42-.039-2.627-.039-.811 0-1.893.031-3.25.104v-1.005zM163.378 48.082v1.077c-.811.009-1.312.048-1.471.094-.156.048-.255.104-.332.167-.051.04-.105.076-.139.182-.034.158-.085.428-.113.762-.022.27-.04.612-.048 1.199-.006 2.055-.026 3.1-.026 3.296v4.874l.026 2.27c0 .819.031 1.353.133 1.59.02.145.074.258.167.286.065.046.178.108.351.153.173.048.669.082 1.451.103v1.051c-1.329-.073-2.726-.104-4.237-.104-1.317 0-2.505.031-3.528.104v-1.051c.855-.043 1.329-.077 1.457-.111.176-.039.3-.096.36-.145.079-.017.093-.099.107-.192.028-.107.071-.447.125-1.131.048-1 .093-1.901.093-2.715v-5.106c0-1.652-.008-2.652-.022-3.16-.051-.988-.074-1.648-.147-1.898-.031-.133-.063-.215-.107-.229-.065-.07-.153-.13-.295-.176-.139-.048-.677-.091-1.57-.11v-1.077c1.023.077 2.21.113 3.556.113 1.492-.003 2.88-.039 4.209-.116zM173.271 65.298c-.717-1.72-1.357-3.341-2.001-4.891l-1.731-4.124c-1.354-3.233-2.208-5.205-2.525-5.835-.317-.629-.539-.988-.703-1.034-.232-.161-.751-.255-1.519-.255v-1.077c1.956.077 3.14.113 3.557.113l4.395-.113v1.077c-.666 0-1.173.04-1.488.133-.184.052-.303.125-.368.168-.071.073-.116.201-.116.3 0 .283.269 1.023.822 2.353.314.711.482 1.145.496 1.221l.074.207 3.083 7.556 2.712-6.756c.083-.119.369-.933.893-2.29.351-.998.595-1.663.66-1.989.02-.063.028-.185.028-.301 0-.102-.028-.235-.085-.3l-.156-.137c-.06-.031-.207-.057-.448-.076-.53-.063-.978-.088-1.355-.088v-1.077l3.126.113 2.624-.113v1.077c-.791.071-1.244.179-1.389.301-.198.142-.663 1.068-1.357 2.715l-.893 2.085-1.649 3.911c-1.372 3.318-2.335 5.707-2.845 7.127h-1.842zM185.16 65.165v-.678c.484-.207.901-.428 1.202-.657.048-.354.099-.896.139-1.703.04-1.377.079-2.426.079-3.055v-5.458c0-.25-.014-1.037-.045-2.378-.026-.927-.063-1.479-.173-1.737l-.156-.15c-.238-.124-.822-.189-1.791-.198v-.955l2.848-.02 1.624-.003c1.094 0 2.346-.014 3.718-.048l2.468-.074c.301 0 .901.018 1.803.06.071 0 .201.028.399.085l.068.119-.212 1.755c-.011.152-.063.736-.11 1.793h-.978c-.022-.943-.065-1.533-.099-1.802l-.145-.235c-.125-.065-.425-.1-.992-.167-.788-.116-1.57-.173-2.344-.173-.714 0-1.451.036-2.202.113-.147.935-.185 2.108-.185 3.517v2.562c.539.046 1.105.065 1.709.065.195 0 .884-.017 2.038-.06.439-.009.683-.045.782-.107.057-.063.13-.107.167-.244.099-.314.147-.808.156-1.562h1.021l-.068 2.679.068 2.658h-1.021c.006-.936-.034-1.533-.159-1.731-.125-.125-.297-.256-.55-.307-.561-.099-1.281-.099-2.165-.099-.811 0-1.485 0-1.978.039v5.13c0 .563.012 1.104.037 1.465.64.076 1.431.113 2.335.113.87 0 1.703-.037 2.446-.11.742-.028 1.199-.094 1.377-.229l.15-.195c.153-.414.3-1.117.454-2.256h1.006c-.187 1.641-.261 2.952-.261 4.004l-.159.15c-.544.048-1.281.085-2.242.085l-1.953-.057c-1.952-.028-3.301-.028-4.035-.028-.169-.001-1.532.008-4.071.084zM199.955 49.105v-1.023c.199 0 .825.025 1.961.077.533.022 1.315.036 2.315.036.87 0 1.604-.022 2.219-.07.998-.057 1.839-.085 2.497-.085 1.292 0 2.236.113 2.882.269.646.23 1.173.553 1.621 1.151.448.601.691 1.277.691 2.103 0 .997-.306 1.896-.927 2.703-.621.836-1.579 1.485-2.836 1.925.178.379.433.773.683 1.091l.462.72c.057.099.077.17.139.213l1.884 2.859c.521.714.788 1.147.839 1.218.618.782.975 1.287 1.114 1.414.147.173.3.232.428.307.125.07.372.113.774.122v1.051c-1.267-.042-2.177-.065-2.726-.065-.666 0-1.327.023-1.941.065-.057-.147-.139-.405-.295-.705l-2.641-4.291c-.754-1.252-1.4-2.244-1.901-2.919-.261-.362-.536-.623-.762-.85l.13-.352c.972 0 1.726-.085 2.216-.301.516-.292.93-.657 1.287-1.258.326-.599.493-1.287.493-2.046 0-.729-.167-1.357-.524-1.828-.377-.547-.822-.876-1.337-1.074-.354-.102-.972-.153-1.854-.153-.377 0-.791.04-1.159.052-.028.3-.057.96-.09 2.023-.017 2.281-.048 3.831-.048 4.585 0 1.213.014 2.536.04 3.905.006 1.691.037 2.658.054 2.867.034.437.09.737.13.891.042.085.11.146.164.146.091.065.201.122.369.162.164.042.632.073 1.397.094v1.051c-1.369-.073-2.792-.104-4.217-.104-1.267 0-2.437.031-3.528.104v-1.051c.93-.043 1.462-.1 1.641-.173l.229-.083.09-.346c.065-.322.085-.85.114-1.456l.099-3.604v-4.506l-.031-2.604c-.02-1.001-.08-1.602-.147-1.845l-.187-.182c-.212-.125-.813-.176-1.811-.23zM229.617 52.557h-1.028c-.023-.957-.034-1.595-.116-1.98-.238-.377-.672-.697-1.298-.969-.626-.27-1.314-.448-2.083-.448-1.12 0-1.961.301-2.568.901-.604.547-.907 1.201-.907 1.927.012.521.085.995.261 1.338.176.34.402.598.726.768.323.173.793.392 1.417.521.479.122 1.111.252 1.978.383l1.635.306c.632.165 1.187.399 1.584.624.399.224.726.496.986.813.227.314.436.736.592 1.179.156.524.212 1.043.212 1.635 0 1.021-.193 1.922-.643 2.763-.309.593-.763 1.123-1.349 1.588-.595.541-1.188.875-1.799 1.158-.958.338-2.123.584-3.497.584-1.012 0-1.913-.119-2.667-.277-.788-.235-1.649-.564-2.582-.98.241-.941.363-2.335.374-4.26h1.026c-.017.584.04 1.347.133 2.216.309.482.858.933 1.607 1.296.745.405 1.544.569 2.445.569.757 0 1.471-.091 2.077-.357.607-.274 1.046-.666 1.31-1.176.266-.468.396-.997.396-1.615 0-.49-.079-.967-.283-1.352-.195-.338-.496-.638-.896-.873-.397-.201-1.105-.411-2.151-.666-1.482-.301-2.429-.559-2.894-.654-.711-.247-1.281-.547-1.706-.921-.419-.423-.745-.876-.96-1.432-.198-.598-.3-1.198-.3-1.836 0-.916.167-1.766.572-2.557.366-.733.887-1.332 1.522-1.788.609-.425 1.329-.726 2.111-.912.779-.153 1.604-.267 2.417-.267.887 0 1.712.097 2.539.215.788.193 1.505.397 2.106.689l.087.292c-.107.51-.215 1.06-.244 1.572-.065.484-.116 1.172-.142 1.983zM240.792 48.082v1.077c-.845.009-1.332.048-1.485.094-.159.048-.272.104-.332.167-.054.04-.113.076-.142.182-.062.158-.096.428-.127.762l-.028 1.199c-.04 2.055-.042 3.1-.042 3.296v4.874l.022 2.27c0 .819.048 1.353.114 1.59.037.145.104.258.175.286.077.046.204.108.363.153.187.048.658.082 1.482.103v1.051c-1.346-.073-2.76-.104-4.265-.104-1.335 0-2.494.031-3.517.104v-1.051c.833-.043 1.332-.077 1.454-.111.178-.039.283-.096.363-.145.045-.017.088-.099.104-.192.031-.107.074-.447.094-1.131.082-1 .127-1.901.127-2.715v-5.106c0-1.652-.011-2.652-.022-3.16-.054-.988-.105-1.648-.147-1.898-.028-.133-.08-.215-.11-.229-.065-.07-.15-.13-.301-.176-.147-.048-.671-.091-1.562-.11v-1.077c1.023.077 2.194.113 3.517.113 1.504-.003 2.918-.039 4.265-.116zM245.943 65.185v-1.006c1.003 0 1.581-.057 1.774-.182.195-.119.295-.249.357-.459.113-.365.167-1.462.167-3.211v-7.277c0-2.049-.011-3.14-.045-3.363h-1.737c-.875 0-1.695.036-2.346.073-.295 0-.411.028-.462.082-.077.063-.136.219-.139.459-.105.562-.181 1.211-.201 1.865h-1c-.011-1.635-.037-2.588-.048-2.777-.023-.374-.071-.785-.142-1.15l.13-.156c.354.054.771.091 1.235.11.646.034 2.032.049 3.999.049h4.968c2.043 0 3.381-.015 4.095-.049.396-.02.782-.057 1.119-.11l.153.156c-.09.471-.147.921-.164 1.255-.011.085-.025.976-.031 2.673h-.995c-.014-.604-.082-1.204-.201-1.806-.006-.3-.045-.447-.116-.519-.063-.054-.184-.082-.417-.082-.675-.031-1.468-.073-2.417-.073h-1.731c-.034.283-.051 1.377-.051 3.363v7.277c0 1.749.062 2.852.181 3.226.045.189.15.325.34.437.201.13.779.189 1.78.189v1.006c-1.604-.088-2.973-.104-4.027-.104-1.146-.001-2.514.016-4.028.104zM268.144 56.17l1.507-2.505c.295-.408 1.065-1.803 2.366-4.053.402-.754.677-1.309.825-1.53h1.91v.536c-.941 1.363-2.046 2.938-3.177 4.732-1.128 1.791-1.862 2.928-2.12 3.418-.153.365-.298.671-.372.924-.045.178-.045.479-.045.918v2.055c0 1.071.011 1.785.079 2.304.068.437.145.717.227.842.026.067.182.136.317.198.218.063.74.104 1.655.125v1.051c-1.57-.073-2.95-.104-4.223-.104-1.224 0-2.474.031-3.741.104v-1.051c.941-.043 1.479-.088 1.672-.14l.34-.152c.068-.105.068-.335.085-.769.045-.935.068-1.697.068-2.363v-2.298c0-.235-.119-.567-.434-1.148-.808-1.453-1.604-2.803-2.465-4.199-.743-1.083-1.392-1.967-1.992-2.652-.397-.397-.683-.655-.896-.766-.057-.063-.434-.094-1.043-.094v-.932l2.556-.485c.476-.121.89-.178 1.397-.331.465.27.845.502 1.054.754.241.212.536.601.953 1.201.589.901 1.176 1.876 1.76 3.01.969 1.841 1.533 2.998 1.737 3.4zM281.449 61.759c0-1.04.207-2.086.513-3.186.317-1.063.697-1.896 1.114-2.344.229-.303.688-.726 1.289-1.188.601-.476 1.295-.9 2.08-1.224.7-.326 1.525-.454 2.367-.454.654 0 1.3.055 1.873.301.583.21 1.043.477 1.334.824.292.349.488.7.663 1.219.094.439.185.961.185 1.562 0 1.031-.147 2.103-.516 3.163-.371 1.043-.776 1.89-1.235 2.439-.34.405-.845.805-1.587 1.307-.666.465-1.372.842-2.041 1.077-.671.232-1.369.391-2.228.391-.935 0-1.743-.218-2.304-.566-.553-.301-.969-.788-1.17-1.389-.196-.595-.337-1.266-.337-1.932zm2.916-.119c0 1.025.167 1.691.573 2.159.323.386.921.657 1.553.657.51 0 .878-.139 1.205-.343.354-.235.663-.584.943-1.133.275-.477.533-1.19.819-2.061.314-1.247.493-2.466.493-3.65 0-.997-.179-1.742-.595-2.146-.419-.481-.913-.683-1.559-.683-.663 0-1.21.227-1.644.726-.505.49-.893 1.414-1.25 2.734-.377 1.402-.538 2.646-.538 3.74zM295.395 55.07l.079-.632c.306-.122.649-.201 1.202-.391.57-.113.963-.307 1.315-.426.051-.152.119-.346.193-.657.127-.729.294-1.179.408-1.431.201-.434.55-.873 1.049-1.272.654-.678 1.496-1.332 2.355-1.967.864-.635 1.425-.949 1.694-1.097.264-.142.672-.147 1.142-.147.332 0 .68.006 1.032.17-.329 1.071-.542 2.143-.717 3.138l-.354.014c-.306-.49-.649-.87-.98-1.057-.334-.19-.626-.323-.878-.323-.25 0-.428.073-.584.167-.235.116-.349.301-.482.481-.079.168-.204.471-.348.904-.292 1.057-.516 2.19-.672 3.248h.272c.199.011.731-.021 1.593-.094.572-.034.932-.034 1.179-.077l.156.171c-.162.473-.298.85-.397 1.277-.366-.008-.966-.014-1.862-.014-.572 0-.93.006-1.202.014l-1.383 5.847c-.669 2.661-1.213 4.537-1.638 5.699-.499 1.167-1.122 2.225-1.856 3.114-.813.893-1.564 1.559-2.333 1.958-.436.246-.864.306-1.201.306-.306 0-.601-.008-.924-.184l.476-1.445c.142-.389.184-.779.297-1.219l.414-.091c.136.405.337.678.544.83.175.196.394.301.688.301.221 0 .417-.094.601-.283.244-.11.383-.374.567-.788.286-.751.635-2.429 1.111-4.937l1.76-9.108c-.459-.008-1.034-.014-1.626-.014l-.69.015zM322.214 59.265h-1.105c-.025-1.051-.096-1.672-.179-1.861-.073-.134-.224-.153-.476-.216-.601-.133-1.55-.198-2.803-.198l-.995.012v1.402c0 1.891.034 3.287.091 4.032.06.825.063 1.241.167 1.409l.309.189c.184.068.785.145 1.947.176v.975l-4.806-.104c-.723 0-1.794.031-3.301.104v-1.006c.938 0 1.485-.022 1.592-.094.088-.034.167-.091.23-.173.017-.042.087-.312.139-.635.028-.167.074-.751.125-1.769.054-.935.054-1.672.054-2.137v-5.05c0-.067-.02-1.258-.111-3.375-.017-.638-.079-1.116-.17-1.369l-.071-.175c-.068-.057-.207-.111-.354-.162-.201-.054-.671-.082-1.434-.091v-1.068l4.305.113 5.934-.133c.802 0 1.547.051 2.321.153l.088.136c-.065.507-.162 1.097-.241 1.766-.054.748-.054 1.383-.06 1.904h-1.021c0-.167-.022-.644-.074-1.346-.022-.315-.057-.564-.096-.615l-.06-.119c-.187-.119-.536-.182-1.051-.277-.516-.119-1.147-.179-1.893-.179-.096 0-.504.014-1.145.042-.64.028-1.02.051-1.264.071-.088.785-.15 2.264-.15 4.367v1.736c1.046.065 1.723.065 2.108.065 1.046 0 1.695-.02 1.964-.142.133-.04.229-.158.284-.271.025-.188.079-.687.096-1.389h1.105l.001 5.302zM325.825 65.185v-.641c.266-.064.558-.235.89-.441l.329-.229.074-.171c.048-.178.099-.938.145-2.201.045-1.228.054-2.729.054-4.5 0-2.54 0-4.149-.008-4.75-.034-1.542-.096-2.406-.184-2.604-.045-.125-.102-.187-.159-.201-.241-.153-.85-.255-1.91-.286v-1.077c1.06.077 2.247.113 3.531.113 1.479 0 2.936-.036 4.229-.113v1.077c-.927.031-1.474.122-1.655.255-.11.046-.19.085-.238.224 0 .122-.031.612-.08 1.508-.051.89-.074 2.004-.074 3.412l.017 3.509c.011 1.15.017 2.292.023 3.417.005 1.193.011 1.845.022 2.095 1.103.057 1.893.094 2.27.094 1.25 0 2.332-.091 3.228-.19.343-.063.598-.13.601-.198.079-.006.17-.188.261-.417.127-.62.329-1.362.448-2.134h1.042c-.034.213-.045.38-.045.431l-.303 2.415c-.08.816-.125 1.247-.133 1.439-.221.063-.445.063-.669.094-.544.051-1.278.073-2.36.073-.105 0-1.083-.022-2.843-.073-1.386-.031-2.301-.031-2.842-.031-.777-.004-1.995.013-3.661.101zM339.79 56.856c0-1.488.207-2.814.7-3.897.414-1.097 1.071-2.034 1.896-2.854.856-.739 1.751-1.289 2.746-1.644 1.278-.465 2.624-.657 4.118-.657 1.496 0 2.859.182 4.069.629.898.32 1.661.74 2.372 1.341.711.601 1.215 1.213 1.587 1.851.377.635.64 1.346.791 2.052.193.79.269 1.598.269 2.502 0 1.542-.252 2.941-.768 4.282-.414.997-.975 1.855-1.711 2.576-.779.802-1.624 1.377-2.602 1.742-1.309.601-2.806.867-4.528.867-1.848 0-3.39-.34-4.707-1.02-1.346-.684-2.338-1.649-3.129-2.922-.706-1.32-1.103-2.933-1.103-4.848zm3.746-.762c0 1.924.306 3.514.816 4.767.504 1.216 1.19 2.117 1.98 2.612.808.493 1.771.737 2.917.737.997 0 1.921-.229 2.706-.688.864-.539 1.499-1.347 1.936-2.503.459-1.153.711-2.547.711-4.25 0-1.123-.156-2.202-.391-3.104-.229-.936-.606-1.791-1.063-2.403-.479-.672-1.012-1.201-1.652-1.516-.641-.363-1.457-.587-2.539-.587-1.19 0-2.148.301-3.018.901-.848.547-1.457 1.352-1.802 2.414-.374 1.143-.601 2.347-.601 3.62zM358.854 49.105v-1.023c.159 0 .824.025 1.924.077.533.022 1.352.036 2.304.036.881 0 1.615-.022 2.228-.07 1.042-.057 1.862-.085 2.539-.085 1.227 0 2.199.113 2.842.269.646.23 1.173.553 1.661 1.151.408.601.624 1.277.624 2.103 0 .997-.295 1.896-.896 2.703-.601.836-1.544 1.485-2.84 1.925.179.379.437.773.723 1.091.252.405.363.617.419.72.057.099.119.17.182.213l1.845 2.859c.561.714.83 1.147.873 1.218.601.782.938 1.287 1.116 1.414.097.173.264.232.38.307.136.07.382.113.788.122v1.051c-1.27-.042-2.176-.065-2.731-.065-.669 0-1.324.023-1.956.065 0-.147-.125-.405-.306-.705l-2.619-4.291c-.711-1.252-1.354-2.244-1.881-2.919-.306-.362-.55-.623-.779-.85l.173-.352c.924 0 1.706-.085 2.176-.301.527-.292.93-.657 1.284-1.258.36-.599.493-1.287.493-2.046 0-.729-.145-1.357-.521-1.828-.377-.547-.785-.876-1.329-1.074-.326-.102-.941-.153-1.822-.153-.419 0-.83.04-1.182.052l-.068 2.023c-.057 2.281-.091 3.831-.091 4.585 0 1.213.017 2.536.045 3.905.04 1.691.074 2.658.091 2.867.022.437.022.737.093.891.04.085.108.146.196.146.04.065.164.122.334.162.167.042.601.073 1.434.094v1.051c-1.434-.073-2.828-.104-4.234-.104-1.289 0-2.457.031-3.511.104v-1.051c.904-.043 1.465-.1 1.604-.173l.207-.083c.04-.062.08-.209.113-.346.074-.322.122-.85.15-1.456l.057-3.604v-4.506l-.025-2.604c0-1.001-.042-1.602-.147-1.845l-.153-.182c-.249-.125-.85-.176-1.807-.23zM384.86 48.082v1.077c-.808.009-1.352.048-1.468.094-.195.048-.252.104-.337.167-.085.04-.139.076-.162.182l-.085.762c-.023.27-.04.612-.051 1.199-.04 2.055-.062 3.1-.062 3.296v4.874l.045 2.27c0 .819.051 1.353.153 1.59 0 .145.034.258.133.286.096.046.173.108.388.153.133.048.666.082 1.445.103v1.051c-1.363-.073-2.763-.104-4.273-.104-1.298 0-2.5.031-3.486.104v-1.051c.831-.043 1.29-.077 1.451-.111.142-.039.286-.096.365-.145.065-.017.065-.099.065-.192.028-.107.074-.447.125-1.131.091-1 .136-1.901.136-2.715v-5.106c0-1.652-.012-2.652-.023-3.16-.051-.988-.119-1.648-.187-1.898l-.071-.229c-.068-.07-.193-.13-.292-.176-.181-.048-.68-.091-1.57-.11v-1.077c.986.077 2.188.113 3.514.113 1.495-.003 2.884-.039 4.247-.116zM387.26 65.185v-.578c.079-.051.147-.127.348-.17.315-.213.59-.359.842-.559.116-1.1.145-2.867.145-5.333v-1.98c0-1.097 0-2.642-.034-4.713-.034-1.19-.099-1.904-.201-2.225l-.059-.167c-.063-.052-.193-.113-.306-.156-.162-.04-.649-.136-1.53-.198v-1.023l4.418.113c.499 0 1.505-.028 2.927-.085 1.083-.034 1.896-.048 2.536-.048 1.423 0 2.568.107 3.426.252.856.222 1.652.496 2.31.845.638.394 1.182.893 1.587 1.405.482.511.825 1.071 1.038 1.687.405 1.06.566 2.162.566 3.393 0 1.569-.28 2.93-.847 4.157-.561 1.227-1.397 2.275-2.338 3.083-1.026.802-2.077 1.395-3.279 1.773-1.19.38-2.57.527-4.206.527l-3.613-.104-3.73.104zm4.914-1.491c.717.15 1.479.184 2.134.184 1.117 0 2.097-.102 2.922-.312.624-.218 1.151-.453 1.579-.782.513-.337.918-.785 1.383-1.431.419-.646.726-1.38 1.02-2.281.218-.901.306-1.803.306-2.849 0-.938-.088-1.836-.306-2.691-.294-.862-.632-1.664-1.201-2.271-.553-.646-1.202-1.164-2.063-1.456-.799-.292-2.063-.397-3.698-.397-.635 0-1.357.052-2.075.122-.107 1.146-.159 3.344-.159 6.538v2.822c-.001 2.435.05 4.064.158 4.804zM404.122 65.185v-1.006c.68-.02 1.015-.071 1.173-.119.122-.045.218-.119.329-.182.099-.051.153-.209.269-.34.119-.212.388-.839.819-1.882.212-.481.623-1.505 1.224-2.995l3.194-7.896 1.077-2.794h1.729l5.478 12.81.729 1.644.533 1.153c.068.136.125.271.212.3l.235.159c.125.042.343.076.748.11.077.017.303.031.521.031v1.006l-3.42-.104-4.237.104v-1.006c.933-.009 1.496-.076 1.641-.164.156-.088.162-.153.162-.363 0-.176-.045-.519-.28-.975l-1.009-2.703h-6.303l-.524 1.502c-.431 1.104-.609 1.802-.609 2.103 0 .17.009.3.167.365.17.147.748.235 1.734.235v1.006l-2.789-.104-2.803.105zm5.373-6.615c.734.028 1.635.043 2.59.043.946 0 1.771-.015 2.556-.043l-2.616-6.334-2.53 6.334z"/>
</g>
	<path d="M101.608.822v65.097h2.86v-65.097h-2.86z" id="divider"/>
</svg>