<!-- Created with Inkscape (http://www.inkscape.org/) -->
<svg xmlns:rdf="http://www.w3.org/1999/02/22-rdf-syntax-ns#" xmlns="http://www.w3.org/2000/svg" version="1.1" xmlns:cc="http://creativecommons.org/ns#" xmlns:dc="http://purl.org/dc/elements/1.1/" viewBox="0 0 16 16">
 <metadata>
  <rdf:RDF>
   <cc:Work rdf:about="">
    <dc:format>image/svg+xml</dc:format>
    <dc:type rdf:resource="http://purl.org/dc/dcmitype/StillImage"/>
    <dc:title/>
   </cc:Work>
  </rdf:RDF>
 </metadata>
 <path style="baseline-shift:baseline;block-progression:tb;fill:#000000;color:#000000;direction:ltr;text-indent:0;text-align:start;enable-background:accumulate;text-transform:none;" d="m8.01-0.0027c-4.41,0-8.03,3.58-8.03,7.98,0,4.41,3.62,8.03,8.03,8.03s7.98-3.62,7.98-8.03-3.58-7.98-7.98-7.98zm0,1.94c3.37,0,6.08,2.67,6.08,6.04s-2.71,6.08-6.08,6.08-6.08-2.71-6.08-6.08,2.71-6.04,6.08-6.04z"/>
 <path style="baseline-shift:baseline;block-progression:tb;fill:#000000;color:#000000;direction:ltr;text-indent:0;text-align:start;enable-background:accumulate;text-transform:none;" d="M7,2.91v1,3.09h-3.09-1v2h1,3.09v3.1,1h2v-1-3.1h3.1,1v-2h-1-3.1v-3.09-1h-2z"/>
</svg>
