<?xml version="1.0" encoding="utf-8"?>
<!-- Generator: Adobe Illustrator 15.0.2, SVG Export Plug-In . SVG Version: 6.00 Build 0)  -->
<!DOCTYPE svg PUBLIC "-//W3C//DTD SVG 1.1//EN" "http://www.w3.org/Graphics/SVG/1.1/DTD/svg11.dtd">
<svg version="1.1" id="open-close" xmlns="http://www.w3.org/2000/svg" xmlns:xlink="http://www.w3.org/1999/xlink" x="0px" y="0px"
	 width="14px" height="14px" viewBox="0 0 14 14" style="enable-background:new 0 0 14 14;" xml:space="preserve">
<symbol  id="open-close_1_" viewBox="0 -14 14 14">
	<polygon points="11,-6 8,-6 8,-3 6,-3 6,-6 3,-6 3,-8 6,-8 6,-11 8,-11 8,-8 11,-8 	"/>
	<path d="M7-2c2.757,0,5-2.243,5-5s-2.243-5-5-5S2-9.757,2-7S4.243-2,7-2 M7,0C3.134,0,0-3.134,0-7c0-3.865,3.134-7,7-7s7,3.135,7,7
		C14-3.134,10.866,0,7,0L7,0z"/>
</symbol>
<use xlink:href="#open-close_1_"  width="14" height="14" y="-14" transform="matrix(1 0 0 -1 0 0)" style="overflow:visible;"/>
</svg>
