<?xml version="1.0" encoding="UTF-8" standalone="no"?>
<!-- Created with Inkscape (http://www.inkscape.org/) -->

<svg
   xmlns:dc="http://purl.org/dc/elements/1.1/"
   xmlns:cc="http://creativecommons.org/ns#"
   xmlns:rdf="http://www.w3.org/1999/02/22-rdf-syntax-ns#"
   xmlns:svg="http://www.w3.org/2000/svg"
   xmlns="http://www.w3.org/2000/svg"
   version="1.1"
   width="16"
   height="16"
   id="svg2985">
  <defs
     id="defs2987" />
  <metadata
     id="metadata2990">
    <rdf:RDF>
      <cc:Work
         rdf:about="">
        <dc:format>image/svg+xml</dc:format>
        <dc:type
           rdf:resource="http://purl.org/dc/dcmitype/StillImage" />
        <dc:title></dc:title>
      </cc:Work>
    </rdf:RDF>
  </metadata>
  <g
     id="layer1">
    <path
       d="m 8.0135996,-0.00270321 c -4.4068789,0 -8.0260516,3.57780181 -8.0260516,7.98468021 0,4.406878 3.6191727,8.026052 8.0260516,8.026052 4.4068784,0 7.9846804,-3.619174 7.9846804,-8.026052 0,-4.4068784 -3.577802,-7.98468021 -7.9846804,-7.98468021 z m 0,1.94445581 c 3.3665984,0 6.0815954,2.6736264 6.0815954,6.0402244 0,3.366598 -2.714997,6.081596 -6.0815954,6.081596 -3.366598,0 -6.0815958,-2.714998 -6.0815958,-6.081596 0,-3.366598 2.7149978,-6.0402244 6.0815958,-6.0402244 z"
       id="path3775"
       style="font-size:medium;font-style:normal;font-variant:normal;font-weight:normal;font-stretch:normal;text-indent:0;text-align:start;text-decoration:none;line-height:normal;letter-spacing:normal;word-spacing:normal;text-transform:none;direction:ltr;block-progression:tb;writing-mode:lr-tb;text-anchor:start;baseline-shift:baseline;color:#000000;fill:#000000;fill-opacity:1;stroke:none;stroke-width:1.45396042;marker:none;visibility:visible;display:inline;overflow:visible;enable-background:accumulate;font-family:Sans;-inkscape-font-specification:Sans" />
    <path
       d="m 7,2.90625 0,1 L 7,7 3.90625,7 l -1,0 0,2 1,0 L 7,9 l 0,3.09375 0,1 2,0 0,-1 L 9,9 l 3.09375,0 1,0 0,-2 -1,0 L 9,7 9,3.90625 l 0,-1 -2,0 z"
       id="path3780"
       style="font-size:medium;font-style:normal;font-variant:normal;font-weight:normal;font-stretch:normal;text-indent:0;text-align:start;text-decoration:none;line-height:normal;letter-spacing:normal;word-spacing:normal;text-transform:none;direction:ltr;block-progression:tb;writing-mode:lr-tb;text-anchor:start;baseline-shift:baseline;color:#000000;fill:#000000;fill-opacity:1;stroke:none;stroke-width:2.00002575;marker:none;visibility:visible;display:inline;overflow:visible;enable-background:accumulate;font-family:Sans;-inkscape-font-specification:Sans" />
  </g>
</svg>
