<svg xmlns="http://www.w3.org/2000/svg" xmlns:xlink="http://www.w3.org/1999/xlink" viewBox="0 0 32 32" id="social-icon-twitter">
<symbol id="symbol-twitter" viewBox="-16 -16 32 32">
  <path d="M-16,16v-32h32v32H-16z M6.362,3.262c0.007-0.141,0.01-0.281,0.01-0.424c0-4.338-3.302-9.34-9.34-9.34 c-1.854,0-3.579,0.543-5.032,1.475c0.258-0.031,0.519-0.045,0.783-0.045c1.539,0,2.953,0.523,4.076,1.404 c-1.436,0.025-2.648,0.975-3.065,2.279c0.2-0.039,0.405-0.059,0.617-0.059c0.3,0,0.59,0.039,0.864,0.115 c-1.5,0.301-2.633,1.629-2.633,3.219c0,0.014,0,0.027,0,0.041c0.443-0.246,0.949-0.395,1.487-0.41 C-6.751,2.105-7.33,3.111-7.33,4.25c0,0.602,0.162,1.164,0.444,1.65c1.618-1.986,4.038-3.293,6.766-3.43 c-0.056,0.24-0.085,0.49-0.085,0.748c0,1.813,1.47,3.281,3.283,3.281c0.943,0,1.797-0.398,2.396-1.035 c0.747,0.146,1.45,0.42,2.085,0.795C7.313,5.494,6.793,4.85,6.115,4.445C6.779,4.523,7.412,4.699,8,4.961 C7.561,4.303,7.004,3.725,6.362,3.262z"/></path>
  </symbol>
  <g id="g-twitter">
    <use xlink:href="#symbol-twitter" x="-16" y="-16" transform="matrix(1 0 0 -1 16 16)" style="overflow:visible;"/></use>
  </g>
</svg>
