<?xml version="1.0" encoding="utf-8"?>
<!-- Generator: Adobe Illustrator 15.0.2, SVG Export Plug-In . SVG Version: 6.00 Build 0)  -->
<!DOCTYPE svg PUBLIC "-//W3C//DTD SVG 1.1//EN" "http://www.w3.org/Graphics/SVG/1.1/DTD/svg11.dtd">
<svg version="1.1" xmlns="http://www.w3.org/2000/svg" xmlns:xlink="http://www.w3.org/1999/xlink" x="0px" y="0px" width="32px"
	 height="32px" viewBox="0 0 32 32" style="enable-background:new 0 0 32 32;" xml:space="preserve">
<style type="text/css">
<![CDATA[
	.st0{fill:#2AA9E0;}
	.st1{fill:#36609F;}
	.st2{fill:#066C9A;}
	.st3{display:none;}
]]>
</style>
<symbol  id="facebook_1_" viewBox="-16 -16 32 32">
	<path class="st1" d="M-16,16v-32h32v32H-16z M3.428-0.006H1.186c0-3.584,0-7.994,0-7.994h-3.322c0,0,0,4.367,0,7.994h-1.58v2.824
		h1.58v1.828C-2.137,5.953-1.516,8,1.216,8l2.461-0.01V5.248c0,0-1.496,0-1.786,0c-0.291,0-0.705-0.146-0.705-0.77v-1.66h2.533
		L3.428-0.006z"/>
</symbol>
<symbol  id="linkedin_1_" viewBox="-16 -16 32 32">
	<path class="st2" d="M0.959,1.176v0.033C0.953,1.197,0.944,1.186,0.937,1.176H0.959z"/>
	<path class="st2" d="M-16,16v-32h32v32H-16z M-4.367-7.646h-3.431V2.67h3.431V-7.646z M-6.083,4.078h-0.022
		C-7.256,4.078-8,4.873-8,5.861c0,1.014,0.768,1.785,1.939,1.785c1.174,0,1.896-0.771,1.918-1.785
		C-4.143,4.873-4.887,4.078-6.083,4.078z M8-7.646H4.57v5.52c0,1.387-0.496,2.334-1.738,2.334c-0.946,0-1.512-0.641-1.76-1.256
		C0.981-1.27,0.959-1.576,0.959-1.885v-5.762H-2.47c0,0,0.044,9.35,0,10.316h3.429V1.209C1.416,1.912,2.23,2.912,4.051,2.912
		C6.307,2.912,8,1.438,8-1.732V-7.646z"/>
</symbol>
<symbol  id="twitter_1_" viewBox="-16 -16 32 32">
	<path class="st0" d="M-16,16v-32h32v32H-16z M6.362,3.262c0.007-0.141,0.01-0.281,0.01-0.424c0-4.338-3.302-9.34-9.34-9.34
		c-1.854,0-3.579,0.543-5.032,1.475c0.258-0.031,0.519-0.045,0.783-0.045c1.539,0,2.953,0.523,4.076,1.404
		c-1.436,0.025-2.648,0.975-3.065,2.279c0.2-0.039,0.405-0.059,0.617-0.059c0.3,0,0.59,0.039,0.864,0.115
		c-1.5,0.301-2.633,1.629-2.633,3.219c0,0.014,0,0.027,0,0.041c0.443-0.246,0.949-0.395,1.487-0.41
		C-6.751,2.105-7.33,3.111-7.33,4.25c0,0.602,0.162,1.164,0.444,1.65c1.618-1.986,4.038-3.293,6.766-3.43
		c-0.056,0.24-0.085,0.49-0.085,0.748c0,1.813,1.47,3.281,3.283,3.281c0.943,0,1.797-0.398,2.396-1.035
		c0.747,0.146,1.45,0.42,2.085,0.795C7.313,5.494,6.793,4.85,6.115,4.445C6.779,4.523,7.412,4.699,8,4.961
		C7.561,4.303,7.004,3.725,6.362,3.262z"/>
</symbol>
<g id="facebook" class="st3">
	
		<use xlink:href="#facebook_1_"  width="32" height="32" x="-16" y="-16" transform="matrix(1 0 0 -1 16 16)" style="display:inline;overflow:visible;"/>
</g>
<g id="twitter">
	
		<use xlink:href="#twitter_1_"  width="32" height="32" x="-16" y="-16" transform="matrix(1 0 0 -1 16 16)" style="overflow:visible;"/>
</g>
<g id="linkedin" class="st3">
	
		<use xlink:href="#linkedin_1_"  width="32" height="32" x="-16" y="-16" transform="matrix(1 0 0 -1 16 16)" style="display:inline;overflow:visible;"/>
</g>
</svg>
