<svg version="1.1" xmlns="http://www.w3.org/2000/svg" xmlns:xlink="http://www.w3.org/1999/xlink" viewBox="0 0 32 32" id="social-icon-vimeo">
  <symbol id="symbol-vimeo" viewBox="0 0 32 32">
    <path d="M0,0v32h32V0H0z M23.9,12.4c-0.9,5-5.9,9.3-7.4,10.3s-2.9-0.4-3.4-1.4c-0.6-1.2-2.3-7.6-2.7-8.1
    c-0.4-0.5-1.8,0.5-1.8,0.5L8,12.8c0,0,2.7-3.3,4.8-3.7c2.2-0.4,2.2,3.4,2.7,5.5c0.5,2,0.9,3.2,1.3,3.2c0.4,0,1.3-1.1,2.2-2.9
    c0.9-1.7,0-3.3-1.9-2.2C17.9,8.4,24.8,7.3,23.9,12.4z"/></path>
  </symbol>
  <g id="g-vimeo">
    <use xlink:href="#symbol-vimeo" x="0" y="0" style="overflow:visible;"/></use>
  </g>
</svg>