<svg xmlns="http://www.w3.org/2000/svg" xmlns:xlink="http://www.w3.org/1999/xlink" viewBox="0 0 32 32" id="social-icon-linkedin">
<symbol  id="symbol-linkedin" viewBox="-16 -16 32 32">
  <path d="M0.959,1.176v0.033C0.953,1.197,0.944,1.186,0.937,1.176H0.959z"/></path>
  <path d="M-16,16v-32h32v32H-16z M-4.367-7.646h-3.431V2.67h3.431V-7.646z M-6.083,4.078h-0.022 C-7.256,4.078-8,4.873-8,5.861c0,1.014,0.768,1.785,1.939,1.785c1.174,0,1.896-0.771,1.918-1.785 C-4.143,4.873-4.887,4.078-6.083,4.078z M8-7.646H4.57v5.52c0,1.387-0.496,2.334-1.738,2.334c-0.946,0-1.512-0.641-1.76-1.256 C0.981-1.27,0.959-1.576,0.959-1.885v-5.762H-2.47c0,0,0.044,9.35,0,10.316h3.429V1.209C1.416,1.912,2.23,2.912,4.051,2.912 C6.307,2.912,8,1.438,8-1.732V-7.646z"/></path>
</symbol>
<g id="g-linkedin">
  <use xlink:href="#symbol-linkedin" x="-16" y="-16" transform="matrix(1 0 0 -1 16 16)" style="overflow:visible;"/></use>
</g>
</svg>
