<svg id="circle-monogram" version="1.1" xmlns="http://www.w3.org/2000/svg" xmlns:xlink="http://www.w3.org/1999/xlink" x="0px" y="0px"  viewBox="0 0 230 230" enable-background="new 0 0 230 230" xml:space="preserve">
	<g id="ring">
		<path fill="#CCCCCC" d="M225,115c0,60.767-49.233,110-110,110S5,175.767,5,115S54.233,5,115,5S225,54.233,225,115z"></path>
	</g>
	<g id="bg" fill="#FFFFFF" stroke="#555555" stroke-opacity="0.8" stroke-width="2px">
		<path d="M199.5,115c0,46.672-37.828,84.5-84.5,84.5S30.5,161.672,30.5,115S68.328,30.5,115,30.5S199.5,68.328,199.5,115z"></path>
	</g>
	<g id="letters" fill="#0021A5">
		<polygon points="143.028,147.988 143.028,125.197 164.028,125.199 164.028,110.175 143.028,110.175 143.028,88.888 166.087,88.888 166.087,97.147 181.294,97.147 181.294,73.987 120.401,73.987 120.401,88.888 126.104,88.888 126.104,147.988 120.421,147.988 120.421,163.012 148.526,163.012 148.526,147.988 143.028,147.988"></polygon>
		<path d="M113.287,129.369V88.884h5.626V73.987H90.747v14.897h5.492v35.448c0,14.859-1.718,22.002-12.387,22.002 c-10.67,0-12.387-7.143-12.387-22.002V88.884h5.449V73.987H48.707v14.897h5.587v40.485c0,8.84,0,16.086,4.171,22.594	c4.661,7.367,13.122,12.051,25.388,12.051C105.56,164.014,113.287,152.699,113.287,129.369L113.287,129.369z"></path>
	</g>
</svg>