<?xml-stylesheet type="text/css" href="svg.css" ?><svg xmlns="http://www.w3.org/2000/svg" preserveAspectRatio="xMinYMin meet" viewBox="0 0 194.838 53.874"><g id="timeline"><path d="M4.353 50.47c.3 0 .828.017 1.587.047l.055-.337c-.472-.021-.741-.038-.81-.049-.13-.018-.214-.045-.252-.08-.037-.035-.056-.096-.056-.184l.022-.274c.043-.381.167-1.146.373-2.299l.546-3.072c.078-.446.139-.769.183-.966.621 0 1.204.02 1.75.061.131.007.225.026.28.055l.064.07c.022.059.033.245.033.558l-.011.565h.306l.153-1.122.152-.711-.307.027c-.117.008-.467.015-1.051.022l-1.793.029c-.471 0-1.252-.013-2.344-.039-.292-.008-.562-.021-.806-.039-.015.303-.075.913-.184 1.833h.309c.132-.541.23-.883.295-1.03.041-.087.084-.143.131-.169.065-.04.235-.064.509-.077.591-.021 1.117-.032 1.576-.032-.081.724-.214 1.604-.398 2.639-.271 1.562-.442 2.524-.51 2.887-.135.717-.23 1.114-.281 1.195l-.088.083c-.098.052-.399.092-.901.12l-.026.337c.628-.032 1.126-.048 1.494-.048zm5.276.089l.534-.121.243-1.256c.107-.461.258-.884.454-1.269.196-.386.469-.752.817-1.1.35-.348.68-.602.991-.763.121-.062.236-.093.346-.093l.16.052.055.146-.022.22c-.048.293-.145.748-.292 1.362l-.411 1.758c-.078.315-.116.546-.116.692 0 .161.026.278.082.352.055.073.118.11.186.11l.177-.045c.23-.102.509-.264.838-.483.327-.222.59-.416.787-.584l-.109-.204c-.494.371-.812.556-.951.556l-.101-.046-.041-.129c0-.092.03-.288.093-.588.135-.659.32-1.453.553-2.382.127-.512.205-.831.23-.955l.027-.247c0-.095-.03-.174-.091-.235-.06-.062-.132-.094-.216-.094-.118 0-.285.038-.504.115-.315.113-.625.28-.929.498-.306.22-.607.493-.903.817-.172.187-.404.467-.697.84l-.039-.022.366-2.136.397-2.217.123-.637-.11-.11c-.337.176-.878.331-1.622.462l-.024.23c.402 0 .641.006.715.019l.15.071.042.157-.011.164c-.059.424-.161 1.043-.306 1.858-.146.814-.32 1.674-.523 2.577-.157.72-.356 1.601-.601 2.643l.066.077.187-.06zm8.48-.623c-.262.105-.5.158-.712.158-.238 0-.437-.09-.595-.269-.159-.181-.239-.448-.239-.808 0-.213.034-.506.104-.88l.713-.169c.372-.105.73-.239 1.074-.399.344-.162.613-.335.806-.522.139-.135.248-.295.326-.481.079-.187.119-.375.119-.565 0-.263-.089-.468-.267-.613-.177-.146-.402-.221-.677-.221-.244 0-.498.063-.762.188-.376.175-.73.399-1.063.675-.241.192-.432.415-.57.664-.139.248-.278.621-.417 1.121-.138.499-.208.953-.208 1.366 0 .377.06.668.177.872.119.205.282.355.488.453.207.097.404.146.589.146.285 0 .634-.098 1.045-.291.411-.194.827-.484 1.249-.868l-.073-.215c-.474.333-.843.554-1.107.658zm-.905-3.565c.131-.253.306-.441.522-.569.218-.125.432-.188.644-.188.15 0 .271.049.364.146.093.1.14.242.14.429 0 .221-.076.45-.227.689-.152.24-.396.443-.731.61-.335.166-.737.293-1.204.381.196-.746.361-1.246.492-1.498zm7.849 4.109l.341-.011 1.458.047.038-.32c-.449-.037-.714-.062-.795-.077-.134-.019-.227-.054-.279-.107-.052-.053-.078-.136-.078-.249 0-.216.137-1.09.408-2.621.306-.021.604-.031.894-.031.351 0 .675.007.972.021l.945.04.105-.273.127-.285-.055-.061c-.545.051-.874.077-.987.08-.198.015-.399.022-.608.022l-1.251-.016c.028-.216.148-.936.357-2.158.082-.493.164-.91.244-1.249.271-.021.533-.032.786-.032.766 0 1.344.058 1.737.171l.039.358.061.725h.289c.029-.483.057-.819.082-1.009.023-.189.061-.411.113-.668-.256-.026-.541-.039-.855-.039l-2.371.055c-.208 0-.652-.012-1.333-.036l-.455-.025-.044.336c.365.015.609.031.732.05.123.019.208.049.252.093.046.043.069.11.069.197 0 .215-.063.647-.188 1.293l-.617 3.342c-.211 1.125-.349 1.75-.41 1.874l-.114.126c-.102.062-.339.114-.711.154l-.043.32 1.145-.037zm6.338-.256c.263.284.613.427 1.053.427.363 0 .725-.099 1.089-.295.364-.195.662-.433.892-.71.23-.275.437-.638.615-1.084.223-.565.334-1.13.334-1.694 0-.425-.064-.76-.197-1.004-.131-.243-.315-.423-.554-.539-.239-.115-.488-.173-.752-.173-.286 0-.581.067-.889.201-.307.133-.584.312-.829.532-.245.223-.451.479-.62.768-.167.29-.3.632-.395 1.025-.095.395-.144.816-.144 1.269 0 .567.133.993.397 1.277zm.899-3.727c.282-.631.688-.946 1.215-.946.329 0 .579.12.746.36.169.24.253.59.253 1.048 0 .36-.039.766-.115 1.22-.076.453-.199.848-.369 1.182-.171.334-.342.562-.518.687-.174.126-.379.188-.617.188-.216 0-.4-.049-.557-.144-.154-.096-.271-.234-.349-.419-.076-.183-.115-.451-.115-.804 0-.949.143-1.74.426-2.372zm5.614-.561l.103.044.039.13c0 .102-.029.312-.088.63-.091.492-.241 1.161-.45 2.007-.143.573-.214 1.002-.214 1.285 0 .212.04.368.122.469.081.1.175.15.283.15.082 0 .177-.024.285-.071.336-.15.69-.379 1.063-.688.373-.309.705-.631.995-.967.078-.091.312-.404.709-.936l.033.016-.221.964c-.119.503-.195.841-.227 1.012l-.025.274c0 .123.029.22.084.287.059.066.121.101.19.101.104 0 .253-.053.443-.157.259-.147.698-.471 1.317-.971l-.119-.212c-.361.276-.587.438-.672.485l-.206.072-.126-.061-.049-.198.027-.36c.048-.247.138-.676.27-1.286.133-.609.246-1.173.34-1.69l.192-.99-.083-.082c-.312.102-.505.16-.578.175-.129.646-.258 1.159-.389 1.539-.131.379-.284.701-.458.964-.29.441-.609.833-.956 1.174-.348.342-.662.583-.945.726-.107.056-.196.082-.267.082l-.124-.057-.049-.184c0-.365.255-1.585.768-3.66.059-.241.088-.403.088-.488 0-.091-.022-.163-.068-.216-.045-.052-.104-.08-.173-.08-.119 0-.294.063-.519.188-.547.303-.988.581-1.324.832l.109.22c.461-.317.749-.472.87-.472zm7.004 4.5c.113-.651.196-1.081.25-1.289.154-.556.331-1.011.533-1.363.201-.352.454-.685.758-.997.305-.312.598-.544.879-.693.172-.095.319-.143.44-.143.065 0 .118.021.153.063.037.041.055.117.055.228 0 .23-.135.862-.406 1.894-.22.854-.355 1.419-.412 1.697-.027.161-.043.297-.043.406 0 .139.029.242.09.311.062.067.143.102.244.102l.22-.045c.171-.064.432-.212.787-.438.198-.132.453-.323.767-.576l-.096-.218c-.212.164-.445.319-.698.462-.12.062-.208.093-.265.093l-.107-.046-.041-.157c0-.23.171-.998.514-2.305.253-.978.379-1.594.379-1.846 0-.118-.03-.207-.09-.268-.06-.062-.141-.094-.238-.094-.162 0-.406.075-.734.225-.458.209-.896.514-1.312.914-.418.399-.783.858-1.103 1.378l-.038-.012.246-1.015c.111-.443.18-.744.209-.906l.021-.258c0-.105-.026-.192-.082-.263-.045-.047-.104-.071-.18-.071l-.165.028c-.103.029-.262.103-.479.223-.217.122-.424.251-.621.39l-.508.378.075.22.467-.282c.146-.078.267-.134.364-.167l.148-.021.118.046.041.167c0 .246-.091.763-.275 1.553-.243 1.076-.45 2.002-.62 2.777l.064.094c.222-.074.453-.133.691-.176zm9.981-.687c-.116.073-.207.11-.273.11l-.114-.058c-.03-.039-.044-.106-.044-.207l.021-.317c.055-.369.178-1.013.371-1.931.391-1.859.629-3.021.718-3.48.142-.721.241-1.189.3-1.41l-.137-.108c-.281.156-.521.266-.713.325-.193.059-.516.116-.965.176l-.026.227.536.006c.139 0 .231.021.277.065.045.043.068.121.068.235 0 .071-.03.255-.09.55l-.283 1.367c-.417-.088-.717-.133-.9-.133-.229 0-.441.043-.636.127-.397.18-.753.412-1.062.697-.198.182-.373.423-.527.719-.2.388-.364.846-.491 1.374-.126.529-.188 1.007-.188 1.435 0 .312.048.574.142.787.096.215.217.322.363.322.145 0 .337-.064.575-.192.377-.205.76-.511 1.15-.917s.724-.844.997-1.312l.027.007c-.201.88-.313 1.39-.337 1.532-.024.14-.036.269-.036.386 0 .175.027.3.082.376.055.074.114.112.182.112.061 0 .149-.026.262-.077.205-.087.449-.234.732-.438.284-.204.533-.403.748-.598l-.104-.204c-.172.151-.381.3-.625.447zm-.811-2.393c-.125.361-.29.699-.496 1.015-.206.313-.438.592-.695.833-.258.242-.527.431-.809.571-.105.051-.204.075-.295.075l-.129-.038-.085-.143s-.033-.186-.033-.35c0-.437.06-.911.181-1.427.073-.313.181-.67.32-1.068.141-.398.258-.659.352-.781.094-.123.199-.21.32-.261.172-.076.391-.115.658-.115.365 0 .717.09 1.057.27-.143.69-.258 1.165-.346 1.419zm6.59 2.425c-.094.047-.169.069-.228.069l-.104-.038-.043-.171.01-.147c.051-.308.121-.631.209-.972.051-.216.146-.539.286-.971.177-.721.383-1.485.616-2.294l-.121-.1-.359.206c-.225-.08-.409-.133-.553-.158-.145-.025-.298-.04-.463-.04-.24 0-.459.036-.658.105-.291.105-.619.296-.982.565-.221.165-.391.364-.51.6-.24.465-.447 1.013-.621 1.642-.174.631-.26 1.18-.26 1.648 0 .367.051.626.153.78.06.095.142.144.245.144l.204-.045c.249-.108.526-.288.832-.537s.606-.544.901-.886c.163-.183.387-.469.672-.856l.029.016c-.239.904-.359 1.55-.359 1.938 0 .102.029.188.088.258.06.069.119.104.182.104l.135-.038c.146-.064.342-.191.587-.377l.779-.635-.061-.233c-.31.234-.512.376-.606.423zm-.732-2.121c-.209.461-.475.873-.797 1.235-.324.363-.631.642-.924.837-.148.095-.258.143-.33.143l-.097-.036-.077-.106-.025-.221c0-.566.11-1.225.33-1.973.14-.479.307-.914.5-1.302.096-.194.183-.314.264-.363.17-.105.42-.159.752-.159.17 0 .334.017.488.048.157.03.305.078.446.145-.146.706-.322 1.291-.53 1.752zm4.993 1.956c-.161.109-.294.187-.401.23l-.148.028-.146-.063s-.061-.104-.061-.189l.027-.307c.043-.329.135-.859.275-1.588.14-.73.243-1.246.309-1.551.637.021 1.032.031 1.188.031l.131-.535-.057-.044c-.152.044-.41.066-.771.066l-.395-.011c.149-.741.24-1.177.27-1.305l.235-.947-.136-.099-.377.192-.469.203c-.092.679-.149 1.094-.174 1.242l-.123.649-.377.177-.607.238-.028.167.938-.023c-.177.951-.307 1.625-.393 2.023l-.248 1.124-.076.452-.023.299c0 .204.035.351.105.44.069.089.152.135.248.135.08 0 .163-.019.247-.056.153-.064.395-.214.724-.443.328-.231.658-.48.988-.746l-.127-.197-.548.408zm4.075-5.952c.085.088.191.132.32.132.183 0 .33-.078.439-.238.109-.158.164-.334.164-.523 0-.14-.037-.248-.111-.327-.076-.077-.178-.116-.306-.116-.165 0-.312.069-.439.21-.128.142-.192.313-.192.519 0 .141.041.255.125.343zm-.809 2.34l.159-.038.084.041.029.156c0 .365-.212 1.315-.638 2.849-.103.373-.167.63-.193.773-.024.142-.037.271-.037.389 0 .149.035.268.106.35.071.084.153.127.244.127.095 0 .214-.037.356-.109.301-.154.746-.456 1.34-.91l-.11-.218c-.296.217-.501.353-.612.406-.11.053-.203.079-.275.079l-.113-.053-.041-.168c0-.266.198-1.14.593-2.618.153-.582.253-.982.302-1.202l.037-.263c0-.133-.023-.232-.076-.302-.035-.047-.088-.07-.157-.07-.124 0-.296.053-.515.158-.219.106-.65.386-1.295.835l.094.221.718-.433zm3.237 4.22c.264.284.613.427 1.053.427.362 0 .727-.099 1.091-.295.362-.195.659-.433.891-.71.23-.275.435-.638.615-1.084.222-.565.335-1.13.335-1.694 0-.425-.066-.76-.198-1.004-.132-.243-.317-.423-.554-.539-.238-.115-.488-.173-.752-.173-.285 0-.582.067-.889.201-.309.133-.584.312-.829.532-.245.223-.451.479-.62.768-.168.29-.301.632-.395 1.025-.096.395-.143.816-.143 1.269 0 .567.131.993.395 1.277zm.9-3.727c.283-.631.688-.946 1.215-.946.33 0 .578.12.746.36.169.24.254.59.254 1.048 0 .36-.04.766-.116 1.22-.077.453-.2.848-.371 1.182s-.342.562-.515.687c-.175.126-.381.188-.618.188-.216 0-.402-.049-.558-.144-.155-.096-.271-.234-.348-.419-.076-.183-.115-.451-.115-.804 0-.949.141-1.74.426-2.372zm5.643 3.939c.113-.651.196-1.081.25-1.289.154-.556.332-1.011.533-1.363.201-.352.455-.685.758-.997.305-.312.597-.544.88-.693.171-.095.318-.143.438-.143.066 0 .117.021.154.063.037.041.055.117.055.228 0 .23-.135.862-.406 1.894-.22.854-.357 1.419-.412 1.697-.029.161-.043.297-.043.406 0 .139.029.242.09.311.061.067.142.102.244.102l.221-.045c.168-.064.431-.212.787-.438.197-.132.453-.323.765-.576l-.093-.218c-.214.164-.447.319-.7.462-.122.062-.21.093-.265.093l-.107-.046-.041-.157c0-.23.171-.998.515-2.305.253-.978.379-1.594.379-1.846 0-.118-.031-.207-.092-.268-.06-.062-.14-.094-.238-.094-.16 0-.406.075-.735.225-.457.209-.894.514-1.311.914-.416.399-.785.858-1.103 1.378l-.039-.012.247-1.015c.109-.443.18-.744.208-.906l.022-.258c0-.105-.027-.192-.082-.263-.043-.047-.104-.071-.18-.071l-.165.028c-.103.029-.263.103-.479.223-.217.122-.424.251-.621.39l-.51.378.077.22.466-.282c.146-.078.269-.134.366-.167l.147-.021.117.046.042.167c0 .246-.093.763-.275 1.553-.243 1.076-.45 2.002-.62 2.777l.062.094c.224-.074.455-.133.694-.176zm9.6-4.163l.43.006-.458 2.736c-.178 1.052-.36 1.923-.543 2.615-.106.411-.213.695-.322.852-.109.157-.222.269-.335.33-.112.062-.233.094-.361.094-.217 0-.403-.103-.565-.308l-.136.032c-.048.234-.134.532-.259.893.143.068.272.104.389.104.187 0 .377-.051.571-.153.312-.162.608-.405.892-.729.283-.326.512-.702.683-1.128.171-.427.377-1.186.614-2.275l.652-3.062.606-.011.548.016c.045-.193.107-.408.192-.644l-.049-.066c-.132.041-.26.068-.384.082-.074.008-.343.017-.807.028.066-.352.158-.807.279-1.365.084-.405.163-.676.235-.811.072-.136.169-.241.287-.318.118-.076.265-.115.436-.115.153 0 .3.037.44.11s.258.174.349.302l.12-.039c.062-.212.167-.516.312-.914-.248-.099-.486-.147-.713-.147-.169 0-.32.028-.451.087-.193.089-.471.272-.832.555-.359.282-.6.495-.719.642s-.203.305-.25.478c-.021.08-.125.565-.307 1.459-.194.123-.515.267-.963.432l-.049.246.468-.014zm3.568 3.951c.262.284.614.427 1.053.427.363 0 .726-.099 1.089-.295.364-.195.661-.433.892-.71.23-.275.436-.638.614-1.084.224-.565.335-1.13.335-1.694 0-.425-.065-.76-.197-1.004-.132-.243-.316-.423-.555-.539-.236-.115-.487-.173-.752-.173-.283 0-.58.067-.889.201-.307.133-.583.312-.828.532-.245.223-.451.479-.619.768-.17.29-.301.632-.396 1.025-.095.395-.142.816-.142 1.269 0 .567.131.993.395 1.277zm.899-3.727c.282-.631.688-.946 1.215-.946.33 0 .579.12.747.36s.253.59.253 1.048c0 .36-.04.766-.116 1.22-.076.453-.2.848-.371 1.182-.169.334-.342.562-.515.687-.175.126-.38.188-.618.188-.215 0-.402-.049-.557-.144-.156-.096-.271-.234-.349-.419-.077-.183-.115-.451-.115-.804 0-.949.142-1.74.426-2.372zm5.604 3.946c.187-.906.323-1.509.41-1.808.157-.552.364-1.021.622-1.41s.508-.663.748-.824c.15-.103.287-.154.412-.154.136 0 .258.074.367.22l.148-.032c.062-.487.125-.894.188-1.214-.08-.04-.153-.062-.219-.062-.125 0-.252.04-.384.116-.134.077-.323.264-.571.563-.395.476-.787 1.05-1.174 1.726.133-.601.241-1.129.321-1.59.052-.261.077-.439.077-.538 0-.092-.02-.158-.062-.202-.04-.044-.093-.067-.159-.067-.125 0-.315.071-.573.209-.369.198-.803.501-1.298.911l.133.181c.498-.359.809-.54.934-.54l.09.044c.029.04.044.108.044.202 0 .137-.026.381-.077.736-.092.615-.229 1.319-.412 2.112-.094.405-.232.917-.416 1.536l.1.076c.171-.054.421-.118.751-.191zm9.624.027c.3 0 .829.017 1.589.047l.055-.337c-.472-.021-.742-.038-.809-.049-.133-.018-.217-.045-.253-.08-.037-.035-.056-.096-.056-.184l.021-.274c.045-.381.168-1.146.374-2.299l.546-3.072c.079-.446.141-.769.185-.966.62 0 1.203.02 1.75.061.132.007.225.026.278.055l.066.07c.022.059.033.245.033.558l-.011.565h.305l.154-1.122.151-.711-.307.027c-.116.008-.467.015-1.052.022l-1.796.028c-.471 0-1.254-.013-2.345-.039-.291-.008-.561-.021-.805-.039-.015.303-.076.913-.184 1.833h.308c.131-.541.23-.883.295-1.03.042-.087.085-.143.132-.169.066-.04.235-.064.509-.077.592-.021 1.116-.032 1.576-.032-.08.724-.213 1.604-.397 2.639-.271 1.562-.442 2.524-.511 2.887-.135.717-.229 1.114-.28 1.195l-.088.083c-.1.052-.399.092-.9.12l-.028.337c.629-.031 1.126-.047 1.495-.047zm5.277.089l.534-.121.243-1.256c.106-.461.256-.884.453-1.269.195-.386.468-.752.817-1.1.349-.348.68-.602.99-.763.12-.062.235-.093.346-.093l.16.052.054.146-.022.22c-.047.293-.144.748-.292 1.362l-.412 1.758c-.076.315-.114.546-.114.692 0 .161.026.278.082.352.055.073.116.11.187.11l.176-.045c.231-.102.509-.264.837-.483.328-.222.592-.416.789-.584l-.109-.204c-.494.371-.811.556-.95.556l-.102-.046-.041-.129c0-.092.031-.288.094-.588.136-.659.319-1.453.554-2.382.127-.512.204-.831.229-.955l.028-.247c0-.095-.031-.174-.091-.235-.06-.062-.132-.094-.216-.094-.118 0-.286.038-.505.115-.314.113-.624.28-.931.498-.305.22-.605.493-.901.817-.172.187-.404.467-.696.84l-.038-.022.364-2.136.399-2.217.12-.637-.108-.11c-.338.176-.879.331-1.623.462l-.024.229c.403 0 .643.006.716.019l.151.071.041.157-.011.164c-.061.424-.162 1.043-.307 1.858-.146.814-.319 1.674-.522 2.577-.156.72-.356 1.601-.601 2.643l.066.077.186-.059zm8.48-.623c-.264.105-.5.158-.713.158-.238 0-.437-.09-.596-.269-.158-.181-.237-.448-.237-.808 0-.213.034-.506.103-.88l.713-.169c.373-.105.731-.239 1.075-.399.343-.162.612-.335.805-.522.14-.135.248-.295.327-.481.078-.187.117-.375.117-.565 0-.263-.088-.468-.266-.613-.178-.146-.403-.221-.677-.221-.245 0-.5.063-.762.188-.377.175-.73.399-1.063.675-.241.192-.432.415-.57.664-.139.248-.278.621-.417 1.121-.139.499-.208.953-.208 1.366 0 .377.059.668.178.872.12.205.282.355.488.453.207.097.404.146.59.146.285 0 .634-.098 1.045-.291.411-.194.827-.484 1.247-.868l-.071-.215c-.475.333-.844.554-1.108.658zm-.905-3.565c.131-.253.305-.441.522-.569.218-.125.432-.188.644-.188.149 0 .27.049.364.146.093.1.139.242.139.429 0 .221-.075.45-.227.689-.152.24-.396.443-.73.61-.336.166-.738.293-1.206.381.198-.746.362-1.246.494-1.498zm13.43 3.451c0-.103.017-.276.05-.523.033-.246.071-.478.115-.692l.065-.312c.04-.183.072-.293.096-.331l.129-.101c.062-.029.22-.067.473-.111l.021-.329c-.701.032-1.127.048-1.276.048-.24 0-.762-.016-1.561-.048l-.05.329c.652.044 1.033.084 1.145.119s.167.122.167.26c0 .107-.027.315-.083.627l-.201 1.076c-.414.237-.939.354-1.575.354-.908 0-1.594-.256-2.056-.768-.463-.513-.695-1.242-.695-2.189 0-.399.038-.775.113-1.13.075-.355.196-.728.364-1.117s.388-.725.658-1.005c.272-.279.583-.484.933-.614.348-.13.758-.195 1.229-.195.409 0 .791.054 1.147.16.355.106.627.235.812.391.022.262.035.59.039.98l.321.028c.068-.655.181-1.214.337-1.675-.369-.154-.743-.269-1.121-.344-.378-.074-.763-.111-1.153-.111-.603 0-1.127.083-1.572.249-.445.167-.854.388-1.225.664-.371.276-.684.583-.938.918-.253.333-.461.724-.621 1.171-.213.596-.318 1.213-.318 1.85 0 .618.107 1.162.324 1.63.127.274.314.534.562.78.248.244.58.446 1.002.605.42.159.936.239 1.547.239.321 0 .613-.026.877-.077s.673-.169 1.229-.356c.31-.105.537-.168.679-.187l.049-.082-.038-.181zm5.888-.041c-.093.047-.169.069-.228.069l-.104-.038-.045-.171.012-.147c.051-.308.12-.631.209-.972.051-.216.146-.539.285-.971.178-.721.384-1.485.616-2.294l-.121-.1-.358.206c-.226-.08-.409-.133-.554-.158-.144-.025-.299-.04-.462-.04-.24 0-.459.036-.657.105-.293.105-.619.296-.982.565-.222.165-.391.364-.512.6-.239.465-.446 1.013-.62 1.642-.174.631-.261 1.18-.261 1.648 0 .367.051.626.153.78.062.095.143.144.244.144l.205-.045c.25-.108.528-.288.833-.537.306-.249.605-.544.901-.886.163-.183.386-.469.671-.856l.03.016c-.24.904-.36 1.55-.36 1.938 0 .102.03.188.088.258.06.069.12.104.184.104l.134-.038c.146-.064.341-.191.588-.377l.778-.635-.061-.233c-.309.234-.512.376-.606.423zm-.732-2.121c-.208.461-.474.873-.797 1.235-.323.363-.631.642-.924.837-.147.095-.257.143-.329.143l-.099-.036-.075-.106-.026-.221c0-.566.11-1.225.331-1.973.14-.479.307-.914.501-1.302.095-.194.182-.314.262-.363.17-.105.421-.159.752-.159.17 0 .334.017.49.048.156.03.304.078.444.145-.144.706-.32 1.291-.53 1.752zm4.993 1.956c-.16.109-.294.187-.4.23l-.147.028-.147-.063c-.041-.042-.062-.104-.062-.189l.027-.307c.045-.329.136-.859.276-1.588.141-.73.242-1.246.309-1.551.637.021 1.032.031 1.186.031l.132-.535-.055-.044c-.152.044-.411.066-.772.066l-.396-.011.27-1.305.235-.947-.134-.099-.378.192-.469.203c-.091.679-.149 1.094-.175 1.242l-.122.649-.377.177-.607.238-.028.164.938-.023c-.177.951-.307 1.625-.391 2.023l-.249 1.124-.077.452-.022.299c0 .204.035.351.104.44.069.089.152.135.248.135.081 0 .163-.019.248-.056.153-.064.395-.214.724-.443.327-.231.657-.48.987-.746l-.126-.197-.55.411zm2.653.608c.264.284.615.427 1.054.427.362 0 .726-.099 1.089-.295.364-.195.662-.433.892-.71.23-.275.437-.638.614-1.084.225-.565.335-1.13.335-1.694 0-.425-.064-.76-.197-1.004-.132-.243-.315-.423-.554-.539-.238-.115-.488-.173-.752-.173-.285 0-.582.067-.889.201-.307.133-.584.312-.829.532-.245.223-.452.479-.62.768-.169.29-.3.632-.395 1.025-.096.395-.144.816-.144 1.269.001.567.134.993.396 1.277zm.901-3.727c.283-.631.688-.946 1.216-.946.328 0 .577.12.745.36s.254.59.254 1.048c0 .36-.038.766-.116 1.22-.077.453-.2.848-.37 1.182s-.342.562-.516.687c-.174.126-.38.188-.618.188-.215 0-.401-.049-.557-.144-.155-.096-.271-.234-.349-.419-.077-.183-.115-.451-.115-.804 0-.949.143-1.74.426-2.372zm5.604 3.946c.185-.906.321-1.509.41-1.808.155-.552.363-1.021.621-1.41.259-.389.509-.663.748-.824.151-.103.288-.154.413-.154.135 0 .257.074.367.22l.147-.032c.062-.487.125-.894.188-1.214-.08-.04-.153-.062-.219-.062-.125 0-.252.04-.384.116-.133.077-.322.264-.571.563-.396.476-.787 1.05-1.175 1.726.136-.601.243-1.129.322-1.59.052-.261.076-.439.076-.538 0-.092-.02-.158-.06-.202-.041-.044-.094-.067-.159-.067-.126 0-.315.071-.573.209-.371.198-.804.501-1.299.911l.133.181c.497-.359.81-.54.936-.54l.088.044c.029.04.044.108.044.202 0 .137-.025.381-.076.736-.093.615-.229 1.319-.412 2.112-.096.405-.233.917-.417 1.536l.101.076c.171-.054.422-.118.751-.191zm8.195.027c.201 0 .593.017 1.176.047l.011-.32-.23-.012c-.278-.004-.452-.017-.525-.041-.074-.023-.127-.06-.16-.11-.031-.049-.049-.126-.049-.232l.019-.253c.021-.189.072-.528.157-1.015l.235-1.383.543-2.959 3.116 5.27.378.659.258.499h.559c.121-1.01.356-2.438.704-4.288l.368-2.003c.112-.639.188-.993.232-1.063l.105-.099c.078-.044.326-.076.743-.099l.028-.297c-.344.01-.721.015-1.131.015-.442 0-.875-.005-1.296-.015v.297c.43.033.681.062.757.088.101.036.149.113.149.231l-.049.433c-.073.544-.162 1.113-.264 1.705l-.651 3.797-3.072-5.188-.389-.693-.362-.67c-.268.02-.544.031-.829.031-.282 0-.614-.012-.995-.031v.297c.322.015.539.037.646.066.108.028.202.076.281.142.078.067.183.198.315.396-.065.505-.272 1.711-.622 3.621-.241 1.532-.4 2.406-.478 2.617-.044.099-.101.169-.171.209-.069.04-.294.065-.675.077v.32c.571-.03.96-.046 1.168-.046zm12.02-.689c-.094.047-.169.069-.229.069l-.104-.038-.044-.171.011-.147c.051-.308.121-.631.209-.972.051-.216.145-.539.285-.971.178-.721.384-1.485.615-2.294l-.119-.1-.359.206c-.224-.08-.409-.133-.553-.158-.146-.025-.299-.04-.463-.04-.24 0-.459.036-.657.105-.292.105-.62.296-.983.565-.22.165-.391.364-.51.6-.24.465-.445 1.013-.621 1.642-.174.631-.261 1.18-.261 1.648 0 .367.052.626.154.78.06.095.141.144.244.144l.204-.045c.25-.108.527-.288.832-.537.307-.249.606-.544.902-.886.163-.183.387-.469.67-.856l.032.016c-.241.904-.36 1.55-.36 1.938 0 .102.029.188.088.258.06.069.119.104.182.104l.136-.038c.145-.064.341-.191.586-.377l.779-.635-.061-.233c-.309.234-.511.376-.605.423zm-.732-2.121c-.209.461-.476.873-.799 1.235-.322.363-.629.642-.922.837-.148.095-.259.143-.331.143l-.096-.036-.077-.106-.025-.221c0-.566.109-1.225.329-1.973.141-.479.308-.914.502-1.302.095-.194.182-.314.261-.363.172-.105.423-.159.752-.159.172 0 .335.017.491.048.155.03.304.078.444.145-.144.706-.321 1.291-.529 1.752zm4.993 1.956c-.161.109-.294.187-.4.23l-.149.028-.146-.063c-.041-.042-.062-.104-.062-.189l.028-.307c.043-.329.135-.859.276-1.588.139-.73.242-1.246.307-1.551.638.021 1.033.031 1.188.031l.132-.535-.056-.044c-.153.044-.411.066-.772.066l-.395-.011c.149-.741.238-1.177.269-1.305l.235-.947-.134-.099-.378.192-.47.203c-.091.679-.149 1.094-.173 1.242l-.123.649-.376.177-.609.238-.027.167.937-.023c-.176.951-.307 1.625-.392 2.023l-.248 1.124-.076.452-.023.299c0 .204.035.351.105.44.069.089.152.135.247.135.081 0 .164-.019.248-.056.152-.064.395-.214.724-.443.328-.231.657-.48.988-.746l-.127-.197-.548.408zm4.076-5.952c.084.088.19.132.319.132.183 0 .329-.078.439-.238.109-.158.164-.334.164-.523 0-.14-.037-.248-.111-.327-.075-.077-.179-.116-.307-.116-.164 0-.311.069-.438.21-.128.142-.193.313-.193.519 0 .141.042.255.127.343zm-.808 2.34l.158-.038.084.041.029.156c0 .365-.213 1.315-.638 2.849-.103.373-.167.63-.193.773-.024.142-.038.271-.038.389 0 .149.036.268.107.35.071.084.153.127.244.127.095 0 .214-.037.356-.109.301-.154.746-.456 1.34-.91l-.11-.218c-.296.217-.5.353-.612.406-.11.053-.203.079-.275.079l-.114-.053-.041-.168c0-.266.198-1.14.594-2.618.153-.582.254-.982.302-1.202l.038-.263c0-.133-.025-.232-.076-.302-.036-.047-.09-.07-.159-.07-.123 0-.295.053-.514.158-.219.106-.65.386-1.296.835l.094.221.72-.433zm3.234 4.22c.265.284.615.427 1.054.427.362 0 .726-.099 1.09-.295.363-.195.661-.433.892-.71.229-.275.435-.638.615-1.084.222-.565.334-1.13.334-1.694 0-.425-.065-.76-.198-1.004-.131-.243-.316-.423-.553-.539-.238-.115-.489-.173-.752-.173-.286 0-.582.067-.891.201-.306.133-.583.312-.827.532-.245.223-.452.479-.62.768-.168.29-.301.632-.396 1.025-.095.395-.143.816-.143 1.269 0 .567.132.993.395 1.277zm.901-3.727c.282-.631.688-.946 1.215-.946.329 0 .578.12.746.36s.252.59.252 1.048c0 .36-.038.766-.115 1.22-.076.453-.199.848-.37 1.182-.17.334-.342.562-.516.687-.174.126-.379.188-.617.188-.216 0-.402-.049-.557-.144-.156-.096-.272-.234-.35-.419-.077-.183-.115-.451-.115-.804.001-.949.143-1.74.427-2.372zm5.644 3.939c.112-.651.195-1.081.249-1.289.154-.556.332-1.011.533-1.363.2-.352.454-.685.759-.997.303-.312.596-.544.879-.693.171-.095.317-.143.438-.143.066 0 .117.021.154.063.037.041.055.117.055.228 0 .23-.136.862-.406 1.894-.22.854-.356 1.419-.411 1.697-.03.161-.045.297-.045.406 0 .139.029.242.092.311.06.067.141.102.243.102l.22-.045c.169-.064.431-.212.788-.438.197-.132.453-.323.765-.576l-.094-.218c-.213.164-.446.319-.699.462-.121.062-.21.093-.265.093l-.107-.046-.042-.157c0-.23.171-.998.516-2.305.252-.978.378-1.594.378-1.846 0-.118-.03-.207-.091-.268-.06-.062-.14-.094-.238-.094-.161 0-.406.075-.735.225-.457.209-.894.514-1.311.914-.417.399-.784.858-1.104 1.378l-.038-.012.246-1.015c.111-.443.181-.744.209-.906l.022-.258c0-.105-.027-.192-.082-.263-.044-.047-.104-.071-.181-.071l-.164.028c-.103.029-.263.103-.479.223-.217.122-.424.251-.621.39l-.509.378.076.22.466-.282c.146-.078.269-.134.366-.167l.146-.021.118.046.042.167c0 .246-.092.763-.275 1.553-.243 1.076-.45 2.002-.62 2.777l.063.094c.223-.074.455-.133.694-.176z"/></g><g id="florida"><path d="M76.061 21.054h-1.328c-.02.895-.075 1.469-.165 1.721-.062.191-.156.307-.287.346-.342.121-1.165.184-2.472.184-.452 0-1.321-.037-2.607-.107v-2.105c0-2.617.057-4.426.172-5.43.282-.018.814-.041 1.594-.068.781-.027 1.258-.041 1.43-.041.886 0 1.658.059 2.318.174s1.082.232 1.263.354c.06.029.105.08.136.148.04.092.07.355.091.797.05.842.075 1.381.075 1.621h1.234c.011-.666.056-1.443.136-2.33.081-.889.176-1.621.286-2.197l-.137-.211c-.908-.102-1.871-.152-2.892-.152l-7.282.141-5.377-.109v1.266c.977.061 1.573.117 1.792.168.218.051.361.104.427.158.066.057.114.139.146.25.091.324.147.875.167 1.652.094 2.688.141 4.104.141 4.244v6.272c0 .535-.025 1.416-.078 2.643-.052 1.229-.094 1.959-.123 2.191-.051.402-.123.666-.215.787-.061.082-.137.137-.228.168-.183.07-.858.115-2.028.135v1.25c1.862-.072 3.223-.109 4.082-.109l5.949.109v-1.203c-1.402-.1-2.195-.184-2.376-.248-.183-.066-.308-.154-.379-.266-.101-.16-.181-.723-.237-1.686s-.086-2.639-.086-5.027v-1.68l1.206-.016c1.606 0 2.783.066 3.526.197.291.061.473.156.543.287.141.262.226 1.023.256 2.281h1.328l-.001-6.559zm8.426 13.781c.655 0 1.815.02 3.479.061 2.188.053 3.375.078 3.556.078 1.291 0 2.243-.025 2.86-.078.291-.031.584-.088.877-.172.01-.191.056-.766.137-1.725l.38-3.057.046-.5h-1.25c-.191.994-.389 1.877-.591 2.646-.091.305-.177.492-.257.562-.082.072-.329.137-.743.197-1.142.178-2.479.266-4.015.266-.504 0-1.455-.035-2.848-.107-.011-.305-.02-1.164-.023-2.582-.006-1.418-.014-2.848-.023-4.291l-.016-4.373c0-1.697.023-3.1.07-4.209s.096-1.732.146-1.869c.05-.137.131-.234.242-.295.252-.131.947-.223 2.088-.273v-1.328c-1.645.074-3.385.109-5.221.109-1.645 0-3.107-.035-4.389-.109v1.328c1.316.051 2.09.152 2.323.305.11.061.187.15.228.271.092.273.154 1.357.188 3.256.019.748.026 2.715.026 5.906 0 2.17-.021 4.031-.062 5.58-.042 1.551-.088 2.451-.139 2.703l-.074.168c-.061.08-.196.18-.407.301-.472.283-.838.48-1.099.592v.777c2.019-.091 3.522-.138 4.511-.138zm13.058-4.205c.928 1.605 2.205 2.818 3.836 3.641 1.627.824 3.576 1.236 5.847 1.236 2.098 0 3.964-.34 5.598-1.016 1.19-.506 2.252-1.227 3.186-2.166.933-.938 1.642-2.014 2.126-3.225.655-1.625.982-3.387.982-5.285 0-1.121-.113-2.145-.34-3.074-.227-.928-.562-1.781-1.006-2.559s-1.092-1.537-1.945-2.279c-.852-.742-1.833-1.311-2.941-1.703-1.494-.516-3.158-.773-4.995-.773-1.846 0-3.549.268-5.112.803-1.221.424-2.35 1.117-3.389 2.076-1.041.959-1.84 2.125-2.399 3.498s-.839 2.982-.839 4.83c-.002 2.392.462 4.39 1.391 5.996zm3.967-11.389c.47-1.355 1.222-2.379 2.256-3.072 1.034-.691 2.288-1.039 3.762-1.039 1.292 0 2.329.219 3.111.652.782.436 1.461 1.064 2.037 1.889.574.824 1.016 1.824 1.323 2.996.309 1.174.462 2.469.462 3.883 0 2.062-.284 3.816-.854 5.264-.571 1.447-1.358 2.473-2.362 3.08-1.004.605-2.142.91-3.413.91-1.373 0-2.564-.32-3.574-.957-1.007-.637-1.835-1.727-2.481-3.27-.646-1.541-.969-3.49-.969-5.846-.001-1.638.233-3.134.702-4.49zm19.811-3.887c.1.062.175.148.225.258.101.254.16 1.01.181 2.271l.078 3.195v5.617l-.125 4.422c-.03.797-.08 1.393-.15 1.785-.031.213-.073.355-.129.424-.055.072-.143.121-.263.152-.211.072-.891.127-2.036.166v1.328c1.341-.072 2.798-.109 4.371-.109 1.764 0 3.509.037 5.233.109v-1.328c-.968-.02-1.554-.049-1.756-.09-.201-.041-.348-.094-.438-.158-.091-.066-.156-.139-.196-.221-.081-.17-.137-.539-.167-1.104-.021-.281-.052-1.463-.094-3.541-.031-1.691-.046-3.297-.046-4.809 0-.959.03-2.863.093-5.719.032-1.273.062-2.092.094-2.455.475-.082.955-.123 1.44-.123 1.091 0 1.848.076 2.272.229.656.242 1.207.67 1.652 1.285.443.617.666 1.389.666 2.316 0 .92-.212 1.748-.636 2.49-.426.742-.945 1.256-1.562 1.545-.617.287-1.531.41-2.744.369l-.167.5c.303.223.616.555.939.998.646.877 1.434 2.082 2.361 3.615l3.241 5.338c.192.354.313.641.363.861.797-.041 1.6-.062 2.407-.062.695 0 1.82.021 3.375.062v-1.328c-.475-.01-.792-.049-.954-.119-.161-.07-.328-.195-.499-.375-.172-.18-.636-.771-1.394-1.771-.051-.07-.389-.57-1.015-1.502l-2.347-3.498-.175-.285c-.056-.102-.244-.385-.567-.857-.323-.469-.611-.93-.863-1.381 1.577-.586 2.745-1.377 3.504-2.377.758-1 1.139-2.109 1.139-3.332 0-1.029-.278-1.902-.833-2.619-.556-.717-1.228-1.189-2.015-1.416s-1.973-.342-3.557-.342c-.818 0-1.854.029-3.104.088-.757.047-1.665.068-2.725.068-1.242 0-2.2-.012-2.876-.035-1.383-.049-2.191-.074-2.423-.074v1.234c1.243.085 1.982.184 2.222.305zm24.148-1.458c-1.647 0-3.108-.035-4.382-.109v1.328c1.104.041 1.742.084 1.919.129.178.047.3.104.364.176.066.07.114.172.146.303.069.322.131 1.127.182 2.408.021.576.031 1.869.031 3.879v6.334c0 1.031-.042 2.152-.125 3.365-.051.826-.091 1.303-.121 1.424-.021.09-.069.172-.145.242s-.22.127-.432.166c-.162.031-.768.066-1.819.105v1.328c1.273-.072 2.724-.109 4.351-.109 1.87 0 3.628.037 5.274.109v-1.328c-.996-.02-1.6-.053-1.808-.098-.209-.045-.361-.105-.458-.182s-.166-.184-.206-.326c-.102-.312-.153-.99-.153-2.029l-.047-2.773v-6.105c0-.193.021-1.531.063-4.016.01-.729.025-1.223.047-1.486.03-.484.081-.812.152-.984.03-.102.087-.184.168-.25s.219-.121.412-.166c.192-.047.803-.084 1.829-.115v-1.328c-1.646.072-3.394.108-5.242.108zm11.713 20.968l4.492.109c2.036 0 3.776-.223 5.219-.672 1.441-.451 2.781-1.186 4.016-2.205 1.235-1.02 2.206-2.287 2.912-3.801.706-1.516 1.059-3.236 1.059-5.164 0-1.516-.236-2.908-.711-4.182-.282-.756-.698-1.463-1.248-2.119s-1.223-1.225-2.02-1.705c-.797-.479-1.732-.828-2.806-1.045-1.075-.217-2.505-.326-4.289-.326-.777 0-1.812.018-3.102.053-1.785.059-3.001.088-3.646.088l-5.492-.109v1.219c1.096.143 1.729.232 1.9.273s.297.102.377.182c.051.051.091.121.121.213.101.393.166 1.303.195 2.727.052 2.574.078 4.529.078 5.861v2.484c0 3.039-.057 5.236-.172 6.59-.32.232-.669.455-1.049.668l-.419.242v.729l4.585-.11zm1.306-7.705v-3.475c0-3.959.052-6.654.156-8.086.938-.135 1.797-.203 2.574-.203 2.067 0 3.611.182 4.631.545 1.019.363 1.861.949 2.527 1.756.666.809 1.146 1.75 1.438 2.824.292 1.074.438 2.188.438 3.338 0 1.26-.146 2.438-.438 3.527-.293 1.09-.704 2.027-1.234 2.814-.529.787-1.082 1.383-1.656 1.787-.576.402-1.246.711-2.014.922-1.04.283-2.229.426-3.572.426-.857 0-1.756-.078-2.694-.236-.104-.956-.156-2.935-.156-5.939zm17.173 7.705l3.489.109v-1.25c-1.2-.039-1.921-.129-2.162-.271-.161-.1-.242-.271-.242-.512 0-.342.252-1.207.754-2.594l.662-1.811h7.814l1.297 3.318c.231.574.348.986.348 1.236 0 .201-.079.344-.234.43-.156.086-.846.154-2.066.203v1.25l5.311-.109 4.205.109v-1.25l-.666-.074c-.474-.031-.769-.066-.885-.105-.116-.041-.219-.102-.31-.184-.091-.08-.188-.211-.287-.393l-.605-1.395-.938-2.072-6.762-15.809h-2.157l-1.331 3.438-3.949 9.752c-.747 1.846-1.251 3.084-1.513 3.709-.575 1.332-.921 2.102-1.036 2.309-.117.207-.23.359-.341.455-.111.094-.245.166-.401.211s-.643.098-1.46.158v1.25l3.465-.108zm6.32-15.912l3.241 7.834c-.92.031-1.962.049-3.125.049-1.203 0-2.28-.018-3.231-.049l3.115-7.834z"/></g><g id="of"><path d="M169.085 9.747c.133.359.368.643.708.848s.801.307 1.381.307c.493 0 .937-.074 1.33-.223.394-.15.804-.367 1.231-.652.427-.285.741-.545.941-.779.278-.338.523-.824.736-1.461.212-.639.318-1.277.318-1.916 0-.336-.041-.646-.124-.93s-.213-.527-.388-.729c-.177-.203-.438-.367-.785-.494s-.73-.191-1.15-.191c-.503 0-.978.096-1.425.289s-.857.438-1.231.732-.634.533-.779.715c-.235.287-.454.76-.656 1.414-.203.654-.304 1.283-.304 1.889.001.429.066.824.197 1.181zm1.856-3.469c.217-.816.465-1.369.744-1.66.278-.289.613-.436 1.005-.436.381 0 .69.133.928.4.237.266.356.697.356 1.293 0 .703-.104 1.439-.309 2.211-.142.527-.297.941-.466 1.242s-.354.518-.558.652-.443.201-.723.201c-.416 0-.736-.129-.965-.389-.227-.258-.341-.688-.341-1.289.002-.666.112-1.41.329-2.225zm6.726-1.72l.959.008-1.058 5.475c-.278 1.498-.503 2.482-.674 2.951-.088.232-.192.395-.312.486-.12.09-.25.135-.392.135-.147 0-.28-.051-.4-.152-.12-.104-.23-.27-.333-.504l-.234.045c-.055.264-.113.506-.181.729-.065.223-.167.514-.304.875.2.084.386.125.557.125.229 0 .469-.066.718-.197.474-.25.941-.641 1.402-1.176.462-.535.831-1.152 1.106-1.852.275-.701.609-1.84 1-3.418l.812-3.521.734-.008 1.131.008c.049-.24.125-.492.228-.758l-.073-.117c-.157.029-.396.055-.713.074-.524.033-.853.049-.984.043h-.169c.113-.648.257-1.297.432-1.945.069-.244.137-.424.202-.541.066-.117.155-.209.269-.279.111-.066.229-.102.352-.102.157 0 .333.064.528.191s.396.344.602.652l.219-.043c.083-.588.222-1.211.414-1.871-.205-.078-.404-.117-.601-.117-.298 0-.529.035-.692.105-.164.072-.506.295-1.025.67-.521.377-.994.762-1.419 1.156-.273.26-.477.51-.608.754-.083.156-.171.445-.264.863l-.096.389c-.204.094-.468.186-.788.277-.321.09-.561.166-.717.225l-.065.373.437-.008z"/></g><g id="university"><path d="M63.077 1.562c.085.064.14.119.16.166.039.084.063.221.077.406.021.475.031 1.008.031 1.6v1.613l-.005 1.218c0 .67.01 1.08.031 1.232.029.246.112.5.248.766.135.264.332.502.59.717.258.213.592.385.997.512.56.172 1.16.26 1.804.26.551 0 1.035-.061 1.455-.178.418-.119.78-.295 1.086-.527.304-.232.539-.492.707-.781.168-.287.278-.635.334-1.041.055-.406.082-.801.082-1.182v-1.492c0-.439.015-1.041.043-1.803s.059-1.189.09-1.285c.033-.096.074-.16.125-.193.101-.064.349-.096.742-.096v-.524l-1.41.039-.17.008c-.145 0-.6-.016-1.365-.047v.523c.47.012.773.055.914.127.068.033.115.084.146.152.046.109.076.432.089.965.006.246.008.928.008 2.045v1.298c0 .902-.074 1.514-.223 1.836s-.396.582-.746.783c-.349.201-.818.303-1.406.303-.512 0-.935-.076-1.267-.227s-.579-.346-.739-.59c-.162-.244-.261-.564-.299-.963-.017-.182-.025-.66-.025-1.436l-.006-.742v-1.474c0-.893.028-1.471.086-1.734.021-.109.063-.184.127-.221.123-.082.414-.121.873-.121v-.524l-.235.008-.856.023-.859.016-2.067-.047v.523l.833.089zm11.286 8.271c.706-.031 1.266-.047 1.677-.047l1.373.023v-.515l-.127.006c-.127 0-.327-.018-.603-.051-.103-.012-.174-.035-.213-.066l-.085-.123c-.033-.107-.06-.404-.076-.896-.031-.711-.047-1.395-.047-2.051v-3.163c2.508 3.061 4.445 5.354 5.812 6.883.37.051.733.105 1.09.164l.083-.057c-.059-.601-.087-2.31-.087-5.125 0-.359.01-.918.027-1.674s.059-1.24.123-1.451l.07-.096c.097-.062.403-.102.92-.113v-.531c-.66.031-1.199.047-1.619.047-.43 0-.904-.016-1.422-.047v.531c.563.008.894.051.992.127.059.047.096.148.113.305.051.402.076 1.742.076 4.021v1.467c-.588-.605-1.328-1.443-2.221-2.514-1.239-1.486-2.295-2.799-3.166-3.938l-.584.023-.92.023c-.254 0-.65-.016-1.188-.047v.531c.448.029.718.057.811.082.094.025.16.061.2.105l.093.205c.021.094.033.295.037.604l.031 1.85v2.039c0 .562-.009 1.02-.025 1.371-.035.619-.065 1.008-.092 1.168-.021.119-.048.197-.08.236l-.117.082c-.071.021-.357.045-.857.07v.542h.001zm14.632-8.836c-.69 0-1.302-.016-1.835-.047v.562c.459.018.725.035.799.053l.151.074.06.127c.03.135.055.471.076 1.008.012.242.016.783.016 1.625v2.65c0 .432-.018.9-.055 1.408-.021.348-.037.545-.05.596l-.06.102-.18.07c-.068.014-.32.027-.758.045v.562c.533-.031 1.141-.047 1.822-.047.783 0 1.52.016 2.21.047v-.561c-.419-.008-.672-.023-.761-.041l-.191-.076-.086-.137c-.043-.131-.064-.414-.064-.85l-.016-1.162v-2.555l.027-1.682.02-.621c.014-.203.034-.342.064-.412l.07-.105.172-.07c.08-.02.336-.035.765-.047v-.563c-.689.031-1.421.047-2.196.047zm10.138 8.883c.258-.723.75-1.957 1.479-3.699l.855-2.043.451-1.053c.364-.871.604-1.35.717-1.439.067-.051.307-.096.718-.133v-.563l-1.371.047-1.612-.047v.562c.191.004.424.02.699.045l.229.031.092.078.035.162-.014.152c-.042.174-.158.514-.349 1.021-.267.719-.417 1.119-.451 1.199l-1.411 3.494-1.605-3.918-.041-.119-.258-.631c-.279-.676-.418-1.078-.418-1.205l.053-.156c.037-.039.101-.07.194-.092.16-.037.419-.059.774-.062v-.561l-2.279.047c-.22 0-.838-.016-1.854-.047v.562c.397.008.66.047.787.113.084.047.209.232.371.557.164.322.599 1.328 1.305 3.016l.902 2.15c.33.799.674 1.643 1.033 2.531h.969v.001zm9.182-.102c.38 0 1.074.008 2.08.023l1.021.023c.499 0 .884-.016 1.154-.047l.082-.082c0-.541.045-1.23.137-2.066h-.522c-.085.564-.165.949-.241 1.152l-.082.113c-.088.055-.325.098-.711.127-.385.029-.806.045-1.261.045-.468 0-.872-.016-1.214-.047-.011-.213-.016-.469-.016-.766v-2.654c.268-.031.609-.047 1.021-.047.461 0 .838.023 1.132.068.132.021.224.074.274.158.068.115.101.416.097.906h.515l-.031-1.389.031-1.393h-.515c-.01.375-.038.645-.089.805l-.092.133s-.174.041-.4.045l-1.047.025c-.312 0-.61-.01-.896-.031v-1.308c0-.74.029-1.352.086-1.832.393-.031.776-.047 1.151-.047.399 0 .809.023 1.226.07.282.029.451.062.506.102l.076.127c.029.113.048.42.058.92h.491l.064-.916.121-.916-.045-.082-.209-.041c-.465-.018-.773-.025-.926-.025l-1.287.031c-.711.014-1.355.02-1.935.02l-.837.002-1.471.014v.492c.497.025.803.062.917.113l.096.096c.046.105.076.398.089.875l.016 1.238v2.854c0 .33-.018.859-.053 1.586-.017.398-.039.686-.064.863-.159.127-.365.25-.617.367v.344c1.312-.032 2.019-.048 2.12-.048zm8.347-8.177l.094.107c.042.105.067.424.076.953l.031 1.34v2.355l-.055 1.854c-.013.334-.033.584-.063.75l-.053.178-.11.062c-.089.029-.373.053-.852.07v.562c.562-.031 1.173-.047 1.832-.047.738 0 1.471.016 2.193.047v-.561c-.405-.008-.651-.021-.735-.039l-.185-.066-.083-.092c-.033-.072-.057-.227-.069-.465-.008-.117-.021-.613-.036-1.486-.012-.711-.019-1.385-.019-2.02 0-.402.014-1.203.039-2.402.014-.533.026-.875.039-1.027.198-.033.399-.051.603-.051.457 0 .773.031.951.096.274.102.505.281.69.541.187.258.279.582.279.973 0 .387-.089.734-.268 1.047-.177.311-.395.527-.653.648s-.642.174-1.149.156l-.07.209c.128.094.259.232.394.42.271.367.601.873.991 1.518l1.358 2.242c.08.146.131.268.152.361.334-.016.671-.023 1.009-.023.292 0 .764.008 1.416.023v-.563c-.199-.004-.332-.021-.399-.051-.068-.029-.139-.082-.21-.158-.072-.074-.267-.322-.584-.742l-.426-.629-.983-1.469-.073-.119-.239-.359c-.135-.197-.256-.389-.36-.578.658-.246 1.146-.578 1.464-.998.316-.418.476-.885.476-1.396 0-.432-.116-.799-.349-1.1s-.514-.498-.843-.594c-.33-.096-.827-.143-1.491-.143-.343 0-.775.012-1.3.035-.317.018-.697.027-1.142.027-.52 0-.922-.006-1.205-.016l-1.015-.031v.523c.521.034.832.077.932.128zm16.391.628c.026-.264.069-.533.128-.809l-.051-.15c-.309-.152-.675-.268-1.096-.35-.421-.08-.855-.119-1.305-.119-.433 0-.854.047-1.265.143-.41.096-.778.252-1.104.473s-.588.529-.787.93-.299.836-.299 1.311c0 .338.055.654.165.947.109.295.277.545.499.752.222.209.515.367.88.477.241.072.745.188 1.511.35.534.123.906.24 1.118.355s.367.268.467.457c.1.191.149.42.149.686 0 .318-.071.602-.213.852s-.37.445-.687.588c-.314.143-.674.213-1.076.213-.462 0-.888-.1-1.276-.299-.391-.199-.665-.432-.826-.695-.055-.453-.079-.834-.07-1.139h-.53c-.006.986-.072 1.721-.204 2.203.486.238.933.404 1.339.502s.87.146 1.39.146c.711 0 1.32-.102 1.828-.305.317-.127.626-.318.926-.574s.535-.539.705-.848c.225-.41.336-.887.336-1.428 0-.309-.04-.586-.121-.834-.08-.248-.183-.453-.307-.615-.125-.164-.293-.307-.505-.432-.211-.125-.488-.232-.831-.32-.131-.029-.415-.082-.854-.158-.437-.076-.778-.141-1.023-.191-.322-.084-.565-.178-.73-.279s-.291-.24-.38-.412c-.089-.174-.136-.4-.14-.68 0-.391.158-.73.474-1.02.315-.291.761-.436 1.338-.436.402 0 .767.072 1.09.215.324.145.553.309.684.494.034.203.055.551.063 1.041h.531c.011-.432.031-.778.059-1.042zm5.637-1.232c-.69 0-1.302-.016-1.835-.047v.562c.459.018.725.035.799.053l.151.074.06.127c.03.135.055.471.076 1.008.01.242.016.783.016 1.625v2.65c0 .432-.019.9-.055 1.408-.021.348-.038.545-.05.596l-.061.102-.18.07c-.067.014-.32.027-.757.045v.562c.533-.031 1.141-.047 1.822-.047.782 0 1.519.016 2.209.047v-.561c-.418-.008-.672-.023-.76-.041l-.191-.076-.086-.137c-.043-.131-.064-.414-.064-.85l-.016-1.162v-2.555l.026-1.682.021-.621c.013-.203.034-.342.063-.412l.07-.105.172-.07s.335-.035.765-.047v-.563c-.689.031-1.421.047-2.195.047zm8.817 8.781c.564 0 1.258.018 2.079.055v-.523c-.51-.018-.812-.053-.91-.105-.099-.053-.161-.135-.191-.244-.047-.186-.07-.736-.07-1.65v-3.802c0-1.012.006-1.59.02-1.738h.907c.487 0 .904.018 1.251.051l.203.045c.03.029.059.119.083.271.048.301.074.615.083.945h.523c.012-.893.021-1.357.025-1.391.008-.195.03-.42.068-.68l-.063-.062-.589.043c-.36.014-1.072.02-2.138.02h-2.561c-1.036 0-1.735-.006-2.1-.02-.224-.008-.435-.021-.634-.043l-.057.062c.029.217.05.418.062.604l.031 1.467h.523c.009-.367.041-.699.096-.996.021-.123.046-.195.076-.221.021-.021.102-.039.242-.051.347-.031.75-.045 1.207-.045h.91c.011.123.016.701.016 1.738v3.802c0 .914-.023 1.463-.07 1.645-.034.119-.099.203-.194.254s-.397.084-.907.102v.523c.785-.038 1.478-.056 2.079-.056zm10.396-6.382c-.305-.596-.611-1.123-.92-1.58-.207-.309-.37-.518-.489-.631-.118-.111-.306-.24-.563-.383l-.704.17-1.346.268v.477c.317 0 .504.012.559.037.089.047.239.186.451.412.317.348.66.809 1.027 1.383.453.707.879 1.424 1.276 2.15.161.305.242.506.242.604v1.205c0 .338-.011.748-.032 1.23-.012.211-.035.338-.066.381l-.172.096c-.082.02-.364.039-.848.057v.562c.652-.031 1.294-.047 1.929-.047.651 0 1.381.016 2.189.047v-.563c-.473-.008-.752-.025-.841-.051-.09-.025-.153-.064-.191-.115s-.071-.197-.099-.443c-.028-.246-.041-.637-.041-1.174v-1.073c0-.219.01-.379.03-.475.03-.137.092-.295.185-.477.14-.268.507-.865 1.101-1.797s1.147-1.742 1.66-2.432v-.284h-1.003c-.059.123-.205.387-.437.793-.668 1.182-1.069 1.891-1.204 2.123l-.8 1.293c-.1-.219-.399-.806-.893-1.763z"/></g><g id="divider"><path d="M56.071.96v33.885h1.5v-33.885h-1.5z"/></g><g id="uf"><g><path d="M36.207 29.136v-8.674h7.992v-5.719h-7.992v-8.101h8.775v3.142h5.789v-8.814h-23.177v5.672h2.171v22.494h-2.163v5.718h10.697v-5.718h-2.092zM24.579 22.048v-15.408h2.142v-5.67h-10.72v5.67h2.09v13.492c0 5.656-.654 8.373-4.715 8.373s-4.714-2.717-4.714-8.373v-13.492h2.074v-5.67h-10.736v5.67h2.126v15.408c0 3.365 0 6.123 1.587 8.6 1.774 2.805 4.995 4.588 9.663 4.588 8.263-.001 11.203-4.307 11.203-13.188z"/></g></g></svg>