<svg id="svg-top" xmlns="http://www.w3.org/2000/svg" preserveAspectRatio="xMinYMid meet" viewBox="0 0 194.838 53.874">
  <g class="florida">
    <path d="M76.061 21.054h-1.328c-.02.895-.075 1.469-.165 1.721-.062.191-.156.307-.287.346-.342.121-1.165.184-2.472.184-.452 0-1.321-.037-2.607-.107v-2.105c0-2.617.057-4.426.172-5.43.282-.018.814-.041 1.594-.068.781-.027 1.258-.041 1.43-.041.886 0 1.658.059 2.318.174s1.082.232 1.263.354c.06.029.105.08.136.148.04.092.07.355.091.797.05.842.075 1.381.075 1.621h1.234c.011-.666.056-1.443.136-2.33.081-.889.176-1.621.286-2.197l-.137-.211c-.908-.102-1.871-.152-2.892-.152l-7.282.141-5.377-.109v1.266c.977.061 1.573.117 1.792.168.218.051.361.104.427.158.066.057.114.139.146.25.091.324.147.875.167 1.652.094 2.688.141 4.104.141 4.244v6.272c0 .535-.025 1.416-.078 2.643-.052 1.229-.094 1.959-.123 2.191-.051.402-.123.666-.215.787-.061.082-.137.137-.228.168-.183.07-.858.115-2.028.135v1.25c1.862-.072 3.223-.109 4.082-.109l5.949.109v-1.203c-1.402-.1-2.195-.184-2.376-.248-.183-.066-.308-.154-.379-.266-.101-.16-.181-.723-.237-1.686s-.086-2.639-.086-5.027v-1.68l1.206-.016c1.606 0 2.783.066 3.526.197.291.061.473.156.543.287.141.262.226 1.023.256 2.281h1.328l-.001-6.559zm8.426 13.781c.655 0 1.815.02 3.479.061 2.188.053 3.375.078 3.556.078 1.291 0 2.243-.025 2.86-.078.291-.031.584-.088.877-.172.01-.191.056-.766.137-1.725l.38-3.057.046-.5h-1.25c-.191.994-.389 1.877-.591 2.646-.091.305-.177.492-.257.562-.082.072-.329.137-.743.197-1.142.178-2.479.266-4.015.266-.504 0-1.455-.035-2.848-.107-.011-.305-.02-1.164-.023-2.582-.006-1.418-.014-2.848-.023-4.291l-.016-4.373c0-1.697.023-3.1.07-4.209s.096-1.732.146-1.869c.05-.137.131-.234.242-.295.252-.131.947-.223 2.088-.273v-1.328c-1.645.074-3.385.109-5.221.109-1.645 0-3.107-.035-4.389-.109v1.328c1.316.051 2.09.152 2.323.305.11.061.187.15.228.271.092.273.154 1.357.188 3.256.019.748.026 2.715.026 5.906 0 2.17-.021 4.031-.062 5.58-.042 1.551-.088 2.451-.139 2.703l-.074.168c-.061.08-.196.18-.407.301-.472.283-.838.48-1.099.592v.777c2.019-.091 3.522-.138 4.511-.138zm13.058-4.205c.928 1.605 2.205 2.818 3.836 3.641 1.627.824 3.576 1.236 5.847 1.236 2.098 0 3.964-.34 5.598-1.016 1.19-.506 2.252-1.227 3.186-2.166.933-.938 1.642-2.014 2.126-3.225.655-1.625.982-3.387.982-5.285 0-1.121-.113-2.145-.34-3.074-.227-.928-.562-1.781-1.006-2.559s-1.092-1.537-1.945-2.279c-.852-.742-1.833-1.311-2.941-1.703-1.494-.516-3.158-.773-4.995-.773-1.846 0-3.549.268-5.112.803-1.221.424-2.35 1.117-3.389 2.076-1.041.959-1.84 2.125-2.399 3.498s-.839 2.982-.839 4.83c-.002 2.392.462 4.39 1.391 5.996zm3.967-11.389c.47-1.355 1.222-2.379 2.256-3.072 1.034-.691 2.288-1.039 3.762-1.039 1.292 0 2.329.219 3.111.652.782.436 1.461 1.064 2.037 1.889.574.824 1.016 1.824 1.323 2.996.309 1.174.462 2.469.462 3.883 0 2.062-.284 3.816-.854 5.264-.571 1.447-1.358 2.473-2.362 3.08-1.004.605-2.142.91-3.413.91-1.373 0-2.564-.32-3.574-.957-1.007-.637-1.835-1.727-2.481-3.27-.646-1.541-.969-3.49-.969-5.846-.001-1.638.233-3.134.702-4.49zm19.811-3.887c.1.062.175.148.225.258.101.254.16 1.01.181 2.271l.078 3.195v5.617l-.125 4.422c-.03.797-.08 1.393-.15 1.785-.031.213-.073.355-.129.424-.055.072-.143.121-.263.152-.211.072-.891.127-2.036.166v1.328c1.341-.072 2.798-.109 4.371-.109 1.764 0 3.509.037 5.233.109v-1.328c-.968-.02-1.554-.049-1.756-.09-.201-.041-.348-.094-.438-.158-.091-.066-.156-.139-.196-.221-.081-.17-.137-.539-.167-1.104-.021-.281-.052-1.463-.094-3.541-.031-1.691-.046-3.297-.046-4.809 0-.959.03-2.863.093-5.719.032-1.273.062-2.092.094-2.455.475-.082.955-.123 1.44-.123 1.091 0 1.848.076 2.272.229.656.242 1.207.67 1.652 1.285.443.617.666 1.389.666 2.316 0 .92-.212 1.748-.636 2.49-.426.742-.945 1.256-1.562 1.545-.617.287-1.531.41-2.744.369l-.167.5c.303.223.616.555.939.998.646.877 1.434 2.082 2.361 3.615l3.241 5.338c.192.354.313.641.363.861.797-.041 1.6-.062 2.407-.062.695 0 1.82.021 3.375.062v-1.328c-.475-.01-.792-.049-.954-.119-.161-.07-.328-.195-.499-.375-.172-.18-.636-.771-1.394-1.771-.051-.07-.389-.57-1.015-1.502l-2.347-3.498-.175-.285c-.056-.102-.244-.385-.567-.857-.323-.469-.611-.93-.863-1.381 1.577-.586 2.745-1.377 3.504-2.377.758-1 1.139-2.109 1.139-3.332 0-1.029-.278-1.902-.833-2.619-.556-.717-1.228-1.189-2.015-1.416s-1.973-.342-3.557-.342c-.818 0-1.854.029-3.104.088-.757.047-1.665.068-2.725.068-1.242 0-2.2-.012-2.876-.035-1.383-.049-2.191-.074-2.423-.074v1.234c1.243.085 1.982.184 2.222.305zm24.148-1.458c-1.647 0-3.108-.035-4.382-.109v1.328c1.104.041 1.742.084 1.919.129.178.047.3.104.364.176.066.07.114.172.146.303.069.322.131 1.127.182 2.408.021.576.031 1.869.031 3.879v6.334c0 1.031-.042 2.152-.125 3.365-.051.826-.091 1.303-.121 1.424-.021.09-.069.172-.145.242s-.22.127-.432.166c-.162.031-.768.066-1.819.105v1.328c1.273-.072 2.724-.109 4.351-.109 1.87 0 3.628.037 5.274.109v-1.328c-.996-.02-1.6-.053-1.808-.098-.209-.045-.361-.105-.458-.182s-.166-.184-.206-.326c-.102-.312-.153-.99-.153-2.029l-.047-2.773v-6.105c0-.193.021-1.531.063-4.016.01-.729.025-1.223.047-1.486.03-.484.081-.812.152-.984.03-.102.087-.184.168-.25s.219-.121.412-.166c.192-.047.803-.084 1.829-.115v-1.328c-1.646.072-3.394.108-5.242.108zm11.713 20.968l4.492.109c2.036 0 3.776-.223 5.219-.672 1.441-.451 2.781-1.186 4.016-2.205 1.235-1.02 2.206-2.287 2.912-3.801.706-1.516 1.059-3.236 1.059-5.164 0-1.516-.236-2.908-.711-4.182-.282-.756-.698-1.463-1.248-2.119s-1.223-1.225-2.02-1.705c-.797-.479-1.732-.828-2.806-1.045-1.075-.217-2.505-.326-4.289-.326-.777 0-1.812.018-3.102.053-1.785.059-3.001.088-3.646.088l-5.492-.109v1.219c1.096.143 1.729.232 1.9.273s.297.102.377.182c.051.051.091.121.121.213.101.393.166 1.303.195 2.727.052 2.574.078 4.529.078 5.861v2.484c0 3.039-.057 5.236-.172 6.59-.32.232-.669.455-1.049.668l-.419.242v.729l4.585-.11zm1.306-7.705v-3.475c0-3.959.052-6.654.156-8.086.938-.135 1.797-.203 2.574-.203 2.067 0 3.611.182 4.631.545 1.019.363 1.861.949 2.527 1.756.666.809 1.146 1.75 1.438 2.824.292 1.074.438 2.188.438 3.338 0 1.26-.146 2.438-.438 3.527-.293 1.09-.704 2.027-1.234 2.814-.529.787-1.082 1.383-1.656 1.787-.576.402-1.246.711-2.014.922-1.04.283-2.229.426-3.572.426-.857 0-1.756-.078-2.694-.236-.104-.956-.156-2.935-.156-5.939zm17.173 7.705l3.489.109v-1.25c-1.2-.039-1.921-.129-2.162-.271-.161-.1-.242-.271-.242-.512 0-.342.252-1.207.754-2.594l.662-1.811h7.814l1.297 3.318c.231.574.348.986.348 1.236 0 .201-.079.344-.234.43-.156.086-.846.154-2.066.203v1.25l5.311-.109 4.205.109v-1.25l-.666-.074c-.474-.031-.769-.066-.885-.105-.116-.041-.219-.102-.31-.184-.091-.08-.188-.211-.287-.393l-.605-1.395-.938-2.072-6.762-15.809h-2.157l-1.331 3.438-3.949 9.752c-.747 1.846-1.251 3.084-1.513 3.709-.575 1.332-.921 2.102-1.036 2.309-.117.207-.23.359-.341.455-.111.094-.245.166-.401.211s-.643.098-1.46.158v1.25l3.465-.108zm6.32-15.912l3.241 7.834c-.92.031-1.962.049-3.125.049-1.203 0-2.28-.018-3.231-.049l3.115-7.834z"></path>
  </g>
  <g class="of">
    <path d="M169.085 9.747c.133.359.368.643.708.848s.801.307 1.381.307c.493 0 .937-.074 1.33-.223.394-.15.804-.367 1.231-.652.427-.285.741-.545.941-.779.278-.338.523-.824.736-1.461.212-.639.318-1.277.318-1.916 0-.336-.041-.646-.124-.93s-.213-.527-.388-.729c-.177-.203-.438-.367-.785-.494s-.73-.191-1.15-.191c-.503 0-.978.096-1.425.289s-.857.438-1.231.732-.634.533-.779.715c-.235.287-.454.76-.656 1.414-.203.654-.304 1.283-.304 1.889.001.429.066.824.197 1.181zm1.856-3.469c.217-.816.465-1.369.744-1.66.278-.289.613-.436 1.005-.436.381 0 .69.133.928.4.237.266.356.697.356 1.293 0 .703-.104 1.439-.309 2.211-.142.527-.297.941-.466 1.242s-.354.518-.558.652-.443.201-.723.201c-.416 0-.736-.129-.965-.389-.227-.258-.341-.688-.341-1.289.002-.666.112-1.41.329-2.225zm6.726-1.72l.959.008-1.058 5.475c-.278 1.498-.503 2.482-.674 2.951-.088.232-.192.395-.312.486-.12.09-.25.135-.392.135-.147 0-.28-.051-.4-.152-.12-.104-.23-.27-.333-.504l-.234.045c-.055.264-.113.506-.181.729-.065.223-.167.514-.304.875.2.084.386.125.557.125.229 0 .469-.066.718-.197.474-.25.941-.641 1.402-1.176.462-.535.831-1.152 1.106-1.852.275-.701.609-1.84 1-3.418l.812-3.521.734-.008 1.131.008c.049-.24.125-.492.228-.758l-.073-.117c-.157.029-.396.055-.713.074-.524.033-.853.049-.984.043h-.169c.113-.648.257-1.297.432-1.945.069-.244.137-.424.202-.541.066-.117.155-.209.269-.279.111-.066.229-.102.352-.102.157 0 .333.064.528.191s.396.344.602.652l.219-.043c.083-.588.222-1.211.414-1.871-.205-.078-.404-.117-.601-.117-.298 0-.529.035-.692.105-.164.072-.506.295-1.025.67-.521.377-.994.762-1.419 1.156-.273.26-.477.51-.608.754-.083.156-.171.445-.264.863l-.096.389c-.204.094-.468.186-.788.277-.321.09-.561.166-.717.225l-.065.373.437-.008z"></path>
  </g>
  <g class="university">
    <path d="M63.077 1.562c.085.064.14.119.16.166.039.084.063.221.077.406.021.475.031 1.008.031 1.6v1.613l-.005 1.218c0 .67.01 1.08.031 1.232.029.246.112.5.248.766.135.264.332.502.59.717.258.213.592.385.997.512.56.172 1.16.26 1.804.26.551 0 1.035-.061 1.455-.178.418-.119.78-.295 1.086-.527.304-.232.539-.492.707-.781.168-.287.278-.635.334-1.041.055-.406.082-.801.082-1.182v-1.492c0-.439.015-1.041.043-1.803s.059-1.189.09-1.285c.033-.096.074-.16.125-.193.101-.064.349-.096.742-.096v-.524l-1.41.039-.17.008c-.145 0-.6-.016-1.365-.047v.523c.47.012.773.055.914.127.068.033.115.084.146.152.046.109.076.432.089.965.006.246.008.928.008 2.045v1.298c0 .902-.074 1.514-.223 1.836s-.396.582-.746.783c-.349.201-.818.303-1.406.303-.512 0-.935-.076-1.267-.227s-.579-.346-.739-.59c-.162-.244-.261-.564-.299-.963-.017-.182-.025-.66-.025-1.436l-.006-.742v-1.474c0-.893.028-1.471.086-1.734.021-.109.063-.184.127-.221.123-.082.414-.121.873-.121v-.524l-.235.008-.856.023-.859.016-2.067-.047v.523l.833.089zm11.286 8.271c.706-.031 1.266-.047 1.677-.047l1.373.023v-.515l-.127.006c-.127 0-.327-.018-.603-.051-.103-.012-.174-.035-.213-.066l-.085-.123c-.033-.107-.06-.404-.076-.896-.031-.711-.047-1.395-.047-2.051v-3.163c2.508 3.061 4.445 5.354 5.812 6.883.37.051.733.105 1.09.164l.083-.057c-.059-.601-.087-2.31-.087-5.125 0-.359.01-.918.027-1.674s.059-1.24.123-1.451l.07-.096c.097-.062.403-.102.92-.113v-.531c-.66.031-1.199.047-1.619.047-.43 0-.904-.016-1.422-.047v.531c.563.008.894.051.992.127.059.047.096.148.113.305.051.402.076 1.742.076 4.021v1.467c-.588-.605-1.328-1.443-2.221-2.514-1.239-1.486-2.295-2.799-3.166-3.938l-.584.023-.92.023c-.254 0-.65-.016-1.188-.047v.531c.448.029.718.057.811.082.094.025.16.061.2.105l.093.205c.021.094.033.295.037.604l.031 1.85v2.039c0 .562-.009 1.02-.025 1.371-.035.619-.065 1.008-.092 1.168-.021.119-.048.197-.08.236l-.117.082c-.071.021-.357.045-.857.07v.542h.001zm14.632-8.836c-.69 0-1.302-.016-1.835-.047v.562c.459.018.725.035.799.053l.151.074.06.127c.03.135.055.471.076 1.008.012.242.016.783.016 1.625v2.65c0 .432-.018.9-.055 1.408-.021.348-.037.545-.05.596l-.06.102-.18.07c-.068.014-.32.027-.758.045v.562c.533-.031 1.141-.047 1.822-.047.783 0 1.52.016 2.21.047v-.561c-.419-.008-.672-.023-.761-.041l-.191-.076-.086-.137c-.043-.131-.064-.414-.064-.85l-.016-1.162v-2.555l.027-1.682.02-.621c.014-.203.034-.342.064-.412l.07-.105.172-.07c.08-.02.336-.035.765-.047v-.563c-.689.031-1.421.047-2.196.047zm10.138 8.883c.258-.723.75-1.957 1.479-3.699l.855-2.043.451-1.053c.364-.871.604-1.35.717-1.439.067-.051.307-.096.718-.133v-.563l-1.371.047-1.612-.047v.562c.191.004.424.02.699.045l.229.031.092.078.035.162-.014.152c-.042.174-.158.514-.349 1.021-.267.719-.417 1.119-.451 1.199l-1.411 3.494-1.605-3.918-.041-.119-.258-.631c-.279-.676-.418-1.078-.418-1.205l.053-.156c.037-.039.101-.07.194-.092.16-.037.419-.059.774-.062v-.561l-2.279.047c-.22 0-.838-.016-1.854-.047v.562c.397.008.66.047.787.113.084.047.209.232.371.557.164.322.599 1.328 1.305 3.016l.902 2.15c.33.799.674 1.643 1.033 2.531h.969v.001zm9.182-.102c.38 0 1.074.008 2.08.023l1.021.023c.499 0 .884-.016 1.154-.047l.082-.082c0-.541.045-1.23.137-2.066h-.522c-.085.564-.165.949-.241 1.152l-.082.113c-.088.055-.325.098-.711.127-.385.029-.806.045-1.261.045-.468 0-.872-.016-1.214-.047-.011-.213-.016-.469-.016-.766v-2.654c.268-.031.609-.047 1.021-.047.461 0 .838.023 1.132.068.132.021.224.074.274.158.068.115.101.416.097.906h.515l-.031-1.389.031-1.393h-.515c-.01.375-.038.645-.089.805l-.092.133s-.174.041-.4.045l-1.047.025c-.312 0-.61-.01-.896-.031v-1.308c0-.74.029-1.352.086-1.832.393-.031.776-.047 1.151-.047.399 0 .809.023 1.226.07.282.029.451.062.506.102l.076.127c.029.113.048.42.058.92h.491l.064-.916.121-.916-.045-.082-.209-.041c-.465-.018-.773-.025-.926-.025l-1.287.031c-.711.014-1.355.02-1.935.02l-.837.002-1.471.014v.492c.497.025.803.062.917.113l.096.096c.046.105.076.398.089.875l.016 1.238v2.854c0 .33-.018.859-.053 1.586-.017.398-.039.686-.064.863-.159.127-.365.25-.617.367v.344c1.312-.032 2.019-.048 2.12-.048zm8.347-8.177l.094.107c.042.105.067.424.076.953l.031 1.34v2.355l-.055 1.854c-.013.334-.033.584-.063.75l-.053.178-.11.062c-.089.029-.373.053-.852.07v.562c.562-.031 1.173-.047 1.832-.047.738 0 1.471.016 2.193.047v-.561c-.405-.008-.651-.021-.735-.039l-.185-.066-.083-.092c-.033-.072-.057-.227-.069-.465-.008-.117-.021-.613-.036-1.486-.012-.711-.019-1.385-.019-2.02 0-.402.014-1.203.039-2.402.014-.533.026-.875.039-1.027.198-.033.399-.051.603-.051.457 0 .773.031.951.096.274.102.505.281.69.541.187.258.279.582.279.973 0 .387-.089.734-.268 1.047-.177.311-.395.527-.653.648s-.642.174-1.149.156l-.07.209c.128.094.259.232.394.42.271.367.601.873.991 1.518l1.358 2.242c.08.146.131.268.152.361.334-.016.671-.023 1.009-.023.292 0 .764.008 1.416.023v-.563c-.199-.004-.332-.021-.399-.051-.068-.029-.139-.082-.21-.158-.072-.074-.267-.322-.584-.742l-.426-.629-.983-1.469-.073-.119-.239-.359c-.135-.197-.256-.389-.36-.578.658-.246 1.146-.578 1.464-.998.316-.418.476-.885.476-1.396 0-.432-.116-.799-.349-1.1s-.514-.498-.843-.594c-.33-.096-.827-.143-1.491-.143-.343 0-.775.012-1.3.035-.317.018-.697.027-1.142.027-.52 0-.922-.006-1.205-.016l-1.015-.031v.523c.521.034.832.077.932.128zm16.391.628c.026-.264.069-.533.128-.809l-.051-.15c-.309-.152-.675-.268-1.096-.35-.421-.08-.855-.119-1.305-.119-.433 0-.854.047-1.265.143-.41.096-.778.252-1.104.473s-.588.529-.787.93-.299.836-.299 1.311c0 .338.055.654.165.947.109.295.277.545.499.752.222.209.515.367.88.477.241.072.745.188 1.511.35.534.123.906.24 1.118.355s.367.268.467.457c.1.191.149.42.149.686 0 .318-.071.602-.213.852s-.37.445-.687.588c-.314.143-.674.213-1.076.213-.462 0-.888-.1-1.276-.299-.391-.199-.665-.432-.826-.695-.055-.453-.079-.834-.07-1.139h-.53c-.006.986-.072 1.721-.204 2.203.486.238.933.404 1.339.502s.87.146 1.39.146c.711 0 1.32-.102 1.828-.305.317-.127.626-.318.926-.574s.535-.539.705-.848c.225-.41.336-.887.336-1.428 0-.309-.04-.586-.121-.834-.08-.248-.183-.453-.307-.615-.125-.164-.293-.307-.505-.432-.211-.125-.488-.232-.831-.32-.131-.029-.415-.082-.854-.158-.437-.076-.778-.141-1.023-.191-.322-.084-.565-.178-.73-.279s-.291-.24-.38-.412c-.089-.174-.136-.4-.14-.68 0-.391.158-.73.474-1.02.315-.291.761-.436 1.338-.436.402 0 .767.072 1.09.215.324.145.553.309.684.494.034.203.055.551.063 1.041h.531c.011-.432.031-.778.059-1.042zm5.637-1.232c-.69 0-1.302-.016-1.835-.047v.562c.459.018.725.035.799.053l.151.074.06.127c.03.135.055.471.076 1.008.01.242.016.783.016 1.625v2.65c0 .432-.019.9-.055 1.408-.021.348-.038.545-.05.596l-.061.102-.18.07c-.067.014-.32.027-.757.045v.562c.533-.031 1.141-.047 1.822-.047.782 0 1.519.016 2.209.047v-.561c-.418-.008-.672-.023-.76-.041l-.191-.076-.086-.137c-.043-.131-.064-.414-.064-.85l-.016-1.162v-2.555l.026-1.682.021-.621c.013-.203.034-.342.063-.412l.07-.105.172-.07s.335-.035.765-.047v-.563c-.689.031-1.421.047-2.195.047zm8.817 8.781c.564 0 1.258.018 2.079.055v-.523c-.51-.018-.812-.053-.91-.105-.099-.053-.161-.135-.191-.244-.047-.186-.07-.736-.07-1.65v-3.802c0-1.012.006-1.59.02-1.738h.907c.487 0 .904.018 1.251.051l.203.045c.03.029.059.119.083.271.048.301.074.615.083.945h.523c.012-.893.021-1.357.025-1.391.008-.195.03-.42.068-.68l-.063-.062-.589.043c-.36.014-1.072.02-2.138.02h-2.561c-1.036 0-1.735-.006-2.1-.02-.224-.008-.435-.021-.634-.043l-.057.062c.029.217.05.418.062.604l.031 1.467h.523c.009-.367.041-.699.096-.996.021-.123.046-.195.076-.221.021-.021.102-.039.242-.051.347-.031.75-.045 1.207-.045h.91c.011.123.016.701.016 1.738v3.802c0 .914-.023 1.463-.07 1.645-.034.119-.099.203-.194.254s-.397.084-.907.102v.523c.785-.038 1.478-.056 2.079-.056zm10.396-6.382c-.305-.596-.611-1.123-.92-1.58-.207-.309-.37-.518-.489-.631-.118-.111-.306-.24-.563-.383l-.704.17-1.346.268v.477c.317 0 .504.012.559.037.089.047.239.186.451.412.317.348.66.809 1.027 1.383.453.707.879 1.424 1.276 2.15.161.305.242.506.242.604v1.205c0 .338-.011.748-.032 1.23-.012.211-.035.338-.066.381l-.172.096c-.082.02-.364.039-.848.057v.562c.652-.031 1.294-.047 1.929-.047.651 0 1.381.016 2.189.047v-.563c-.473-.008-.752-.025-.841-.051-.09-.025-.153-.064-.191-.115s-.071-.197-.099-.443c-.028-.246-.041-.637-.041-1.174v-1.073c0-.219.01-.379.03-.475.03-.137.092-.295.185-.477.14-.268.507-.865 1.101-1.797s1.147-1.742 1.66-2.432v-.284h-1.003c-.059.123-.205.387-.437.793-.668 1.182-1.069 1.891-1.204 2.123l-.8 1.293c-.1-.219-.399-.806-.893-1.763z"></path>
  </g>
  <g class="divider">
    <path d="M56.071.96v33.885h1.5v-33.885h-1.5z"></path>
  </g>
  <g class="uf">
    <path d="M36.207 29.136v-8.674h7.992v-5.719h-7.992v-8.101h8.775v3.142h5.789v-8.814h-23.177v5.672h2.171v22.494h-2.163v5.718h10.697v-5.718h-2.092zM24.579 22.048v-15.408h2.142v-5.67h-10.72v5.67h2.09v13.492c0 5.656-.654 8.373-4.715 8.373s-4.714-2.717-4.714-8.373v-13.492h2.074v-5.67h-10.736v5.67h2.126v15.408c0 3.365 0 6.123 1.587 8.6 1.774 2.805 4.995 4.588 9.663 4.588 8.263-.001 11.203-4.307 11.203-13.188z"></path>
  </g>
</svg>